<svg xmlns="http://www.w3.org/2000/svg" width="545.131" height="600.591" viewBox="0 0 545.131 600.591"><g transform="translate(-45.411 -36.125)"><g transform="translate(153.145 60.723)"><g transform="translate(134.714 38.627)"><g transform="translate(48.119 19.515)"><path d="M254.544,99.961v.717l27.872,16.748v-.719a8.215,8.215,0,0,0-3.846-6.156l-1.859-1.118c-2.759-1.657-4.751-5.494-3.994-7.693h0l-.01-.006a3.641,3.641,0,0,0,.126-.938c0-2.362-1.871-5.414-4.217-6.894a3.393,3.393,0,0,0-2.334-.6c-2.187.389-2.376,1.8-2.028,3.356l-.01-.007,0,.009c.751,3.1-1.241,4.541-4,2.885l-1.859-1.117C256.266,97.149,254.544,97.836,254.544,99.961Zm11.665-3.155c0-1.258,1.014-1.663,2.27-.907a4.841,4.841,0,0,1,2.272,3.636c0,1.247-1.014,1.651-2.272.9A4.841,4.841,0,0,1,266.209,96.806Z" transform="translate(-234.582 -91.16)" fill="#bcbcbc"/><path d="M241.1,98.88l67.795,40.737v-1.739c0-5.167-4.189-11.873-9.354-14.976L250.454,93.409c-5.166-3.1-9.354-1.433-9.354,3.733Z" transform="translate(-241.1 -91.848)" fill="#d3d3d3"/></g><path d="M210.1,80.658l4.18-1.711.013.027a3.571,3.571,0,0,1,3.235.261L369.94,172.9a10.193,10.193,0,0,1,4.857,8.685V429.971a4.2,4.2,0,0,1-2.171,3.7h0a4.355,4.355,0,0,1-.935.385l-3.188,1.307-1.27-2.453L215.946,339.932a8.348,8.348,0,0,1-3.978-7.112V82.344a3.578,3.578,0,0,1,.249-1.262l-1.6.456Z" transform="translate(-208.009 -78.705)" fill="#0b4656"/><path d="M208.693,83.434V333.908a8.348,8.348,0,0,0,3.976,7.112l152.386,93.656a4.243,4.243,0,0,0,6.465-3.616V182.679a10.2,10.2,0,0,0-4.855-8.686l-152.41-93.67A3.651,3.651,0,0,0,208.693,83.434Z" transform="translate(-208.693 -78.185)" fill="#063444"/><path d="M212.439,87.031V329.8a3.126,3.126,0,0,0,1.489,2.662l148.045,90.988a1.424,1.424,0,0,0,2.169-1.213V179.84a4.545,4.545,0,0,0-2.165-3.872L214.969,85.616A1.661,1.661,0,0,0,212.439,87.031Z" transform="translate(-206.877 -75.475)" fill="#0082a0"/><g transform="translate(20.792 21.742)"><path d="M269.041,129.847V220.4a1.164,1.164,0,0,0,.555.993l55.22,33.939a.531.531,0,0,0,.809-.453V164.465a1.7,1.7,0,0,0-.808-1.445l-54.834-33.7A.619.619,0,0,0,269.041,129.847Z" transform="translate(-200.226 -75.952)" fill="#0fb1b5"/><path d="M269.041,202.341v8.679a1.164,1.164,0,0,0,.555.993l55.22,33.939a.531.531,0,0,0,.809-.453v-8.541a1.694,1.694,0,0,0-.808-1.445l-54.834-33.7A.619.619,0,0,0,269.041,202.341Z" transform="translate(-200.226 -40.805)" fill="#0fb1b5"/><path d="M272.936,183.058v6.9a.929.929,0,0,0,.442.791l43.931,27a.422.422,0,0,0,.643-.359v-6.8a1.35,1.35,0,0,0-.641-1.149l-43.623-26.81A.493.493,0,0,0,272.936,183.058Z" transform="translate(-198.338 -50.092)" fill="#1cc6c6"/><path d="M269.041,214.467v8.679a1.164,1.164,0,0,0,.555.993l55.22,33.939a.531.531,0,0,0,.809-.453v-8.541a1.694,1.694,0,0,0-.808-1.445l-54.834-33.7A.619.619,0,0,0,269.041,214.467Z" transform="translate(-200.226 -34.925)" fill="#0fb1b5"/><path d="M277.5,231.785v8.68a1.164,1.164,0,0,0,.555.993l42.66,26.227a.531.531,0,0,0,.809-.453v-8.541a1.694,1.694,0,0,0-.808-1.445l-42.273-25.989A.619.619,0,0,0,277.5,231.785Z" transform="translate(-196.125 -26.528)" fill="#0fb1b5"/><path d="M228.455,194.785v8.68a1.164,1.164,0,0,0,.555.993l42.659,26.227a.532.532,0,0,0,.809-.453v-8.541a1.694,1.694,0,0,0-.808-1.445L229.4,194.258A.619.619,0,0,0,228.455,194.785Z" transform="translate(-219.904 -44.467)" fill="#0fb1b5"/><path d="M228.455,212.01v8.68a1.164,1.164,0,0,0,.555.993l42.659,26.227a.531.531,0,0,0,.809-.453v-8.541a1.7,1.7,0,0,0-.808-1.445L229.4,211.483A.619.619,0,0,0,228.455,212.01Z" transform="translate(-219.904 -36.116)" fill="#0fb1b5"/><path d="M269.041,238.719V247.4a1.162,1.162,0,0,0,.555.993l55.22,33.939a.531.531,0,0,0,.809-.453v-8.541a1.7,1.7,0,0,0-.808-1.445l-54.834-33.7A.62.62,0,0,0,269.041,238.719Z" transform="translate(-200.226 -23.167)" fill="#0fb1b5"/><path d="M295.134,275.674v12.583a1.69,1.69,0,0,0,.806,1.44l11.708,7.112a.77.77,0,0,0,1.173-.656V283.771a2.458,2.458,0,0,0-1.172-2.094L296.5,274.909A.9.9,0,0,0,295.134,275.674Z" transform="translate(-187.575 -5.385)" fill="#0fb1b5"/><path d="M282.087,267.7v12.583a1.691,1.691,0,0,0,.806,1.44l11.708,7.112a.77.77,0,0,0,1.173-.656V275.8A2.458,2.458,0,0,0,294.6,273.7l-11.147-6.768A.9.9,0,0,0,282.087,267.7Z" transform="translate(-193.901 -9.25)" fill="#ffdc79"/><path d="M269.041,259.728V272.31a1.689,1.689,0,0,0,.8,1.44l11.708,7.112a.77.77,0,0,0,1.173-.656V267.824a2.458,2.458,0,0,0-1.172-2.094l-11.147-6.768A.9.9,0,0,0,269.041,259.728Z" transform="translate(-200.226 -13.116)" fill="#fe5c99"/><path d="M234.979,109.453v3.3a1.167,1.167,0,0,0,.555.993l36.981,22.743a.531.531,0,0,0,.809-.453v-3.164a1.7,1.7,0,0,0-.808-1.445l-36.6-22.5A.619.619,0,0,0,234.979,109.453Z" transform="translate(-216.741 -85.84)" fill="#0fb1b5"/><path d="M244.125,121.525v3.3a1.164,1.164,0,0,0,.555.993l23.4,14.473a.531.531,0,0,0,.809-.453v-3.164a1.7,1.7,0,0,0-.808-1.445L245.068,121A.619.619,0,0,0,244.125,121.525Z" transform="translate(-212.306 -79.988)" fill="#0fb1b5"/><path d="M222.7,114.913v3.3a1.164,1.164,0,0,0,.555.993l55.22,33.939a.531.531,0,0,0,.809-.453v-3.164a1.7,1.7,0,0,0-.808-1.445l-54.834-33.7A.619.619,0,0,0,222.7,114.913Z" transform="translate(-222.696 -83.193)" fill="#0fb1b5"/><path d="M226.01,123.391v3.3a1.17,1.17,0,0,0,.555.995l50.3,31a.531.531,0,0,0,.809-.453v-3.164a1.7,1.7,0,0,0-.808-1.445l-49.911-30.763A.62.62,0,0,0,226.01,123.391Z" transform="translate(-221.089 -79.082)" fill="#0fb1b5"/><path d="M240.789,139.016v3.3a1.169,1.169,0,0,0,.555.993L269.7,160.765a.531.531,0,0,0,.809-.453v-3.164a1.7,1.7,0,0,0-.808-1.445l-27.969-17.214A.619.619,0,0,0,240.789,139.016Z" transform="translate(-213.924 -71.506)" fill="#0fb1b5"/><path d="M222.7,134.413v3.3a1.164,1.164,0,0,0,.555.993l55.22,33.939a.531.531,0,0,0,.809-.453v-3.164a1.7,1.7,0,0,0-.808-1.445l-54.834-33.7A.619.619,0,0,0,222.7,134.413Z" transform="translate(-222.696 -73.738)" fill="#0fb1b5"/><path d="M222.7,140.913v3.3a1.164,1.164,0,0,0,.555.993l55.22,33.939a.531.531,0,0,0,.809-.453v-3.164a1.7,1.7,0,0,0-.808-1.445l-54.834-33.7A.619.619,0,0,0,222.7,140.913Z" transform="translate(-222.696 -70.587)" fill="#0fb1b5"/><path d="M231.619,152.934v3.3a1.164,1.164,0,0,0,.555.993l41.971,25.744a.531.531,0,0,0,.809-.453v-3.164a1.7,1.7,0,0,0-.808-1.445l-41.584-25.505A.619.619,0,0,0,231.619,152.934Z" transform="translate(-218.37 -64.759)" fill="#0fb1b5"/><path d="M222.7,153.913v3.3a1.164,1.164,0,0,0,.555.993l55.22,33.939a.531.531,0,0,0,.809-.453v-3.164a1.7,1.7,0,0,0-.808-1.445l-54.834-33.7A.619.619,0,0,0,222.7,153.913Z" transform="translate(-222.696 -64.284)" fill="#0fb1b5"/><path d="M222.7,160.413v3.3a1.164,1.164,0,0,0,.555.993l55.22,33.939a.531.531,0,0,0,.809-.453v-3.164a1.7,1.7,0,0,0-.808-1.445l-54.834-33.7A.619.619,0,0,0,222.7,160.413Z" transform="translate(-222.696 -61.132)" fill="#0fb1b5"/><g transform="translate(74.598 88.52)"><path d="M281.832,158.12c0,5.135,4.163,15.638,9.3,18.847s9.3-2.092,9.3-7.227-4.163-11.9-9.3-15.108S281.832,152.984,281.832,158.12Z" transform="translate(-268.623 -152.963)" fill="#fff"/><path d="M272.936,179.892V181.4l45.016,28.129V208.02c0-12.431-10.076-28.8-22.507-36.572-6.22-3.887-11.845-4.882-15.917-3.356S272.936,173.681,272.936,179.892Z" transform="translate(-272.936 -145.959)" fill="#fff"/></g><g transform="translate(22.687)"><path d="M237.975,100.38l67.795,40.737v-1.739c0-5.167-4.189-11.873-9.354-14.976L247.33,94.909c-5.166-3.1-9.354-1.433-9.354,3.733Z" transform="translate(-237.975 -93.348)" fill="#fff"/><path d="M251.419,101.461v.717l27.872,16.748v-.719a8.215,8.215,0,0,0-3.846-6.156l-1.859-1.118c-2.759-1.657-4.751-5.494-3.994-7.693h0l-.01-.006a3.641,3.641,0,0,0,.126-.938c0-2.362-1.871-5.414-4.217-6.894a3.393,3.393,0,0,0-2.334-.6c-2.187.389-2.376,1.8-2.028,3.356l-.01-.007,0,.009c.751,3.1-1.241,4.541-4,2.885l-1.859-1.117C253.141,98.649,251.419,99.336,251.419,101.461Zm11.665-3.155c0-1.258,1.014-1.663,2.27-.907a4.841,4.841,0,0,1,2.272,3.636c0,1.247-1.014,1.651-2.272.9A4.841,4.841,0,0,1,263.084,98.306Z" transform="translate(-231.457 -92.66)" fill="#eaeaea"/></g><path d="M222.7,127.825v3.3a1.164,1.164,0,0,0,.555.993l22.676,14.085a.531.531,0,0,0,.809-.453v-3.163a1.7,1.7,0,0,0-.808-1.445L223.639,127.3A.619.619,0,0,0,222.7,127.825Z" transform="translate(-222.696 -76.932)" fill="#0fb1b5"/></g></g><g opacity="0.4"><g transform="translate(33.283 13.498)"><path d="M149.681,67.393v.5l19.278,11.583v-.5a5.68,5.68,0,0,0-2.659-4.259l-1.287-.774c-1.908-1.146-3.286-3.8-2.762-5.32h0l-.007,0a2.493,2.493,0,0,0,.088-.649,6.426,6.426,0,0,0-2.916-4.769,2.341,2.341,0,0,0-1.616-.416c-1.512.27-1.642,1.246-1.4,2.321l-.007,0v.006c.52,2.146-.858,3.14-2.763,2l-1.287-.772C150.872,65.448,149.681,65.923,149.681,67.393Zm8.067-2.183c0-.87.7-1.151,1.571-.628a3.352,3.352,0,0,1,1.572,2.515c0,.863-.7,1.143-1.572.621A3.354,3.354,0,0,1,157.748,65.21Z" transform="translate(-135.873 -61.306)" fill="#bcbcbc"/><path d="M140.382,66.645l46.891,28.176v-1.2c0-3.574-2.9-8.211-6.469-10.358l-33.951-20.4c-3.574-2.147-6.471-.99-6.471,2.582Z" transform="translate(-140.382 -61.781)" fill="#d3d3d3"/></g><path d="M118.943,54.041l2.891-1.182.009.018a2.468,2.468,0,0,1,2.238.181L229.5,117.844a7.054,7.054,0,0,1,3.359,6.008v171.8a2.906,2.906,0,0,1-1.5,2.561h0a2.969,2.969,0,0,1-.647.266l-2.2.9-.879-1.7-104.64-64.311a5.775,5.775,0,0,1-2.75-4.919V55.209a2.512,2.512,0,0,1,.171-.875l-1.108.316Z" transform="translate(-117.494 -52.691)" fill="#0b4656"/><path d="M117.967,55.962V229.2a5.775,5.775,0,0,0,2.751,4.919l105.4,64.778a2.934,2.934,0,0,0,4.471-2.5V124.606a7.049,7.049,0,0,0-3.359-6.008L121.816,53.81A2.526,2.526,0,0,0,117.967,55.962Z" transform="translate(-117.967 -52.331)" fill="#063444"/><path d="M120.559,58.45V226.364a2.162,2.162,0,0,0,1.029,1.843l102.4,62.932a.984.984,0,0,0,1.5-.839V122.642a3.143,3.143,0,0,0-1.5-2.679L122.308,57.471A1.148,1.148,0,0,0,120.559,58.45Z" transform="translate(-116.71 -50.457)" fill="#0082a0"/><g transform="translate(14.382 15.038)"><path d="M159.708,88.064V150.7a.809.809,0,0,0,.383.687l38.195,23.474a.367.367,0,0,0,.56-.313V112.009a1.171,1.171,0,0,0-.56-1L160.36,87.7A.428.428,0,0,0,159.708,88.064Z" transform="translate(-112.111 -50.786)" fill="#0fb1b5"/><path d="M159.708,138.2v6a.806.806,0,0,0,.383.686l38.195,23.474a.367.367,0,0,0,.56-.313v-5.907a1.173,1.173,0,0,0-.56-1L160.36,137.84A.428.428,0,0,0,159.708,138.2Z" transform="translate(-112.111 -26.476)" fill="#0fb1b5"/><path d="M162.4,124.867v4.777a.64.64,0,0,0,.306.546l30.384,18.675a.293.293,0,0,0,.445-.249v-4.7a.932.932,0,0,0-.444-.794l-30.172-18.544A.341.341,0,0,0,162.4,124.867Z" transform="translate(-110.805 -32.9)" fill="#1cc6c6"/><path d="M159.708,146.591v6a.806.806,0,0,0,.383.686l38.195,23.474a.367.367,0,0,0,.56-.312v-5.908a1.173,1.173,0,0,0-.56-1L160.36,146.227A.428.428,0,0,0,159.708,146.591Z" transform="translate(-112.111 -22.41)" fill="#0fb1b5"/><path d="M165.559,158.571v6a.809.809,0,0,0,.383.687L195.449,183.4a.367.367,0,0,0,.56-.312v-5.908a1.173,1.173,0,0,0-.56-1l-29.238-17.975A.428.428,0,0,0,165.559,158.571Z" transform="translate(-109.275 -16.602)" fill="#0fb1b5"/><path d="M131.636,132.979v6a.8.8,0,0,0,.385.686l29.505,18.14a.367.367,0,0,0,.56-.313v-5.908a1.169,1.169,0,0,0-.558-1l-29.238-17.975A.429.429,0,0,0,131.636,132.979Z" transform="translate(-125.722 -29.009)" fill="#0fb1b5"/><path d="M131.636,144.893v6a.806.806,0,0,0,.385.686l29.505,18.14a.367.367,0,0,0,.56-.313V163.5a1.169,1.169,0,0,0-.558-1l-29.238-17.975A.428.428,0,0,0,131.636,144.893Z" transform="translate(-125.722 -23.233)" fill="#0fb1b5"/><path d="M159.708,163.366v6a.809.809,0,0,0,.383.687l38.195,23.474a.368.368,0,0,0,.56-.313v-5.908a1.175,1.175,0,0,0-.56-1L160.36,163A.428.428,0,0,0,159.708,163.366Z" transform="translate(-112.111 -14.277)" fill="#0fb1b5"/><path d="M177.756,188.926v8.7a1.168,1.168,0,0,0,.557.995l8.1,4.919a.533.533,0,0,0,.812-.453v-8.565a1.7,1.7,0,0,0-.811-1.448L178.7,188.4A.621.621,0,0,0,177.756,188.926Z" transform="translate(-103.361 -1.978)" fill="#0fb1b5"/><path d="M168.732,183.412v8.7a1.172,1.172,0,0,0,.557,1l8.1,4.919a.532.532,0,0,0,.811-.454v-8.563a1.7,1.7,0,0,0-.811-1.449l-7.709-4.682A.621.621,0,0,0,168.732,183.412Z" transform="translate(-107.736 -4.652)" fill="#ffdc79"/><path d="M159.708,177.9v8.7a1.169,1.169,0,0,0,.557,1l8.1,4.919a.532.532,0,0,0,.811-.453V183.5a1.7,1.7,0,0,0-.809-1.449l-7.711-4.68A.621.621,0,0,0,159.708,177.9Z" transform="translate(-112.111 -7.325)" fill="#fe5c99"/><path d="M136.149,73.959v2.284a.806.806,0,0,0,.383.686l25.579,15.73a.367.367,0,0,0,.56-.313V90.159a1.173,1.173,0,0,0-.56-1L136.8,73.594A.428.428,0,0,0,136.149,73.959Z" transform="translate(-123.534 -57.625)" fill="#0fb1b5"/><path d="M142.474,82.307v2.284a.807.807,0,0,0,.385.687l16.186,10.009a.367.367,0,0,0,.56-.313V92.787a1.171,1.171,0,0,0-.56-1l-15.917-9.846A.429.429,0,0,0,142.474,82.307Z" transform="translate(-120.467 -53.578)" fill="#0fb1b5"/><path d="M127.653,77.735v2.284a.809.809,0,0,0,.383.687l38.195,23.474a.368.368,0,0,0,.56-.313v-2.189a1.17,1.17,0,0,0-.56-1L128.3,77.37A.428.428,0,0,0,127.653,77.735Z" transform="translate(-127.653 -55.794)" fill="#0fb1b5"/><path d="M129.945,83.6v2.284a.8.8,0,0,0,.385.686l34.79,21.444a.368.368,0,0,0,.56-.313v-2.189a1.175,1.175,0,0,0-.56-1L130.6,83.234A.429.429,0,0,0,129.945,83.6Z" transform="translate(-126.542 -52.951)" fill="#0fb1b5"/><path d="M140.167,94.406V96.69a.807.807,0,0,0,.385.687l19.612,12.07a.367.367,0,0,0,.56-.312v-2.189a1.175,1.175,0,0,0-.56-1L140.82,94.041A.429.429,0,0,0,140.167,94.406Z" transform="translate(-121.586 -47.712)" fill="#0fb1b5"/><path d="M127.653,91.223v2.284a.808.808,0,0,0,.383.686l38.195,23.474a.367.367,0,0,0,.56-.313v-2.187a1.173,1.173,0,0,0-.56-1L128.3,90.858A.428.428,0,0,0,127.653,91.223Z" transform="translate(-127.653 -49.255)" fill="#0fb1b5"/><path d="M127.653,95.718V98a.809.809,0,0,0,.383.687l38.195,23.474a.367.367,0,0,0,.56-.313v-2.187a1.171,1.171,0,0,0-.56-1L128.3,95.354A.427.427,0,0,0,127.653,95.718Z" transform="translate(-127.653 -47.075)" fill="#0fb1b5"/><path d="M133.824,104.031v2.285a.806.806,0,0,0,.385.686l29.03,17.806a.368.368,0,0,0,.56-.313v-2.189a1.17,1.17,0,0,0-.56-1l-28.761-17.641A.429.429,0,0,0,133.824,104.031Z" transform="translate(-124.661 -43.045)" fill="#0fb1b5"/><path d="M127.653,104.71v2.284a.809.809,0,0,0,.383.687l38.195,23.474a.368.368,0,0,0,.56-.313v-2.189a1.175,1.175,0,0,0-.56-1L128.3,104.345A.428.428,0,0,0,127.653,104.71Z" transform="translate(-127.653 -42.716)" fill="#0fb1b5"/><path d="M127.653,109.206v2.284a.806.806,0,0,0,.383.686l38.195,23.474a.367.367,0,0,0,.56-.312v-2.189a1.175,1.175,0,0,0-.56-1L128.3,108.841A.428.428,0,0,0,127.653,109.206Z" transform="translate(-127.653 -40.536)" fill="#0fb1b5"/><g transform="translate(51.597 61.226)"><path d="M168.555,107.618c0,3.552,2.879,10.817,6.432,13.037s6.431-1.448,6.431-5-2.879-8.23-6.431-10.45S168.555,104.067,168.555,107.618Z" transform="translate(-159.419 -104.053)" fill="#fff"/><path d="M162.4,122.678v1.045l31.136,19.456v-1.045c0-8.6-6.97-19.924-15.567-25.3-4.3-2.689-8.193-3.377-11.01-2.321S162.4,118.381,162.4,122.678Z" transform="translate(-162.402 -99.208)" fill="#fff"/></g><g transform="translate(15.692)"><path d="M138.221,67.684l46.891,28.175v-1.2c0-3.574-2.9-8.211-6.471-10.358L144.69,63.9c-3.573-2.149-6.469-.992-6.469,2.582Z" transform="translate(-138.221 -62.819)" fill="#fff"/><path d="M147.519,68.43v.5L166.8,80.51v-.5a5.683,5.683,0,0,0-2.661-4.259l-1.286-.772c-1.908-1.146-3.286-3.8-2.762-5.322h0l-.007,0a2.548,2.548,0,0,0,.088-.649,6.433,6.433,0,0,0-2.916-4.769,2.351,2.351,0,0,0-1.615-.414c-1.513.269-1.642,1.244-1.4,2.321l-.007,0v.006c.521,2.146-.857,3.14-2.763,1.994l-1.286-.772C148.711,66.486,147.519,66.961,147.519,68.43Zm8.069-2.183c0-.869.7-1.149,1.571-.627a3.347,3.347,0,0,1,1.571,2.515c0,.863-.7,1.142-1.571.619A3.347,3.347,0,0,1,155.588,66.247Z" transform="translate(-133.713 -62.343)" fill="#eaeaea"/></g><path d="M127.653,86.666V88.95a.809.809,0,0,0,.383.687l15.686,9.742a.368.368,0,0,0,.56-.313V96.877a1.172,1.172,0,0,0-.558-1L128.3,86.3A.428.428,0,0,0,127.653,86.666Z" transform="translate(-127.653 -51.464)" fill="#0fb1b5"/></g></g><g transform="translate(322.037 197.226)" opacity="0.25"><g transform="translate(33.281 13.497)"><path d="M366.563,200.219v.5L385.841,212.3v-.5a5.68,5.68,0,0,0-2.659-4.259l-1.286-.774c-1.91-1.146-3.287-3.8-2.763-5.32h0l-.007,0a2.492,2.492,0,0,0,.088-.649,6.426,6.426,0,0,0-2.916-4.769,2.347,2.347,0,0,0-1.616-.414c-1.512.269-1.642,1.244-1.4,2.319l-.007,0,0,.006c.52,2.147-.858,3.14-2.763,2l-1.286-.772C367.754,198.274,366.563,198.749,366.563,200.219Zm8.067-2.183c0-.87.7-1.149,1.572-.627a3.349,3.349,0,0,1,1.571,2.515c0,.861-.7,1.142-1.571.619A3.349,3.349,0,0,1,374.63,198.036Z" transform="translate(-352.755 -194.131)" fill="#bcbcbc"/><path d="M357.264,199.473l46.891,28.175v-1.2c0-3.574-2.9-8.211-6.469-10.358l-33.951-20.4c-3.574-2.147-6.471-.99-6.471,2.584Z" transform="translate(-357.264 -194.607)" fill="#d3d3d3"/></g><path d="M335.825,186.867l2.891-1.182.009.018a2.472,2.472,0,0,1,2.238.181l105.416,64.788a7.048,7.048,0,0,1,3.359,6.006v171.8a2.905,2.905,0,0,1-1.5,2.561h0a3,3,0,0,1-.647.266l-2.205.9-.878-1.7L339.865,366.2a5.773,5.773,0,0,1-2.75-4.919V188.035a2.48,2.48,0,0,1,.172-.875l-1.109.316Z" transform="translate(-334.377 -185.517)" fill="#0b4656"/><path d="M334.85,188.788V362.032a5.771,5.771,0,0,0,2.75,4.918L443,431.729a2.936,2.936,0,0,0,4.472-2.5v-171.8a7.052,7.052,0,0,0-3.36-6.008L338.7,186.636A2.525,2.525,0,0,0,334.85,188.788Z" transform="translate(-334.85 -185.158)" fill="#063444"/><path d="M337.441,191.275V359.192a2.158,2.158,0,0,0,1.03,1.841l102.4,62.932a.984.984,0,0,0,1.5-.839V255.468a3.145,3.145,0,0,0-1.5-2.679L339.19,190.3A1.148,1.148,0,0,0,337.441,191.275Z" transform="translate(-333.594 -183.283)" fill="#0082a0"/><g transform="translate(14.381 15.038)"><path d="M376.59,220.89v62.632a.807.807,0,0,0,.385.688l38.193,23.474a.367.367,0,0,0,.56-.313V244.834a1.175,1.175,0,0,0-.558-1l-37.927-23.309A.428.428,0,0,0,376.59,220.89Z" transform="translate(-328.993 -183.613)" fill="#0fb1b5"/><path d="M376.59,271.031v6a.807.807,0,0,0,.385.688l38.193,23.472a.367.367,0,0,0,.56-.312v-5.908a1.175,1.175,0,0,0-.558-1l-37.927-23.309A.428.428,0,0,0,376.59,271.031Z" transform="translate(-328.993 -159.303)" fill="#0fb1b5"/><path d="M379.284,257.695v4.775a.64.64,0,0,0,.306.546l30.386,18.675a.291.291,0,0,0,.444-.249v-4.7a.932.932,0,0,0-.444-.794L379.8,257.4A.341.341,0,0,0,379.284,257.695Z" transform="translate(-327.687 -165.727)" fill="#1cc6c6"/><path d="M376.59,279.418v6a.807.807,0,0,0,.385.687l38.193,23.472a.367.367,0,0,0,.56-.312v-5.908a1.177,1.177,0,0,0-.558-1l-37.927-23.309A.428.428,0,0,0,376.59,279.418Z" transform="translate(-328.993 -155.236)" fill="#0fb1b5"/><path d="M382.441,291.4v6a.809.809,0,0,0,.383.688l29.507,18.14a.368.368,0,0,0,.56-.313v-5.908a1.177,1.177,0,0,0-.558-1l-29.24-17.976A.428.428,0,0,0,382.441,291.4Z" transform="translate(-326.157 -149.429)" fill="#0fb1b5"/><path d="M348.518,265.806v6a.806.806,0,0,0,.385.687l29.505,18.139a.367.367,0,0,0,.56-.313v-5.907a1.17,1.17,0,0,0-.558-1l-29.238-17.975A.429.429,0,0,0,348.518,265.806Z" transform="translate(-342.604 -161.836)" fill="#0fb1b5"/><path d="M348.518,277.72v6a.808.808,0,0,0,.385.688l29.505,18.139a.367.367,0,0,0,.56-.313V296.33a1.17,1.17,0,0,0-.558-1l-29.238-17.975A.429.429,0,0,0,348.518,277.72Z" transform="translate(-342.604 -156.06)" fill="#0fb1b5"/><path d="M376.59,296.192v6a.807.807,0,0,0,.385.688l38.193,23.474a.368.368,0,0,0,.56-.313v-5.908a1.177,1.177,0,0,0-.558-1l-37.927-23.309A.428.428,0,0,0,376.59,296.192Z" transform="translate(-328.993 -147.104)" fill="#0fb1b5"/><path d="M394.638,321.752v8.7a1.172,1.172,0,0,0,.557,1l8.1,4.919a.532.532,0,0,0,.811-.454v-8.565a1.7,1.7,0,0,0-.809-1.448l-7.711-4.682A.621.621,0,0,0,394.638,321.752Z" transform="translate(-320.243 -134.804)" fill="#0fb1b5"/><path d="M385.614,316.238v8.7a1.168,1.168,0,0,0,.557,1l8.1,4.919a.532.532,0,0,0,.811-.454v-8.563a1.7,1.7,0,0,0-.809-1.449l-7.711-4.68A.62.62,0,0,0,385.614,316.238Z" transform="translate(-324.618 -137.478)" fill="#ffdc79"/><path d="M376.59,310.723v8.7a1.169,1.169,0,0,0,.557,1l8.1,4.919a.532.532,0,0,0,.811-.453v-8.565a1.7,1.7,0,0,0-.809-1.448l-7.711-4.682A.621.621,0,0,0,376.59,310.723Z" transform="translate(-328.993 -140.152)" fill="#fe5c99"/><path d="M353.031,206.785v2.284a.809.809,0,0,0,.383.687l25.579,15.729a.367.367,0,0,0,.56-.312v-2.189a1.177,1.177,0,0,0-.558-1L353.683,206.42A.428.428,0,0,0,353.031,206.785Z" transform="translate(-340.416 -190.452)" fill="#0fb1b5"/><path d="M359.357,215.133v2.284a.808.808,0,0,0,.383.687l16.186,10.009a.367.367,0,0,0,.56-.313v-2.187a1.175,1.175,0,0,0-.558-1l-15.919-9.844A.427.427,0,0,0,359.357,215.133Z" transform="translate(-337.349 -186.404)" fill="#0fb1b5"/><path d="M344.535,210.561v2.284a.807.807,0,0,0,.385.687l38.193,23.474a.367.367,0,0,0,.56-.313v-2.187a1.173,1.173,0,0,0-.558-1L345.187,210.2A.427.427,0,0,0,344.535,210.561Z" transform="translate(-344.535 -188.621)" fill="#0fb1b5"/><path d="M346.827,216.425v2.284a.807.807,0,0,0,.385.688L382,240.839a.368.368,0,0,0,.56-.313v-2.189a1.172,1.172,0,0,0-.558-1L347.48,216.06A.429.429,0,0,0,346.827,216.425Z" transform="translate(-343.424 -185.778)" fill="#0fb1b5"/><path d="M357.049,227.232v2.284a.807.807,0,0,0,.385.688l19.612,12.072a.368.368,0,0,0,.56-.313v-2.189a1.177,1.177,0,0,0-.558-1L357.7,226.867A.429.429,0,0,0,357.049,227.232Z" transform="translate(-338.468 -180.538)" fill="#0fb1b5"/><path d="M344.535,224.049v2.284a.808.808,0,0,0,.385.687l38.193,23.472a.367.367,0,0,0,.56-.312v-2.189a1.177,1.177,0,0,0-.558-1l-37.927-23.309A.428.428,0,0,0,344.535,224.049Z" transform="translate(-344.535 -182.082)" fill="#0fb1b5"/><path d="M344.535,228.545v2.284a.806.806,0,0,0,.385.686l38.193,23.474a.367.367,0,0,0,.56-.313v-2.187a1.175,1.175,0,0,0-.558-1L345.187,228.18A.428.428,0,0,0,344.535,228.545Z" transform="translate(-344.535 -179.902)" fill="#0fb1b5"/><path d="M350.707,236.858v2.284a.806.806,0,0,0,.383.686l29.03,17.806a.367.367,0,0,0,.56-.313v-2.187a1.173,1.173,0,0,0-.558-1l-28.763-17.641A.428.428,0,0,0,350.707,236.858Z" transform="translate(-341.543 -175.871)" fill="#0fb1b5"/><path d="M344.535,237.536v2.284a.807.807,0,0,0,.385.688l38.193,23.474a.368.368,0,0,0,.56-.313v-2.189a1.172,1.172,0,0,0-.558-1l-37.927-23.311A.428.428,0,0,0,344.535,237.536Z" transform="translate(-344.535 -175.542)" fill="#0fb1b5"/><path d="M344.535,242.032v2.284a.807.807,0,0,0,.385.688l38.193,23.474a.368.368,0,0,0,.56-.313v-2.189a1.177,1.177,0,0,0-.558-1l-37.927-23.309A.428.428,0,0,0,344.535,242.032Z" transform="translate(-344.535 -173.363)" fill="#0fb1b5"/><g transform="translate(51.597 61.226)"><path d="M385.437,240.444c0,3.552,2.881,10.817,6.432,13.037s6.431-1.448,6.431-5-2.879-8.23-6.431-10.449S385.437,236.892,385.437,240.444Z" transform="translate(-376.301 -236.879)" fill="#fff"/><path d="M379.284,255.5v1.045l31.136,19.456V274.96c0-8.6-6.97-19.924-15.567-25.3-4.3-2.688-8.193-3.377-11.009-2.321S379.284,251.208,379.284,255.5Z" transform="translate(-379.284 -232.034)" fill="#fff"/></g><g transform="translate(15.692)"><path d="M355.1,200.509l46.891,28.175v-1.2c0-3.573-2.9-8.211-6.471-10.358l-33.951-20.4c-3.573-2.147-6.469-.992-6.469,2.582Z" transform="translate(-355.103 -195.645)" fill="#fff"/><path d="M364.4,201.256v.5l19.278,11.583v-.5a5.683,5.683,0,0,0-2.661-4.259l-1.286-.772c-1.908-1.146-3.286-3.8-2.762-5.322h0l-.007,0a2.54,2.54,0,0,0,.088-.649,6.43,6.43,0,0,0-2.916-4.768,2.343,2.343,0,0,0-1.616-.416c-1.513.269-1.642,1.246-1.4,2.321l-.007,0v.006c.52,2.146-.858,3.14-2.765,2l-1.286-.774C365.593,199.312,364.4,199.787,364.4,201.256Zm8.067-2.183c0-.869.7-1.149,1.571-.627a3.347,3.347,0,0,1,1.571,2.515c0,.863-.7,1.142-1.571.619A3.349,3.349,0,0,1,372.469,199.073Z" transform="translate(-350.594 -195.169)" fill="#eaeaea"/></g><path d="M344.535,219.492v2.284a.807.807,0,0,0,.385.687l15.684,9.742a.367.367,0,0,0,.56-.313V229.7a1.17,1.17,0,0,0-.558-1l-15.419-9.579A.428.428,0,0,0,344.535,219.492Z" transform="translate(-344.535 -184.291)" fill="#0fb1b5"/></g></g></g><g transform="translate(259.874 420.311)"><path d="M191.274,350.17l62.34,37.584a7.175,7.175,0,0,0,7.445-.021l62.642-38.27a2.4,2.4,0,0,0-.012-4.1L260.051,307a6.184,6.184,0,0,0-6.418.019l-62.374,38.1A2.952,2.952,0,0,0,191.274,350.17Z" transform="translate(-189.846 -289.411)" fill="#c1c1c1" opacity="0.5"/><path d="M189.87,336.2a2.906,2.906,0,0,1,1.39-2.33l62.374-38.1a6.184,6.184,0,0,1,6.418-.019L323.69,334.12a2.372,2.372,0,0,1,1.155,2.082h0v10.422l-.053.009a2.345,2.345,0,0,1-1.094,1.607l-62.642,38.27a7.175,7.175,0,0,1-7.445.021l-62.34-37.584a2.914,2.914,0,0,1-1.4-2.725l-.024,0V336.2Z" transform="translate(-189.846 -294.864)" fill="#ededed"/><path d="M191.274,338.924l62.34,37.584a7.175,7.175,0,0,0,7.445-.021l62.642-38.27a2.4,2.4,0,0,0-.012-4.1l-63.639-38.368a6.184,6.184,0,0,0-6.418.019l-62.374,38.1A2.953,2.953,0,0,0,191.274,338.924Z" transform="translate(-189.846 -294.864)" fill="#999" opacity="0.34"/></g><g transform="translate(120.31 281.15)"><path d="M107.878,400.735v.125a.657.657,0,0,0,.021.144.5.5,0,0,1,.042.187c.229.808,1.16,2.9,4.7,3.521a6.425,6.425,0,0,0,.662.083,1.215,1.215,0,0,0,.27.042,21.8,21.8,0,0,0,2.65.042c.29-.021.581-.042.87-.083,3.853-.787,7.436-3.749,8.369-4.557.165-.146.248-.227.248-.227v-.726s2.548-1.7,3.48-2.257c2.838-1.678,6.918-3.108,10.813-5.034a11.506,11.506,0,0,0,2.734-1.844c.125-.123.248-.269.373-.373a2.185,2.185,0,0,0,.229-.227c.082-.1.144-.229.227-.331.166-.229.31-.435.435-.622.062-.123.125-.227.166-.31.061-.125.1-.206.144-.29a1.825,1.825,0,0,0,.1-.312v-.021a5.037,5.037,0,0,0,.227-1.47v-2.548l-23.716,9.715-12.967,4.846Z" transform="translate(-90.023 -112.657)" fill="#190b05"/><path d="M122.194,383.944a93.863,93.863,0,0,0,10.446-1.287c6.472-1.109,10.939-1.425,11.776.592.811,1.958,1,4.057-4.786,8.014s-10.257,4.368-14.887,8.1a16.2,16.2,0,0,1-9.972,3.656c-3.452.238-5.782-1.085-6.535-2.493-1.748-3.267.062-9.457.062-9.457" transform="translate(-90.218 -113.563)" fill="#231f20"/><path d="M123.6,399.416l-.021,3.213a3.012,3.012,0,0,0,1.632,2.778,4.5,4.5,0,0,0,1.4.393,49.11,49.11,0,0,0,10.192-.5v-1.186s2.2-.245,8.679-1.05a38.7,38.7,0,0,0,13.419-4,2.908,2.908,0,0,0,1.549-2.578l-.012-2.353-25.478,4.495Z" transform="translate(-82.411 -107.57)" fill="#190b05"/><path d="M141.633,390.092s2.836,2.67,6.171,2.67,9.842-.085,11.51,1.084a2.737,2.737,0,0,1,1.3,2.085,4.219,4.219,0,0,1-.885,2.585c-1.252,1.835-9.675,4.588-16.014,5.089s-6.673.417-9.675.918-6.125.737-8.017-.2c-3.268-1.617-3.492-6.556-1.491-9.809S141.633,390.092,141.633,390.092Z" transform="translate(-82.57 -109.532)" fill="#231f20"/><path d="M125.725,256.234l44.5,26.784,15.493-37.626a3.1,3.1,0,0,0-1.268-3.84L144.637,217.59a2.412,2.412,0,0,0-3.473,1.149Z" transform="translate(-81.37 -193.336)" fill="#063444"/><path d="M127.085,254.937l41.372,24.987,14.3-34.736c.646-1.722.625-2.5-1.172-3.544l-38.2-23.073a1.068,1.068,0,0,0-1.541.508Z" transform="translate(-80.711 -192.768)" fill="#0082a0"/><path d="M153.6,240.92l8.674,5.221a.443.443,0,0,0,.638-.211l3.163-7.678a.444.444,0,0,0-.183-.549l-8.674-5.221a.444.444,0,0,0-.638.211l-3.161,7.678A.445.445,0,0,0,153.6,240.92Z" transform="translate(-67.957 -185.979)" fill="#defffe" opacity="0.5"/><path d="M145.035,235.764l8.674,5.221a.443.443,0,0,0,.638-.211l3.163-7.68a.443.443,0,0,0-.181-.548l-8.674-5.221a.442.442,0,0,0-.638.211l-3.163,7.678A.445.445,0,0,0,145.035,235.764Z" transform="translate(-72.112 -188.479)" fill="#defffe" opacity="0.75"/><path d="M141.2,250.03l14.079,8.474a.718.718,0,0,0,1.035-.343l5.132-12.462a.717.717,0,0,0-.294-.889l-14.078-8.475a.72.72,0,0,0-1.036.343l-5.132,12.462A.72.72,0,0,0,141.2,250.03Z" transform="translate(-74.035 -184.13)" fill="#defffe"/><path d="M139.368,236.059l4.7,2.826a.238.238,0,0,0,.344-.114l.1-.293a.238.238,0,0,0-.1-.3l-4.7-2.827a.241.241,0,0,0-.346.114l-.1.294A.241.241,0,0,0,139.368,236.059Z" transform="translate(-74.812 -184.572)" fill="#defffe"/><path d="M144.616,240.776a.424.424,0,0,0,.612-.2l.18-.52a.426.426,0,0,0-.174-.527l-8.318-5.007a.426.426,0,0,0-.613.2l-.178.52a.423.423,0,0,0,.174.526" transform="translate(-76.344 -184.989)" fill="#defffe"/><path d="M135.879,236.782l8.32,5.007a.425.425,0,0,0,.612-.2l.18-.521a.427.427,0,0,0-.174-.526l-8.32-5.007a.425.425,0,0,0-.612.2l-.18.521A.427.427,0,0,0,135.879,236.782Z" transform="translate(-76.547 -184.498)" fill="#defffe"/><path d="M135.461,237.794l8.318,5.007a.426.426,0,0,0,.613-.2l.178-.52a.425.425,0,0,0-.174-.526l-8.318-5.007a.425.425,0,0,0-.612.2l-.18.52A.426.426,0,0,0,135.461,237.794Z" transform="translate(-76.75 -184.007)" fill="#defffe"/><path d="M135.043,238.8l8.318,5.008a.425.425,0,0,0,.612-.2l.18-.52a.425.425,0,0,0-.174-.526l-8.318-5.007a.424.424,0,0,0-.612.2l-.18.52A.424.424,0,0,0,135.043,238.8Z" transform="translate(-76.952 -183.517)" fill="#defffe" opacity="0.75"/><path d="M134.625,239.816l8.318,5.007a.424.424,0,0,0,.612-.2l.18-.52a.424.424,0,0,0-.174-.526l-8.318-5.007a.426.426,0,0,0-.613.2l-.178.52A.425.425,0,0,0,134.625,239.816Z" transform="translate(-77.155 -183.026)" fill="#defffe" opacity="0.5"/><path d="M136.466,230.607l8.676,5.222a.444.444,0,0,0,.638-.211l3.161-7.68a.443.443,0,0,0-.181-.548l-8.674-5.222a.443.443,0,0,0-.638.211l-3.163,7.68A.443.443,0,0,0,136.466,230.607Z" transform="translate(-76.267 -190.979)" fill="#defffe"/><path d="M126.144,238.486a14.074,14.074,0,0,0,3.237,2.405l.564-.726a2.169,2.169,0,0,1,1.43-.824,6.781,6.781,0,0,0,3.96-1.642,20.832,20.832,0,0,0,2.287-3.668.162.162,0,0,0,.03-.059,1.152,1.152,0,0,1,.119-.238c.223-.52.683-1.574.713-1.722a.364.364,0,0,0-.134-.312.184.184,0,0,1-.045-.03c-.386-.208-.965-.445-1.307-.238a10.489,10.489,0,0,0-1.693,1.915,4.955,4.955,0,0,1-2.064,1.5c-.089.045-.178.074-.252.119,0,0-.5-.282-.119-1.218l2.821-6.89c-2.866.1-5.286,3.757-6.474,6.786A29.89,29.89,0,0,0,126.144,238.486Z" transform="translate(-81.167 -188.674)" fill="#a97c50"/><path d="M153.054,263.506l4.336,3.608.817.683s.995-4.158,2.747-5.731a11.277,11.277,0,0,1,3.356-1.515,2.688,2.688,0,0,0,1.44-.965c.846-1.158,2.094-3.7,1.44-8.107a4.9,4.9,0,0,0-.564-1.826.046.046,0,0,1-.015-.03c-.535-.921-1.2-.891-1.2-.891s-2.925,2.079-3.771,2.7c-.7.52-1.589,1.529-2.272.772-.371-.386,1.767-3.088,2.361-4.321s-.549-2.569-1.054-2.094a29.851,29.851,0,0,0-4.707,7.454C154.747,256.424,153.054,263.506,153.054,263.506Z" transform="translate(-68.12 -179.542)" fill="#a97c50"/><path d="M155.3,262.743l.995,3.088.817.683s.995-4.158,2.747-5.731a11.276,11.276,0,0,1,3.356-1.515,2.688,2.688,0,0,0,1.44-.965c.846-1.158,2.094-3.7,1.44-8.107a4.9,4.9,0,0,0-.564-1.826.046.046,0,0,1-.015-.03s-.03.757-1.232,1.826a30.155,30.155,0,0,1-3.816,2.569,11.528,11.528,0,0,0-2.94,4.425C156.715,259.12,155.3,262.743,155.3,262.743Z" transform="translate(-67.029 -178.259)" fill="#b28256"/><path d="M114.567,242.412l-.517,1.2.787,3.976,12.676,6.38.745-.1,2.03-.248,3.191-.414v-4.392a5.761,5.761,0,0,1,3.293-5.344,1.012,1.012,0,0,1,.144-.061,6.175,6.175,0,0,0,2.154-1.451l.187-.187c2.444-2.588,4.618-8.409,4-21.147-.125-2.217-.622-6.07-1.636-8.037-1.844-3.541-5.758-5.883-13.837-3.666-13.463,3.728-19.346,9.839-20.029,15.12C107.07,229.3,114.567,242.412,114.567,242.412Z" transform="translate(-90.105 -197.792)" fill="#a97c50"/><path d="M129.681,238.424l.64-1.552a22.69,22.69,0,0,1-3.666-2.713,12.494,12.494,0,0,0-.93,1.353S126.629,237.148,129.681,238.424Z" transform="translate(-81.37 -185.134)" fill="#fff"/><path d="M130.7,237.969a30.084,30.084,0,0,1-4.169-3.252s-1.1,1.8-2.009,3.406-.734,5-.734,5l4.2,1.428Z" transform="translate(-82.315 -184.864)" fill="#004a56"/><path d="M126.107,241.64v-4.392A5.761,5.761,0,0,1,129.4,231.9c-.664.291-2.707,1.271-5.427,2.728-1.09.584-1.057,4.088-1.057,7.423Z" transform="translate(-82.732 -186.228)" fill="#b28256"/><path d="M159.064,263.077l.757-2.419a1.908,1.908,0,0,0-.1-1.4,11.393,11.393,0,0,0-1.982-3.063,2.992,2.992,0,0,0-3.627-.587,5.284,5.284,0,0,0-.941,1.828,6.114,6.114,0,0,0-.187,2.16c.065.163,1.608,2.371,1.786,2.567A41.852,41.852,0,0,0,159.064,263.077Z" transform="translate(-68.167 -174.92)" fill="#efefef"/><path d="M104.444,317.972c3,16.406,5.157,36.747,5.157,36.747s-5.013,40.743.622,76.224c.248,1.678.829,5.221,2.983,6.608a8.072,8.072,0,0,0,6.959-.042c.1-.062.206-.1.31-.165,8.41-4.6,7.519-10.565,8.741-14.479-.021-15.784-1.678-54.621,1.678-63.156l3-34.425-1.1-24.608H102.683v.083l-.146-.083S99.97,307.285,104.444,317.972Z" transform="translate(-92.968 -152.884)" fill="#3a3a3a"/><path d="M110.378,318.636c2.838,9.32,6.483,33.658,7.249,39.6,0,0-2.8,46.875-.414,79.1,8.41-4.6,7.519-10.565,8.741-14.479-.021-15.784-1.678-54.621,1.678-63.156l3-34.425-1.1-24.608H108.824A45.608,45.608,0,0,0,110.378,318.636Z" transform="translate(-89.705 -152.884)" fill="#2d2d2d"/><path d="M111.073,306.315a48.326,48.326,0,0,0,6.5,15.742c.581.869,1.1,1.76,1.595,2.65.1.414,1.574,5.925,3.4,13.319,1.844,7.395,4.039,16.675,5.613,24.567-.869,9.9-3.313,44.575,1.347,74.609a5.5,5.5,0,0,0,3.957,4.474,9.85,9.85,0,0,0,3.314.352,8.328,8.328,0,0,0,2.775-.662c4.93-2.071,8.492-9.963,8.492-9.963s.125-49.877,2.714-62.969a58.406,58.406,0,0,0,.912-7.559c.475-8.017,1.345-22.641,1.615-28.751.517-11.889.6-21.873.186-26.326l-24.669.31Z" transform="translate(-88.474 -150.402)" fill="#3a3a3a"/><path d="M123.028,306.107c.125,1.471.206,2.444.206,2.444a61.971,61.971,0,0,0,3.377,15.536c3.149,9.32,6.269,31.422,6.6,39.708.331,7.622-3.723,43.953-2.209,78.233a8.328,8.328,0,0,0,2.775-.662c4.93-2.071,8.492-9.963,8.492-9.963s.125-49.877,2.714-62.969a58.406,58.406,0,0,0,.912-7.559c.475-8.017,1.345-22.641,1.615-28.751.517-11.889.6-21.873.186-26.326Z" transform="translate(-82.678 -150.402)" fill="#2d2d2d"/><path d="M102.5,272.879c3.978,12.076,6.214,31.92,3.812,40.205a150.169,150.169,0,0,0-3.812,20.029c2.258,6.214,23.3,19.679,35.048,20.714a17.677,17.677,0,0,0,4.308-.165c10.336-1.534,20.031-10.71,20.031-10.71s-2.238-34.01-3.625-55.76c-.932-14.458-3.066-23.468-4.413-27.879a33.173,33.173,0,0,0-1.118-3.273c-1.243-1.636-4.95-4.413-9.674-7.519a.346.346,0,0,1-.1-.042c-3.17-2.113-6.774-4.349-10.4-6.483h-.021c-4.826-2.858-9.695-5.531-13.588-7.478q-.684-.343-1.305-.622a31.022,31.022,0,0,0-5.987-2.444c-5.53-1.035-12.945,1.886-15.182,11.91C94.217,253.367,98.546,260.782,102.5,272.879Z" transform="translate(-95.853 -186.542)" fill="#006380"/><path d="M130.872,304.461c.705,9.28-.7,32.438-1.243,40.723,10.336-1.534,20.031-10.71,20.031-10.71s-2.238-34.01-3.625-55.76c-.932-14.458-3.066-23.468-4.413-27.879-1.118-1.284-1.843-2.092-1.843-2.092H126.151s-7.084,1.449-4.515,17.585C124.244,282.463,130.023,293.069,130.872,304.461Z" transform="translate(-83.625 -178.064)" fill="#004a56"/><path d="M169.633,215.736" transform="translate(-60.082 -194.067)" fill="#ccc"/><path d="M110.764,238.13c2.071,2.838,9.5,6.94,12.918,7.665a30.445,30.445,0,0,0,7.8.331,9.922,9.922,0,0,1,4.682,1.491.346.346,0,0,0,.1.042.064.064,0,0,0,.042.021l-2.03-3.087-2.361-1.512s-3.46-1.264-4.226-1.616a8.665,8.665,0,0,0-1.926-.331h-.021c-2.051-.249-4.992-.456-5.448-.518-.641-.083-5.987-3.749-6.214-3.895-.125-.082-1.18-1.822-1.926-3.065q-.684-.343-1.305-.622A3.954,3.954,0,0,0,110.764,238.13Z" transform="translate(-89.057 -185.68)" fill="#004a56"/><path d="M105.449,227.866c1.161,6.918,7.022,17.793,9.984,18.788a17.332,17.332,0,0,0,4.888.931,4.664,4.664,0,0,0,4.806-3.81,22.2,22.2,0,0,1,2.009-6.256c2.071-3.832,4.784-5.841,6.152-5.117,1.368.7,1.222,3.17,1.222,3.17l.891-.021s.083-.788.206-1.844c.1-1.035.208-2.361.27-3.377a11.74,11.74,0,0,1,2.382-7.166,28.361,28.361,0,0,0,3.314-6.112,11.187,11.187,0,0,0,.829-5.467v-.021c-.56-5.323-2.726-7.5-4.784-9.012-6.7-4.9-20.714,4.205-25.893,8.556a17.83,17.83,0,0,0-5.8,8.244v.021A17.786,17.786,0,0,0,105.449,227.866Z" transform="translate(-91.344 -201.143)" fill="#333"/><path d="M111.437,233.2l1.281-1.192a29.815,29.815,0,0,0,19.419,9.58,16.555,16.555,0,0,1,3.887,6.6l-1.764-1.14a7.856,7.856,0,0,0-3.053-1.189c-.693-.108-2.229-.186-2.229-.186-6.916-.1-13.8-4.925-17.4-7.907A3.032,3.032,0,0,1,111.437,233.2Z" transform="translate(-88.767 -186.178)" fill="#fff"/><path d="M156.8,258.542" transform="translate(-66.303 -173.313)" fill="none" stroke="#381e1e" stroke-miterlimit="10" stroke-width="0.697"/><path d="M165.579,237.455" transform="translate(-62.048 -183.537)" fill="none" stroke="#381e1e" stroke-miterlimit="10" stroke-width="0.697"/><path d="M132.35,387.418a3.41,3.41,0,0,1-.437.627C132.085,387.818,132.232,387.605,132.35,387.418Z" transform="translate(-78.37 -110.828)" fill="#474747"/><path d="M131.836,388.165c.092-.1.144-.22.226-.325-.132.175-.275.355-.454.554A2.376,2.376,0,0,0,131.836,388.165Z" transform="translate(-78.519 -110.624)" fill="#474747"/><path d="M123.642,261.213c1.305,7.622,15.846,29.805,16.448,30.7a106.864,106.864,0,0,0,7.27,10.378h.021c1.926,2.4,3.521,3.957,4.515,4.247a4.666,4.666,0,0,0,.581.145,7.819,7.819,0,0,0,9.175-5.117c1.18-2.59,4.7-8.7,7.582-16.571,1.926-5.24,3.087-11.641,4.33-16.86a5.1,5.1,0,0,0-.518-3.728c-.062-.083-.1-.187-.166-.27-.808-1.345-1.926-2.858-2.921-3.023-1.822-.27-2.174.206-2.174.206s-3.335,5.365-5.987,9.507a78.412,78.412,0,0,0-5.282,11.185c-.249.705-.414,1.12-.414,1.12-4.806-11.165-11.081-24.877-13.629-30.614a10.357,10.357,0,0,0-17.337-2.59,2.191,2.191,0,0,1-.208.248,4.129,4.129,0,0,0-.683,1.388l-.021-.021-.042.042C123.933,251.891,122.42,254.087,123.642,261.213Z" transform="translate(-82.609 -179.246)" fill="#005f75"/><path d="M105.449,224.456c1.161,6.918,7.022,17.793,9.984,18.788a17.332,17.332,0,0,0,4.888.931,4.664,4.664,0,0,0,4.806-3.81,22.2,22.2,0,0,1,2.009-6.256c2.071-3.832,4.784-5.841,6.152-5.117,1.368.7,1.222,3.17,1.222,3.17l.891-.021s.083-.788.206-1.844c.1-1.035.208-2.361.27-3.377a11.74,11.74,0,0,1,2.382-7.166,28.361,28.361,0,0,0,3.314-6.112,11.187,11.187,0,0,0,.829-5.467,30.6,30.6,0,0,1-21.832,17.958c-16.281,3.418-14.747-9.507-14.645-10.17A17.786,17.786,0,0,0,105.449,224.456Z" transform="translate(-91.344 -197.732)" fill="#231f20"/><path d="M146.653,278.2s.889-5.654-.891-7.85c-.249.705-.414,1.12-.414,1.12A15.083,15.083,0,0,1,146.653,278.2Z" transform="translate(-71.856 -167.588)" fill="#141414"/><path d="M124.181,249.865l.062-.021s-.5,6.358,5.53,16.964c6.045,10.62,18.871,36,25.208,35.295,3.341-.368,4.529-5.675,5.862-6.627,2.891-2.065,4.848-9.426,7.6-16.758a122.258,122.258,0,0,0,4.432-16.3c.062.083.1.187.166.27a5.1,5.1,0,0,1,.518,3.728c-1.243,5.219-2.4,11.62-4.33,16.86-2.879,7.871-6.4,13.981-7.582,16.571a7.822,7.822,0,0,1-9.175,5.087v.03a4.666,4.666,0,0,1-.581-.145c-.995-.29-2.59-1.844-4.515-4.247h-.021a106.867,106.867,0,0,1-7.27-10.378c-.6-.891-15.142-23.074-16.448-30.7C122.42,252.371,123.933,250.175,124.181,249.865Z" transform="translate(-82.609 -177.53)" fill="#004249"/></g><g transform="translate(358.947 455.66)"><path d="M305.9,349.894l-40.753,24.914-8.582-5.182,40.753-24.914Z" transform="translate(-256.569 -306.044)" fill="#c1c1c1" opacity="0.5"/><path d="M256.569,335.449v33.943l8.582,5.167V340.631Z" transform="translate(-256.569 -310.535)" fill="#063444"/><path d="M284.015,318.671v33.943l8.582,5.167V323.853Z" transform="translate(-243.262 -318.671)" fill="#022636"/><path d="M256.569,335.449v33.943l8.582,5.167V340.631Z" transform="translate(-256.569 -310.535)" fill="#063444"/><path d="M305.9,323.853l-40.753,24.914-8.582-5.182,40.753-24.914Z" transform="translate(-256.569 -318.671)" fill="#0b4656"/><path d="M262.344,381,303.1,356.089V322.161l-40.753,24.914Z" transform="translate(-253.769 -316.978)" fill="#022636"/><path d="M303.1,322.161l-20.377,29.421-20.377-4.507Z" transform="translate(-253.767 -316.978)" fill="#063444"/><path d="M267.574,330.491v6.682a1.1,1.1,0,0,0,.728,1.039,1.115,1.115,0,0,0,.386.074,1.1,1.1,0,0,0,1.114-1.114v-6.682a1.839,1.839,0,0,1,.876-1.559l10.2-6.236a.7.7,0,0,1,.742-.015.534.534,0,0,1,.148.1.184.184,0,0,0,.045.03.75.75,0,0,1,.178.5v5.048a1.121,1.121,0,0,0,.7,1.025,1,1,0,0,0,.416.089,1.112,1.112,0,0,0,1.114-1.114v-5.048a2.9,2.9,0,0,0-1.515-2.584,2.312,2.312,0,0,0-.728-.282,2.833,2.833,0,0,0-2.257.342l-10.2,6.236A4.056,4.056,0,0,0,267.574,330.491Z" transform="translate(-251.233 -317.854)" fill="#82441d"/><path d="M274.517,341.167v3.466l.769.463v-3.465Z" transform="translate(-247.867 -307.763)" fill="#f7aa57"/><path d="M279.445,339.92l-4.159,2.541-.769-.464,4.159-2.539Z" transform="translate(-247.867 -308.592)" fill="#f4b77a"/><path d="M275.035,345.774l4.159-2.543v-3.463l-4.159,2.541Z" transform="translate(-247.616 -308.441)" fill="#eca140"/><path d="M267.574,330.491v6.682a1.1,1.1,0,0,0,.728,1.039v-6.7c0-2.435.995-3.341.995-3.341l12.681-7.721a2.833,2.833,0,0,0-2.257.342l-10.2,6.236A4.056,4.056,0,0,0,267.574,330.491Z" transform="translate(-251.233 -317.854)" fill="#9b5934"/><path d="M277.164,322.011a.75.75,0,0,1,.178.5v5.048a1.121,1.121,0,0,0,.7,1.025v-5.138A1.72,1.72,0,0,0,277.164,322.011Z" transform="translate(-246.584 -317.051)" fill="#9b5934"/></g><g transform="translate(290.71 221.738)"><path d="M260.2,324.747s-.646,2.567-1.017,4.732-.489,4.942-.735,7.231a31.049,31.049,0,0,1-3.365,9.117,8.873,8.873,0,0,1-4.793,3.411,15.472,15.472,0,0,1-7.38-.147,3.563,3.563,0,0,1-1.889-1.886" transform="translate(-195.869 -81.802)" fill="#190b05"/><path d="M215.9,321.107c0,1.425,2.123,2.42,4.306,2.6a21.831,21.831,0,0,0,7.066-.987,35.054,35.054,0,0,0,5.481-2.071,7.073,7.073,0,0,1,4.024-.356s0,.238.015.5a18.509,18.509,0,0,0,9.815-1.648c.015,0,.015-.015.03-.015s.045-1.128-.03-2.094c-.045-.832-.193-2.049-.193-2.049L215.9,320.082Z" transform="translate(-208.051 -86.533)" fill="#190b05"/><path d="M240.453,345.221c.03.267.074.535.119.787A3.834,3.834,0,0,0,243.2,349.1c2.866.98,8.167.46,10.78-2.376s4.469-10.141,4.469-14.507a19.44,19.44,0,0,1,2.287-8.4H248.858a2.9,2.9,0,0,0-.282.386c-2.049,2.866-7.38,13.764-7.9,17.284A16.739,16.739,0,0,0,240.453,345.221Z" transform="translate(-196.161 -82.256)" fill="#7f391b"/><path d="M240.453,345.1a.6.6,0,0,0,.119-.3c.52-2.836,3.237-8.3,4.677-11.181s4.128-8.122,4.128-8.122-.356-.624-.8-1.425c-2.049,2.866-7.38,13.764-7.9,17.284A16.739,16.739,0,0,0,240.453,345.1Z" transform="translate(-196.161 -82.13)" fill="#934b32"/><path d="M240.521,346a3.833,3.833,0,0,0,2.628,3.088c2.866.98,8.167.46,10.78-2.376s4.469-10.141,4.469-14.507a19.439,19.439,0,0,1,2.287-8.4h-4.826l-.386,2.509s-.134,10.141-2.539,15.16-6.815,6.058-8.731,5.939-3.133-.386-3.668-1.4A.015.015,0,0,0,240.521,346Z" transform="translate(-196.112 -82.258)" fill="#682c17"/><path d="M215.9,322.15a1.88,1.88,0,0,0,1.069,1.529c1.99.906,6.162.609,8.7,0s7.261-2.851,9.755-3.118,7.35-.7,8.568-1.039a3.452,3.452,0,0,0,2.762-3.371,7.554,7.554,0,0,0-.921-4.291l-1.96.119-11.552.742-.267.015s-4.024,1.44-5.895,2.108-5.821,1.262-8.4,3.668a7.925,7.925,0,0,0-1.039,1.158l-.015.015A3.547,3.547,0,0,0,215.9,322.15Z" transform="translate(-208.059 -88.05)" fill="#7f391b"/><path d="M216.443,319.389c1.886-1.618,5.835-2.821,9.058-3.653,3.252-.846,6.415-1.856,6.415-1.856s.074-.624.134-1.44l-.267.015s-4.024,1.44-5.895,2.108-5.821,1.262-8.4,3.668A7.921,7.921,0,0,0,216.443,319.389Z" transform="translate(-207.786 -87.769)" fill="#934b32"/><path d="M215.891,322.146a1.88,1.88,0,0,0,1.069,1.529c1.99.906,6.162.609,8.7,0s7.261-2.851,9.755-3.118,7.35-.7,8.568-1.039a3.452,3.452,0,0,0,2.762-3.371,7.554,7.554,0,0,0-.921-4.291l-1.96.119.059.624s1.811,2.509.609,4.41-5.7,1.618-8.449,1.945-6.682,2.554-10.483,3.207-8.36,1.2-9.7,0Z" transform="translate(-208.054 -88.052)" fill="#682c17"/><path d="M223.119,285.156c.475,1.93.861,3.816,1.188,5.628a.475.475,0,0,1,.015.1c.312,1.782.564,3.489.8,5.093.015.059.015.1.03.163.03.178.074.46.134.876s.119.817.178,1.2c.5,3.281,1.425,10.052,2.227,19.258a.981.981,0,0,1,.015.208c.327,3.059.609,7.2.846,11.6.059,1.01.119,2.034.163,3.074.282,5.746.5,11.611.638,15.9a3,3,0,0,0,1.589,2.554,5.393,5.393,0,0,0,2.509.668,18.135,18.135,0,0,0,6.177-.817A13.089,13.089,0,0,0,243.1,348.9a3.292,3.292,0,0,0,1.322-2.777c-.1-3.638-.327-13.274.059-22.911.475-12.22,1.425-35.22,1.425-35.22l-4.306-38.561-8-1.782c.416-2.242.861-4.811,1.173-6.622.238-1.4.4-2.346.4-2.346H219.511s-.015.223-.03.653C219.288,243.446,218.471,266.521,223.119,285.156Z" transform="translate(-206.4 -123.531)" fill="#3a3a3a"/><path d="M223.119,284.942c.475,1.93.861,3.816,1.188,5.628-.148-1.322-1.589-14.061-2.242-20.565-.683-6.875.431-28.346.431-28.346s-1.366-1.158-3.014-2.539C219.288,243.233,218.471,266.307,223.119,284.942Z" transform="translate(-206.4 -123.317)" fill="#595959" opacity="0.5"/><path d="M226.477,243.867a240.029,240.029,0,0,0,5.732,45.065c3.252,13.809,3.92,41.338,3.95,60.968a13.09,13.09,0,0,0,3.475-1.767,3.292,3.292,0,0,0,1.322-2.777c-.1-3.638-.327-13.274.059-22.911.475-12.22,1.425-35.22,1.425-35.22l-4.306-38.561-8-1.782c.416-2.242.861-4.811,1.173-6.622Z" transform="translate(-202.921 -122.765)" fill="#2d2d2d"/><path d="M231.319,244.619a175.734,175.734,0,0,0,9.191,58.607v.03c1.96,4.9,3.475,8.865,3.89,10.542.876,3.46,4.841,38.19,5.791,46.579a9.074,9.074,0,0,0,1.322,3.846c1.44,2.3,3.519,4.262,7.276,3.905a17.292,17.292,0,0,0,3.163-.624,23.316,23.316,0,0,0,4.039-1.633,3.04,3.04,0,0,0,1.663-2.806c-.267-8.983-1.44-48.391-2.183-53.306-.831-5.553-4.247-17.67-5.85-39.9a23.959,23.959,0,0,1,.995-9.518,25.479,25.479,0,0,0,.252-15.472s-.995.371-2.331.876c.045-2.108.134-3.059.134-3.059l-.757.015-27.425.579Z" transform="translate(-200.977 -121.587)" fill="#3a3a3a"/><path d="M243.123,261.25c-.817,7.81,8.092,42.511,9.028,51.42s3.831,54.835,3.831,54.835H256a23.317,23.317,0,0,0,4.039-1.633,3.04,3.04,0,0,0,1.663-2.806c-.267-8.983-1.44-48.391-2.183-53.306-.832-5.553-4.247-17.67-5.85-39.9a23.96,23.96,0,0,1,.995-9.518,25.479,25.479,0,0,0,.252-15.472s-.995.371-2.331.876c.045-2.108.134-3.059.134-3.059l-.757.015c-4.974,2.747-9.191,5.375-9.191,5.375A46.314,46.314,0,0,1,243.123,261.25Z" transform="translate(-195.023 -121.587)" fill="#2d2d2d"/><path d="M266.526,246.63a16.858,16.858,0,0,1,.437,2.137,1.049,1.049,0,0,1-.438,1.022,30.108,30.108,0,0,1-5.916,2.814A30.6,30.6,0,0,1,248,253.94c-1.549-.143-16.7-3.486-25.749-9.212a6.785,6.785,0,0,1-3.02-6.851l.009-.053C219.546,236.037,266.526,246.63,266.526,246.63Z" transform="translate(-206.478 -124.044)" fill="#845424"/><path d="M212.346,227.609a16.271,16.271,0,0,0,1.915,1.336c.03,0,.045.015.074.03a1.264,1.264,0,0,1,.208.134,34.477,34.477,0,0,0,11,3.578c.049,1.675.1,3.362.147,5.047a55.6,55.6,0,0,1-.823,11.242c-.555,3.148-1.222,7.007-1.656,9.8-.861,5.538.638,9.562,3.4,11.211V270a.113.113,0,0,1,.059.03c8.879,5.494,19.154,8,24.648,9.043a26.564,26.564,0,0,0,2.658.356,23.015,23.015,0,0,0,5.717-.238,18.475,18.475,0,0,0,2.316-.5l.713-.223a10.009,10.009,0,0,0,2.394-1.1c3.62-2.306,3.9-4.06,4.155-6.112.208-1.782-2.153-10.721-2.539-13.72-.1-.757-.163-1.218-.163-1.218-.03-.223-.059-.46-.089-.683a17.87,17.87,0,0,1-.074-3.044.62.62,0,0,1,.015-.1,8.026,8.026,0,0,1,.341-1.9c.059-.178.119-.356.193-.549a.055.055,0,0,1,.015-.045c.015-.059.045-.134.059-.208,3.608-1.633,6.744-5.9,10.219-13.813,3.371-7.677,2.982-23.783,1.9-30.153a13.766,13.766,0,0,0-.5-2.153c-.609-1.708-2.435-3.727-4.514-5.568v-.015a51.856,51.856,0,0,0-6.088-4.633c-.074-.045-.134-.089-.208-.134a47.293,47.293,0,0,0-4.662-2.7c-1.574-.787-3.578-1.693-6.415-2.806-1.01-.4-2.049-.757-3.1-1.084-1.945-.594-3.935-1.084-5.954-1.5-3.1-.653-6.251-1.158-9.265-1.737q-.78,0-1.559.045a22.1,22.1,0,0,0-18.011,12.339c-2.866,5.7-6.86,14.373-7.706,20.045C210.119,222.8,210.594,225.842,212.346,227.609Z" transform="translate(-210.613 -150.294)" fill="#fff"/><path d="M225.063,231.674c3.148,2.91,9.666,8.4,16.823,11.27a37.826,37.826,0,0,0,15.012,2.732,6.254,6.254,0,0,0,3.059-.267c2.108-.98,5.221-4.449,8.192-13.779,2.46-7.72,1.7-20.642.361-28.763-4.619-7.913-11.745-8.8-11.745-8.8v-.009a14.676,14.676,0,0,1-8.112-.293,9.657,9.657,0,0,0-6.744.227,49.12,49.12,0,0,1-5.249,1.856l-1.975,1.44-1.336,21.129-2.287-5.3,1.752-17.967,6.726-8.6,7.424-.891c1.054.327,2.094.683,3.1,1.084a59.276,59.276,0,0,1,8.863,4.138l.2.116c.242.144.478.288.711.432.269.166.54.337.808.506l.5.316c.074.045.134.089.208.134a51.856,51.856,0,0,1,6.088,4.633v.015c2.079,1.841,3.905,3.861,4.514,5.568.04.11.08.235.119.376a16.269,16.269,0,0,1,.386,1.777l-.007,0c1.087,6.38,1.479,22.47-1.89,30.15-3.475,7.914-6.611,12.18-10.219,13.813,0,0-18.961,2.643-35.933-17.031C224.6,231.689,224.826,231.674,225.063,231.674Z" transform="translate(-203.924 -149.237)" fill="#e2e2e2" opacity="0.39"/><path d="M245.8,178.865v8.349s-8.541,6.164-13.078,5.271c-1.953-.385-2.976-2.882-2.569-6.407l4.128-.835Z" transform="translate(-201.182 -152.531)" fill="#b28256"/><path d="M232.411,189.763l-3.387,4.541s-1.654-5.685,1.593-9.181c3.161-3.4,3.295-.463,3.295-.463S230.919,188.117,232.411,189.763Z" transform="translate(-201.891 -150.293)" fill="#fff"/><path d="M224.834,175.327a48.259,48.259,0,0,0,.748,13.38c1.443,6.391,1.881,7.834,4.459,8.968s4.9,1.258,9.224-1.525a21.782,21.782,0,0,0,6.7-7.319s.616.405,2.163-1.341c2.423-2.731,2.887-4.1,2.887-7.807a25.873,25.873,0,0,0-3.813-13.221c-2.887-4.845-11.751-3.3-15.772-1.237S225.6,171.185,224.834,175.327Z" transform="translate(-203.799 -160.1)" fill="#a97c50"/><path d="M222.731,176.67c4.425,7.825,15.457,2.673,15.457,2.673.817,3.4,3.192,3.712,4.336,4.336s1.381,3.92,1.381,3.92h1.039a23.69,23.69,0,0,1,.564-4.959,2.923,2.923,0,0,1,5.152-.5c1.4,2.168-.208,4.588-1.128,6.385a8.182,8.182,0,0,0,.282,4.039,13.565,13.565,0,0,0,2.806-5.063c1.128-3.4,1.96-10.513,0-18.145a8.251,8.251,0,0,0-.906-2.2c-3.385-5.717-13.037-6.83-16.823-5.538-3.267,1.114-11.359,4.8-12.874,10.023A6.368,6.368,0,0,0,222.731,176.67Z" transform="translate(-205.198 -161.13)" fill="#333"/><path d="M222.2,276.663q.089.624.178,1.2Q222.29,277.153,222.2,276.663Z" transform="translate(-204.995 -105.115)" fill="#3a3a3a"/><path d="M222.091,275.963c.015.059.015.1.03.163C222.106,276.022,222.091,275.963,222.091,275.963Z" transform="translate(-205.048 -105.454)" fill="#3a3a3a"/><path d="M246.552,215s1.708-7.13,1.461-11.833-2.846-.494-3.094,3.341-2.506,12.127-2.506,12.127" transform="translate(-195.195 -141.759)" fill="#efefef" opacity="0.39"/><path d="M244.8,183.915a8.075,8.075,0,0,1,.928,1.728,17.141,17.141,0,0,1,.592,1.939s-4.527,5.311-14.116,8.4l-.065-5.889S240.547,188.959,244.8,183.915Z" transform="translate(-200.178 -150.083)" fill="#fff"/><path d="M236.61,216.572s3.519-.356,10.156,2.48a39.961,39.961,0,0,0,2.6-7.959,1.125,1.125,0,0,0-.134-.267c-1.856-2.97-11.864-1.114-11.864-1.114Z" transform="translate(-198.009 -137.853)" fill="#a97c50"/><path d="M221.2,208.976c1.96.045,4.573.356,6.9.668-.178-.564-.4-7.663-5.732-8.285-.445,2.3-.757,4.38-.95,5.791-.045.327-.074.609-.1.861s-.059.445-.074.609C221.215,208.843,221.2,208.976,221.2,208.976Z" transform="translate(-205.48 -141.625)" fill="#a97c50"/><path d="M220.67,216.619a35.536,35.536,0,0,0,2.376,3.118v.015a63.157,63.157,0,0,0,11.983,10.988c1.455,1.039,3.029,2.064,4.722,3.044.1.059.208.119.3.178a27.191,27.191,0,0,1,13.393,20.951c.252,2.732.342,4.989.045,5.806-.683,1.856-3.014,2.45-4.38,2.643a23.016,23.016,0,0,0,5.717-.238,18.469,18.469,0,0,0,2.316-.5l.713-.223a10.127,10.127,0,0,0,2.405-1.114c3.608-2.3,3.89-4.054,4.143-6.1.208-1.782-2.153-10.721-2.539-13.72-.1-.757-.163-1.218-.163-1.218a18.278,18.278,0,0,1-.163-3.727.62.62,0,0,1,.015-.1,8.026,8.026,0,0,1,.341-1.9c.059-.178.119-.356.193-.549a.055.055,0,0,1,.015-.045c.015-.059.045-.134.059-.208,0,0-11.76,1.633-25.049-7.291a54.006,54.006,0,0,1-10.884-9.741s-.193.015-.5.015A35.792,35.792,0,0,1,220.67,216.619Z" transform="translate(-205.737 -134.227)" fill="#ededed"/><path d="M250.43,231.83s5.293,14.461,5.108,18.173-11.868,5.746-11.868,5.746l5-13.356Z" transform="translate(-194.586 -126.852)" fill="#ededed"/><path d="M227.821,193.51s-.748-.928-2.327,1.207-7.239,15.405-7.331,18.281,16.982,1.393,16.982,1.393a122.8,122.8,0,0,0-12.474-1.516S224.195,198.429,227.821,193.51Z" transform="translate(-206.953 -145.528)" fill="#efefef" opacity="0.39"/><path d="M250.953,216.63s1.832,2.11,1.461,3.347-2.413-.686-6.93-1.673-17.509-.8-17.509-.8,10.481-2.321,12.652-2.2l.169-1.157A20.489,20.489,0,0,1,250.953,216.63Z" transform="translate(-202.195 -135.431)" fill="#e2e2e2" opacity="0.39"/><path d="M233.71,188.257l.065,5.889-2.034,1.877-2.854-.913v-2.857l3.387-4.541A2.393,2.393,0,0,0,233.71,188.257Z" transform="translate(-201.753 -148.242)" fill="#3a3a3a"/><path d="M232.345,215.006c.238-11.582.564-21.4.564-21.4l-2.851-.921c-.95,4.351-2.287,12.591-3.578,21.293C226.48,213.982,228.9,214.368,232.345,215.006Z" transform="translate(-202.92 -145.829)" fill="#3a3a3a"/><path d="M223.747,234.133l2.9,7.588a.624.624,0,0,0,.995.267l5.39-4.455a2.222,2.222,0,0,0,.8-1.841c-.089-1.47-.163-3.267-.208-5.3-.045-1.782-.074-3.757-.074-5.85v-.015c-.356-.267-.713-.535-1.069-.832-.328-.252-.658-.546-.987-.817-.664-.56-1.4-1.2-2.169-1.905-.417-.392-.834-.765-1.253-1.183-.238-.208-.475-.46-.713-.7-.4-.4-.787-.817-1.188-1.247-.163-.163-.327-.327-.475-.5-.282,2-.549,3.905-.787,5.657-.638,4.737-1.128,8.36-1.307,9.8A2.725,2.725,0,0,0,223.747,234.133Z" transform="translate(-204.329 -133.878)" fill="#3a3a3a"/><path d="M224.47,223a63.771,63.771,0,0,0,8.716,7.395c-.045-1.782-.074-3.757-.074-5.85v-.015c-.356-.267-.713-.535-1.069-.832-1.44-1.314-2.94-2.435-4.41-3.905-.238-.208-.475-.46-.713-.7-.4-.4-.787-.817-1.188-1.247-.163-.163-.327-.327-.475-.5C224.975,219.344,224.708,221.244,224.47,223Z" transform="translate(-203.895 -133.878)" fill="#ededed" style="mix-blend-mode:color-burn;isolation:isolate"/><path d="M222.731,174.7c4.425,7.825,15.457,2.673,15.457,2.673.817,3.4,3.192,3.712,4.336,4.336s1.381,3.92,1.381,3.92h1.039a23.69,23.69,0,0,1,.564-4.959,2.923,2.923,0,0,1,5.152-.5c1.4,2.168-.208,4.588-1.128,6.385a8.182,8.182,0,0,0,.282,4.039,13.565,13.565,0,0,0,2.806-5.063c1.128-3.4,1.96-10.513,0-18.145a8.251,8.251,0,0,0-.906-2.2,54.129,54.129,0,0,1-12.77,8.256c-6.934,2.91-12.309,2.287-14.047.8s-2.643-2.688-2.866-4.558l-.015-.015A6.368,6.368,0,0,0,222.731,174.7Z" transform="translate(-205.198 -159.163)" fill="#231f20"/></g><g transform="translate(195.465 587.091)"><path d="M152.567,454.7a1.385,1.385,0,0,0,1.431-.018l22.216-13.656a1.952,1.952,0,0,0,.442-.285,2.637,2.637,0,0,0,.855-1.169,3.8,3.8,0,0,0,.2-1.624l5.216-3.249a2.364,2.364,0,0,0,.255-.157,1.445,1.445,0,0,0,.2-.214,27.818,27.818,0,0,0,11.458,1.967c10-.3,18.027-5.16,18.313-10.974l.013.015-.013-.512V424.8l-.1-3.235V421.4l-.015.028c-.285-5.985-8.722-10.56-18.941-10.26-10.288.3-18.483,5.443-18.313,11.472l.1,3.264a8.237,8.237,0,0,0,3.421,6.071l-3.933,2.451a2.863,2.863,0,0,0-1.553-.3,2.637,2.637,0,0,0-.8.214c-.043.028-.085.043-.128.071l-.157.1a.186.186,0,0,0-.056.043c-.028.015-.028.028-.058.043l-25.974,15.975a.378.378,0,0,0,.006.647C147.929,451.97,151.13,453.851,152.567,454.7Zm26.185-32.144a5.52,5.52,0,0,1,.355-2.094c1.069-1.868,3.406-4.462,8.281-5.858-.456.143-.9.313-1.326.471-.071.028-.128.056-.2.085-4.063,1.667-6.7,4.419-6.613,7.454.143,4.789,7.026,8.48,15.364,8.236a24.433,24.433,0,0,0,6.769-1.126,16.472,16.472,0,0,0,5.117-2.636,1.629,1.629,0,0,0,.227-.2,4.271,4.271,0,0,0,.4-.328c.171-.156.328-.327.471-.484a2.18,2.18,0,0,0,.184-.186,8.162,8.162,0,0,0,.557-.713c.056-.071.085-.128.143-.2.114-.186.227-.37.328-.555.042-.086.07-.171.113-.257a3.645,3.645,0,0,0,.229-.542l.085-.255a4.135,4.135,0,0,0,.143-.613c.015-.071.03-.129.043-.2a5.4,5.4,0,0,0,.043-.84,5.566,5.566,0,0,0-1.24-3.277,8.643,8.643,0,0,1,1.881,3.192c.143,5.087-6.756,9.4-15.405,9.662C186.034,431.546,178.894,427.626,178.753,422.552Z" transform="translate(-146.469 -405.262)" fill="#076d6d" opacity="0.5"/><path d="M166.315,415.5l4.406-4.579,12.71-3.143,12.874,2.391,4.668,4.312,1.213,2.689-1.843.644s-2.171-8.744-16.86-8.312-16.344,9.289-16.344,9.289l-1.878-.536Z" transform="translate(-137.357 -406.896)" fill="#dbdbdb"/><path d="M165.479,417.3a11.1,11.1,0,0,1,3.694-4.458,6.4,6.4,0,0,0-1.274,3.911c.156,5.289,7.592,9.36,16.612,9.095s16.2-4.766,16.048-10.055a6.389,6.389,0,0,0-1.5-3.829,10.775,10.775,0,0,1,4.134,4.636l.445-1.045.105,3.543v.013l.015.543-.022-.028c-.287,6.06-8.646,11.129-19.073,11.436-10.724.315-19.564-4.527-19.748-10.814l-.1-3.4Z" transform="translate(-137.574 -404.869)" fill="#ededed"/><path d="M164.816,419.159a6.94,6.94,0,0,0,.266,1.7c1.561,5.44,9.745,9.4,19.484,9.118s17.676-4.726,18.914-10.248a6.857,6.857,0,0,0,.165-1.708c-.184-6.29-9.025-11.132-19.748-10.817S164.632,412.869,164.816,419.159Zm3.084-.091a6.4,6.4,0,0,1,1.274-3.911c2.435-3.436,8.1-5.95,14.776-6.147s12.477,1.982,15.11,5.268a6.389,6.389,0,0,1,1.5,3.829c.156,5.289-7.028,9.791-16.048,10.055S168.056,424.357,167.9,419.068Z" transform="translate(-137.574 -407.185)" fill="#81c5e8"/><path d="M164.816,419.159a6.94,6.94,0,0,0,.266,1.7c1.561,5.44,9.745,9.4,19.484,9.118s17.676-4.726,18.914-10.248a6.857,6.857,0,0,0,.165-1.708c-.184-6.29-9.025-11.132-19.748-10.817S164.632,412.869,164.816,419.159Zm3.084-.091a6.4,6.4,0,0,1,1.274-3.911c2.435-3.436,8.1-5.95,14.776-6.147s12.477,1.982,15.11,5.268a6.389,6.389,0,0,1,1.5,3.829c.156,5.289-7.028,9.791-16.048,10.055S168.056,424.357,167.9,419.068Z" transform="translate(-137.574 -407.185)" fill="#fff"/><path d="M163.247,425.96l.37.551h.006l1.663,2.463.428.633,7.3-4.551h0a1.275,1.275,0,0,0,.266-.166,1.583,1.583,0,0,0,.5-.7,1.94,1.94,0,0,0,.111-.45h0a2.568,2.568,0,0,0-.241-1.445,2.466,2.466,0,0,0-1.252-1.235,1.677,1.677,0,0,0-.827-.129,1.438,1.438,0,0,0-.472.131.646.646,0,0,0-.077.042l-.1.062a.191.191,0,0,0-.034.022Z" transform="translate(-138.334 -400.524)" fill="#ededed"/><path d="M163.247,425.96l.37.551h.006l8.78-5.449a1.677,1.677,0,0,0-.827-.129,1.438,1.438,0,0,0-.472.131.646.646,0,0,0-.077.042l-.1.062a.191.191,0,0,0-.034.022Z" transform="translate(-138.334 -400.524)" fill="#fff"/><path d="M164.62,428.056l.428.633,7.3-4.551h0a1.275,1.275,0,0,0,.266-.166,1.583,1.583,0,0,0,.5-.7,1.94,1.94,0,0,0,.111-.45Z" transform="translate(-137.668 -399.603)" fill="#dbdbdb"/><path d="M147.606,437.556l1.06,1.866,2.723,4.8L173.6,430.5v0h.006a2.236,2.236,0,0,0,.46-.29,2.739,2.739,0,0,0,.882-1.216,4.244,4.244,0,0,0-.223-3.3,4.694,4.694,0,0,0-.75-1.126v-.006a3.464,3.464,0,0,0-2.867-1.244,2.363,2.363,0,0,0-.824.229.753.753,0,0,0-.138.07l-.171.108a.311.311,0,0,0-.061.04c-.016.01-.03.025-.046.036Z" transform="translate(-145.917 -399.374)" fill="#394356"/><path d="M147.606,437.556l1.06,1.866,2.671-.8,22.639-14.048,0-.009v-.006a3.464,3.464,0,0,0-2.867-1.244,2.363,2.363,0,0,0-.824.229.753.753,0,0,0-.138.07l-.171.108a.311.311,0,0,0-.061.04c-.016.01-.03.025-.046.036Z" transform="translate(-145.917 -399.374)" fill="#485366"/><path d="M147,437.788c.921,1.918,2.9,2.881,4.44,2.147h0a2.282,2.282,0,0,0,.462-.288,2.761,2.761,0,0,0,.881-1.218,4.247,4.247,0,0,0-.22-3.3,3.821,3.821,0,0,0-3.622-2.376,2.413,2.413,0,0,0-.824.229,1.306,1.306,0,0,0-.137.07l-.172.11a.278.278,0,0,0-.059.04A3.675,3.675,0,0,0,147,437.788Z" transform="translate(-146.433 -394.798)" fill="#6a7384"/><path d="M167.245,418.332c.147,5,7.313,8.838,16.007,8.581s15.621-4.512,15.474-9.506-7.313-8.838-16.007-8.582S167.1,413.337,167.245,418.332Z" transform="translate(-136.397 -406.396)" fill="#fff" opacity="0.2"/><path d="M171.871,410.565c15.678.343,20.212,8.07,21.521,12.436,2-1.581,3.151-3.525,3.091-5.6-.151-4.992-7.317-8.832-16.01-8.578A24.816,24.816,0,0,0,171.871,410.565Z" transform="translate(-134.152 -406.396)" fill="#fff" opacity="0.2"/><path d="M167.8,415.631c.14,4.732,6.931,8.373,15.171,8.131s14.8-4.273,14.664-9.013c-.006-.138-.012-.272-.031-.41-.459,4.443-6.778,8.107-14.633,8.343-7.993.24-14.621-3.182-15.139-7.7A3.808,3.808,0,0,0,167.8,415.631Z" transform="translate(-136.128 -403.717)" fill="#fff" opacity="0.4"/></g><g transform="translate(45.411 36.125)"><g transform="translate(181.635 139.139)"><g transform="translate(0 0)"><path d="M167.737,134.505v44.276a3.625,3.625,0,0,0,1.564,2.995c.043.022.088.067.132.088l14.473,8.922L213.8,209.2a1.39,1.39,0,0,0,1.564-.022l5.861-3.613a1.706,1.706,0,0,0,.836-1.476v-42.8a4.766,4.766,0,0,0-2.29-4.1l-43.925-27.1a1.8,1.8,0,0,0-1.85-.021l-5.574,3.391a.94.94,0,0,0-.2.11A1.116,1.116,0,0,0,167.737,134.505Z" transform="translate(-167.737 -129.831)" fill="#ffd05a"/><path d="M167.737,133.345v44.276a3.625,3.625,0,0,0,1.564,2.995c.043.022.088.067.132.088l14.473,8.922L213.8,208.041a1.39,1.39,0,0,0,1.564-.022,1.446,1.446,0,0,0,.662-1.212V163.655a4.577,4.577,0,0,0-2.137-3.855L169.41,132.4a1.068,1.068,0,0,0-.992-.089.939.939,0,0,0-.2.11A1.116,1.116,0,0,0,167.737,133.345Z" transform="translate(-167.737 -128.671)" fill="#ffdc79"/></g><path d="M186.148,151.634l-2.962,4.428a.672.672,0,0,1-.8.254l-6.422-2.481a.674.674,0,0,0-.8,1l5.117,7.709a.669.669,0,0,1,.1.5l-1.32,6.994a.675.675,0,0,0,.658.8l6.866.04a.675.675,0,0,1,.486.211l6.27,6.631a.674.674,0,0,0,1.155-.567l-1.1-7.016a.674.674,0,0,1,.392-.722l4.855-2.152a.674.674,0,0,0,.105-1.174l-7.721-5.227a.677.677,0,0,1-.249-.312l-3.434-8.786A.675.675,0,0,0,186.148,151.634Z" transform="translate(-164.196 -119.406)" fill="#fff"/></g><g transform="translate(386.969 320.137)"><g transform="translate(0)"><path d="M306.024,254.878v29.845a2.448,2.448,0,0,0,1.053,2.019c.03.015.061.045.089.059l9.755,6.014,20.149,12.413a.941.941,0,0,0,1.056-.015l3.948-2.435a1.152,1.152,0,0,0,.564-.995v-28.85a3.215,3.215,0,0,0-1.543-2.762l-29.609-18.264a1.213,1.213,0,0,0-1.247-.015l-3.755,2.287a.61.61,0,0,0-.135.074A.751.751,0,0,0,306.024,254.878Z" transform="translate(-306.024 -251.729)" fill="#73aae0"/><path d="M306.024,254.1v29.845a2.448,2.448,0,0,0,1.053,2.019c.03.015.061.045.089.059l9.755,6.014,20.149,12.413a.941.941,0,0,0,1.056-.015.978.978,0,0,0,.444-.817V274.528a3.086,3.086,0,0,0-1.439-2.6l-29.979-18.471a.721.721,0,0,0-.668-.059.61.61,0,0,0-.135.074A.751.751,0,0,0,306.024,254.1Z" transform="translate(-306.024 -250.946)" fill="#acd3ff"/></g><g transform="translate(6.29 16.128)"><ellipse cx="3.179" cy="5.748" rx="3.179" ry="5.748" transform="matrix(0.802, -0.597, 0.597, 0.802, 3.697, 3.795)" fill="#fff"/><path d="M310.26,274.919l19.347,11.626c-.021-5.338-4.328-12.232-9.674-15.444-2.662-1.6-5.086-1.973-6.839-1.274S310.26,272.259,310.26,274.919Z" transform="translate(-310.26 -259.244)" fill="#fff"/></g></g><g transform="translate(386.969 408.954)"><g transform="translate(0)"><path d="M306.024,322.37v29.845a2.448,2.448,0,0,0,1.053,2.019c.03.015.061.045.089.059l9.755,6.014,20.149,12.413a.941.941,0,0,0,1.056-.015l3.948-2.435a1.152,1.152,0,0,0,.564-.995v-28.85a3.216,3.216,0,0,0-1.543-2.762L311.487,319.4a1.213,1.213,0,0,0-1.247-.015l-3.755,2.287a.609.609,0,0,0-.135.074A.751.751,0,0,0,306.024,322.37Z" transform="translate(-306.024 -307.823)" fill="#779a0a"/><path d="M306.024,321.587v29.845a2.448,2.448,0,0,0,1.053,2.019c.03.015.061.045.089.059l9.755,6.014,20.149,12.413a.941.941,0,0,0,1.056-.015.979.979,0,0,0,.444-.817V342.019a3.086,3.086,0,0,0-1.439-2.6l-29.979-18.471a.721.721,0,0,0-.668-.059.612.612,0,0,0-.135.074A.751.751,0,0,0,306.024,321.587Z" transform="translate(-306.024 -307.04)" fill="#c3d600"/><path d="M333.575,312.3v29.845a2.446,2.446,0,0,0,1.054,2.019c.03.015.059.045.089.059l9.755,6.014,20.149,12.413a.939.939,0,0,0,1.054-.015.976.976,0,0,0,.445-.817V332.73a3.084,3.084,0,0,0-1.44-2.6L334.7,311.66a.721.721,0,0,0-.668-.059.605.605,0,0,0-.134.074A.752.752,0,0,0,333.575,312.3Z" transform="translate(-292.666 -311.544)" fill="#c3d600" opacity="0.3"/></g><g transform="translate(5.817 26.437)"><path d="M309.941,329.349v2.073l9.672,11.351,9.693.739v-2.062Z" transform="translate(-309.941 -329.349)" fill="#fff"/><path d="M319.614,342.906l-9.672-11.351v10.593l19.365,12.1v-10.6Z" transform="translate(-309.941 -328.279)" fill="#fff"/></g></g><g transform="translate(227.513)"><path d="M345.384,158.822v29.845a2.446,2.446,0,0,0,1.054,2.019c.03.015.059.045.089.059l9.755,6.014,20.149,12.413a.939.939,0,0,0,1.054-.015l3.95-2.435a1.152,1.152,0,0,0,.564-.995v-28.85a3.214,3.214,0,0,0-1.544-2.762l-29.608-18.264a1.213,1.213,0,0,0-1.247-.015l-3.757,2.287a.6.6,0,0,0-.134.074A.752.752,0,0,0,345.384,158.822Z" transform="translate(-127.485 21.837)" fill="#8ba6fc"/><path d="M345.384,158.04v29.845a2.446,2.446,0,0,0,1.054,2.019c.03.015.059.045.089.059l9.755,6.014,20.149,12.413a.939.939,0,0,0,1.054-.015.976.976,0,0,0,.445-.817V178.472a3.084,3.084,0,0,0-1.44-2.6L346.512,157.4a.721.721,0,0,0-.668-.059.6.6,0,0,0-.134.074A.752.752,0,0,0,345.384,158.04Z" transform="translate(-127.485 22.619)" fill="#c9d4fe"/><path d="M327.183,124.693v20.875a1.71,1.71,0,0,0,.738,1.412c.021.01.042.031.062.042l6.823,4.207,14.094,8.683a.657.657,0,0,0,.738-.01.683.683,0,0,0,.312-.572V138.983a2.158,2.158,0,0,0-1.008-1.817l-20.969-12.92a.5.5,0,0,0-.468-.042.42.42,0,0,0-.094.052A.526.526,0,0,0,327.183,124.693Z" transform="translate(-136.31 6.561)" fill="#c9d4fe" opacity="0.3"/><path d="M227.734,63.507V84.384a1.708,1.708,0,0,0,.736,1.412c.021.01.042.031.062.042l6.824,4.207,14.093,8.683a.663.663,0,0,0,.738-.01.683.683,0,0,0,.312-.572V77.8a2.158,2.158,0,0,0-1.008-1.817l-20.969-12.92a.5.5,0,0,0-.468-.042.422.422,0,0,0-.094.052A.528.528,0,0,0,227.734,63.507Z" transform="translate(-184.527 -23.104)" fill="#c9d4fe" opacity="0.3"/><path d="M198.635,36.913V68.143a2.561,2.561,0,0,0,1.1,2.114c.031.015.062.046.094.061l10.207,6.293L231.123,89.6a.981.981,0,0,0,1.1-.016,1.02,1.02,0,0,0,.466-.854V58.292a3.229,3.229,0,0,0-1.507-2.719l-31.37-19.328a.751.751,0,0,0-.7-.061.6.6,0,0,0-.141.077A.786.786,0,0,0,198.635,36.913Z" transform="translate(-198.635 -36.125)" fill="#fff" opacity="0.1"/><path d="M344.026,333.271V364.5a2.562,2.562,0,0,0,1.1,2.113c.031.016.062.048.094.062l10.208,6.293,21.083,12.989a.981.981,0,0,0,1.1-.016,1.02,1.02,0,0,0,.466-.854V354.65a3.227,3.227,0,0,0-1.507-2.719L345.208,332.6a.754.754,0,0,0-.7-.062.629.629,0,0,0-.14.079A.787.787,0,0,0,344.026,333.271Z" transform="translate(-128.143 107.561)" fill="#fff" opacity="0.1"/><g transform="translate(222.295 187.985)"><path d="M361.164,192.958l8.712-3.479c.821-.327.821-1.657,0-2.971s-2.152-2.113-2.971-1.785l-4.958,1.978-9.712-21.551c-.61-1.354-1.905-2.438-2.892-2.422s-1.293,1.129-.683,2.483Z" transform="translate(-348.344 -162.728)" fill="#fff"/></g></g><g transform="translate(0 7.535)"><path d="M68.142,177.619v29.845a2.446,2.446,0,0,0,1.054,2.019c.03.015.059.045.089.059l9.755,6.014L99.19,227.97a.939.939,0,0,0,1.054-.015l3.95-2.435a1.152,1.152,0,0,0,.564-.995v-28.85a3.213,3.213,0,0,0-1.544-2.762L73.606,174.65a1.213,1.213,0,0,0-1.247-.015L68.6,176.922a.6.6,0,0,0-.134.074A.752.752,0,0,0,68.142,177.619Z" transform="translate(-34.39 23.415)" fill="#00e0c1"/><path d="M68.142,176.837v29.845A2.446,2.446,0,0,0,69.2,208.7c.03.015.059.045.089.059l9.755,6.014L99.19,227.188a.939.939,0,0,0,1.054-.015.976.976,0,0,0,.445-.817V197.269a3.084,3.084,0,0,0-1.44-2.6L69.27,176.2a.721.721,0,0,0-.668-.059.6.6,0,0,0-.134.074A.752.752,0,0,0,68.142,176.837Z" transform="translate(-34.39 24.197)" fill="#02f5d0"/><path d="M45.411,181.677v35.587a2.915,2.915,0,0,0,1.256,2.408c.036.018.071.052.107.07l11.631,7.17,24.026,14.8a1.117,1.117,0,0,0,1.256-.018,1.164,1.164,0,0,0,.532-.974V206.038a3.678,3.678,0,0,0-1.716-3.1L46.756,180.916a.856.856,0,0,0-.8-.071.713.713,0,0,0-.159.089A.9.9,0,0,0,45.411,181.677Z" transform="translate(-45.411 26.474)" fill="#fff" opacity="0.2"/><path d="M175.822,42.1V77.686a2.919,2.919,0,0,0,1.256,2.408c.036.016.071.052.107.07l11.632,7.17,24.025,14.8a1.123,1.123,0,0,0,1.258-.018,1.168,1.168,0,0,0,.53-.974V66.46a3.678,3.678,0,0,0-1.716-3.1L177.167,41.338a.856.856,0,0,0-.8-.071.808.808,0,0,0-.159.088A.9.9,0,0,0,175.822,42.1Z" transform="translate(17.818 -41.2)" fill="#fff" opacity="0.2"/><path d="M188.89,224.084v35.586a2.917,2.917,0,0,0,1.258,2.408c.034.018.07.053.105.071l11.632,7.17,24.026,14.8a1.117,1.117,0,0,0,1.256-.018,1.164,1.164,0,0,0,.532-.974V248.445a3.676,3.676,0,0,0-1.718-3.1l-35.746-22.025a.861.861,0,0,0-.8-.071.722.722,0,0,0-.16.089A.9.9,0,0,0,188.89,224.084Z" transform="translate(24.154 47.034)" fill="#fff" opacity="0.2"/><path d="M82.147,198.219a2.488,2.488,0,1,0,2.463-2.839A2.671,2.671,0,0,0,82.147,198.219Z" transform="translate(-27.6 33.553)" fill="#fff"/><path d="M76.847,194.918a2.488,2.488,0,1,0,2.462-2.839A2.672,2.672,0,0,0,76.847,194.918Z" transform="translate(-30.17 31.953)" fill="#fff"/><path d="M71.547,191.618a2.488,2.488,0,1,0,2.462-2.839A2.671,2.671,0,0,0,71.547,191.618Z" transform="translate(-32.739 30.353)" fill="#fff"/></g></g><g transform="translate(210.807 496.656)"><g transform="translate(28.271 16.998)"><ellipse cx="14.136" cy="7.18" rx="14.136" ry="7.18" transform="translate(0.001 11.879)" fill="#076d6d" opacity="0.5"/><path d="M204.112,362.563v7.181c0,3.965-6.328,7.179-14.136,7.179s-14.136-3.215-14.136-7.179v-7.181Z" transform="translate(-175.841 -355.383)" fill="#efc356"/><ellipse cx="14.136" cy="7.18" rx="14.136" ry="7.18" transform="translate(0.001)" fill="#ffdc79"/><path d="M181.076,363.618c0,1.785,2.849,3.233,6.363,3.233s6.364-1.448,6.364-3.233-2.849-3.232-6.364-3.232S181.076,361.834,181.076,363.618Z" transform="translate(-173.303 -356.438)" fill="#fff"/></g><g transform="translate(56.543 33.996)"><ellipse cx="14.136" cy="7.18" rx="14.136" ry="7.18" transform="translate(0.001 11.879)" fill="#076d6d" opacity="0.5"/><path d="M223.154,374.011v7.181c0,3.965-6.33,7.179-14.136,7.179s-14.137-3.215-14.137-7.179v-7.181Z" transform="translate(-194.881 -366.831)" fill="#006380"/><ellipse cx="14.136" cy="7.18" rx="14.136" ry="7.18" transform="translate(0.001)" fill="#00738e"/><path d="M209.714,370.266,198.7,376.993l15.405,1.973Z" transform="translate(-193.028 -368.646)" fill="#fff"/></g><path d="M156.8,361.459c0,3.966,6.33,7.181,14.136,7.181s14.136-3.215,14.136-7.181-6.328-7.179-14.136-7.179S156.8,357.495,156.8,361.459Z" transform="translate(-156.801 -342.401)" fill="#076d6d" opacity="0.5"/><path d="M185.072,351.115V358.3c0,3.966-6.328,7.181-14.136,7.181S156.8,362.262,156.8,358.3v-7.181Z" transform="translate(-156.801 -343.936)" fill="#006380"/><path d="M156.8,353.459c0,3.966,6.33,7.181,14.136,7.181s14.136-3.215,14.136-7.181-6.328-7.179-14.136-7.179S156.8,349.495,156.8,353.459Z" transform="translate(-156.801 -346.28)" fill="#00738e"/><path d="M177.205,350.424l-11.011,6.727-4.331-8.792Z" transform="translate(-154.346 -345.272)" fill="#fff"/></g></g></svg>