<svg xmlns="http://www.w3.org/2000/svg" xmlns:xlink="http://www.w3.org/1999/xlink" width="805.651" height="389.895" viewBox="0 0 805.651 389.895"><defs><linearGradient id="a" x1="0.093" y1="0.748" x2="0.975" y2="0.274" gradientUnits="objectBoundingBox"><stop offset="0" stop-color="#7f97fd"/><stop offset="1" stop-color="#cdd7fd"/></linearGradient></defs><g transform="translate(-360.07 -63.461)"><path d="M1081.092,123.907l-38.454,267.6a79.311,79.311,0,0,1-13.275,33.8c-11.15,16.076-27.654,26.639-44.659,26.639H499.447a37.663,37.663,0,0,1-28.827-13.189c-9.7-11.07-14.484-28.126-11.735-47.249l11.735-81.694,5.085-35.356,21.633-150.55c4.788-33.387,30.717-60.446,57.926-60.446h485.266C1067.719,63.461,1085.887,90.52,1081.092,123.907Z" transform="translate(22.751)" fill="#eceef7"/><g transform="translate(378.024 349.223)"><g transform="translate(5.108)"><g transform="translate(16.194 11.221)"><path d="M392.507,304.511q-.287.5-.574,1a158.713,158.713,0,0,1,64.016,69.906l.9-.419A159.8,159.8,0,0,0,392.507,304.511Z" transform="translate(-391.933 -304.511)" fill="#a5bbe9"/></g><g transform="translate(0 3.373)"><path d="M380.522,298.3q-.867-.087-1.733-.161.645.582,1.283,1.17c.546.339,9.359,8.911,15.4,7.764l.6-.117c-.064-.2-.131-.392-.2-.588C393.857,300.123,381.03,298.173,380.522,298.3Z" transform="translate(-378.789 -298.141)" fill="#a5bbe9"/></g><path d="M417.323,352.113q-.532.266-1.064.536.589.22,1.18.446c.769-.171,16.618,7.281,27.476,1.77l.439-.249q-.161-.286-.324-.574C438.115,341.984,417.986,351.6,417.323,352.113Z" transform="translate(-370.095 -283.2)" fill="#a5bbe9"/><path d="M410.656,341.472l-1.024.676q.623.151,1.244.312c.664-.174,15.466,4.615,24.559-1.737l.416-.315-.392-.525C428.163,330.226,411.216,340.948,410.656,341.472Z" transform="translate(-371.632 -286.014)" fill="#a5bbe9"/><path d="M403.208,331.719l-.968.8c.431.058.864.117,1.295.181.566-.168,13.9,2.467,21.2-4.2l.386-.375c-.15-.158-.3-.315-.451-.473C417.461,320.187,403.67,331.21,403.208,331.719Z" transform="translate(-373.347 -288.519)" fill="#a5bbe9"/><path d="M395.145,322.824q-.453.46-.9.919.665.022,1.333.052c.473-.153,12.025.838,17.6-5.654.116-.143.233-.286.349-.43l-.5-.416C406.292,311.759,395.511,322.355,395.145,322.824Z" transform="translate(-375.203 -290.694)" fill="#a5bbe9"/><path d="M387.766,315.371q-.421.5-.841,1.01.68-.033,1.361-.057c.386-.128,9.908-.172,13.957-6l.314-.472-.543-.366C396.126,305.553,388.048,314.961,387.766,315.371Z" transform="translate(-376.901 -292.358)" fill="#a5bbe9"/><path d="M448.828,329.026l-.782.925c-.631.947-14.658,17.385-8.1,28.488.107.191.216.382.323.574l.439-.249c11.3-5.816,8.929-27.157,8.4-28.167Q448.972,329.813,448.828,329.026Z" transform="translate(-365.002 -287.601)" fill="#a5bbe9"/><path d="M436.3,317.216l-.7,1.028c-.476.878-11.506,17.007-4.572,25.962q.2.261.392.525l.416-.315c9.409-6.615,5.4-24.85,4.894-25.677Q436.521,317.978,436.3,317.216Z" transform="translate(-367.196 -290.341)" fill="#a5bbe9"/><path d="M423.316,307.644q-.3.56-.609,1.119c-.342.787-8.622,15.954-1.74,22.934l.451.472.386-.375c7.517-6.88,2.544-22.028,2.081-22.688Q423.6,308.376,423.316,307.644Z" transform="translate(-369.634 -292.563)" fill="#a5bbe9"/><path d="M410.2,300.163l-.514,1.2c-.234.68-6.09,14.32.373,19.533q.253.207.5.416l.35-.429c5.714-6.653.386-18.808-.022-19.321Q410.551,300.86,410.2,300.163Z" transform="translate(-372.235 -294.298)" fill="#a5bbe9"/><path d="M398.571,295.4q-.213.628-.426,1.254c-.153.556-4.078,12.128,1.609,15.861.181.122.363.244.543.367l.315-.473c4.129-5.942-.919-15.293-1.252-15.68Q398.969,296.067,398.571,295.4Z" transform="translate(-374.637 -295.403)" fill="#a5bbe9"/></g><g transform="translate(0 55.7)"><path d="M381.583,349.669c.021.177.043.355.064.532a98.108,98.108,0,0,1,59.962,12.208c.075-.132.15-.264.227-.4A98.6,98.6,0,0,0,381.583,349.669Z" transform="translate(-373.032 -338.662)" fill="#a5bbe9"/><path d="M374.664,351.362c.4,1.655,6.031,1.668,9.113-1.443C379.979,347.449,374.251,349.641,374.664,351.362Z" transform="translate(-374.643 -338.71)" fill="#a5bbe9"/><path d="M382.1,357.195c1.526.76,5.4-3.487,4.616-7.8C382,350.757,380.488,356.419,382.1,357.195Z" transform="translate(-373.057 -338.576)" fill="#a5bbe9"/><path d="M387.541,358c1.714,1.009,6.654-3.622,6.166-8.754C387.933,350.381,385.707,356.96,387.541,358Z" transform="translate(-371.796 -338.61)" fill="#a5bbe9"/><path d="M417.1,362.906c1.4,1.769,8.878-.35,10.694-5.574C420.9,355.494,415.557,361.032,417.1,362.906Z" transform="translate(-364.853 -336.818)" fill="#a5bbe9"/><path d="M393.719,359.4c1.891,1.328,8.208-3.567,8.239-9.606C394.9,350.439,391.658,358.015,393.719,359.4Z" transform="translate(-370.358 -338.482)" fill="#a5bbe9"/><path d="M408.887,361.793c1.721,1.784,9.648-1.682,11.092-7.84C412.154,352.8,406.976,359.9,408.887,361.793Z" transform="translate(-366.789 -337.546)" fill="#a5bbe9"/><path d="M400.5,361.035c1.961,1.657,9.644-3.053,10.422-9.743C402.767,351.108,398.32,359.286,400.5,361.035Z" transform="translate(-368.771 -338.135)" fill="#a5bbe9"/><path d="M380.576,343.931c-1.555,1.223,1.711,6.068,6.441,6.782C387.37,346.28,382.216,342.713,380.576,343.931Z" transform="translate(-373.357 -339.898)" fill="#a5bbe9"/><path d="M386.762,342.328c-1.979,1.311,1.555,7.274,7.109,8.571C394.746,345.737,388.863,341.031,386.762,342.328Z" transform="translate(-371.959 -340.265)" fill="#a5bbe9"/><path d="M422.741,347.528c-2.786.335-1.5,7.912,4.01,12C430.084,354.934,425.676,347.282,422.741,347.528Z" transform="translate(-363.812 -339.009)" fill="#a5bbe9"/><path d="M394.228,341.014c-2.527,1.344,1.184,8.687,7.656,10.856C403.548,345.934,396.928,339.706,394.228,341.014Z" transform="translate(-370.284 -340.56)" fill="#a5bbe9"/><path d="M413.294,343.318c-3.059.772-.641,9.21,5.874,13.084C422.361,350.753,416.549,342.628,413.294,343.318Z" transform="translate(-365.979 -339.994)" fill="#a5bbe9"/><path d="M402.911,340.726c-3.058,1.217.467,9.816,7.581,13.042C413.124,347.389,406.192,339.574,402.911,340.726Z" transform="translate(-368.34 -340.613)" fill="#a5bbe9"/></g><g transform="translate(21.013 29.402)"><path d="M424.714,319.517c0,1.2,25.758,16.857,25.758,33.813-13.291-20.247-40.62-20.147-40.62-18.752,0,.846,20.347,1.995,31,23.789-12.155-9.993-41.569-11.1-41.569-7.731,0,2.394,19.45,0,36.919,16.511-21.758-6.536-40.4,3.738-40.4,5.832,0,2.294,20.738-7.182,33.768,4.837-26.769-2.359-37.867,8.428-37.867,9.739,0,1.636,12.668-5.908,24.637-2.517,7.814,2.214,15.511,6.589,23.615,6.589h35.674s-16.573-26.528-16.573-37.6C459.05,330.889,424.714,317.223,424.714,319.517Z" transform="translate(-391.698 -319.267)" fill="#85a2d2"/></g></g><g transform="translate(565.17 140.66)"><path d="M969.734,306.117v79.616c-10.584,15.261-26.253,25.289-42.4,25.289H902.123V237.235Z" transform="translate(-439.392 -100.338)" fill="#e7eaf5"/><g transform="translate(0 142.186)"><path d="M605.071,241.528v168.5H553.906a35.744,35.744,0,0,1-27.364-12.521V275.094l4.822-33.566Z" transform="translate(-526.542 -241.528)" fill="#e1e5f2"/><g transform="translate(9.103 6.212)"><g transform="translate(2.243)"><rect width="3.836" height="3.836" fill="#a2afd7"/><rect width="3.836" height="3.836" transform="translate(16.644)" fill="#a2afd7"/></g><g transform="translate(35.531 9.622)"><rect width="3.836" height="3.836" fill="#a2afd7"/><rect width="20.48" height="3.836" transform="translate(8.322)" fill="#a2afd7"/></g><g transform="translate(2.243 38.489)"><rect width="3.836" height="3.836" fill="#a2afd7"/><rect width="3.836" height="3.836" transform="translate(24.966)" fill="#a2afd7"/><rect width="3.836" height="3.836" transform="translate(33.288)" fill="#a2afd7"/></g><g transform="translate(0 69.274)"><rect width="3.836" height="3.836" fill="#a2afd7"/><rect width="3.836" height="3.836" transform="translate(8.322)" fill="#a2afd7"/><rect width="28.802" height="3.836" transform="translate(33.288)" fill="#a2afd7"/></g><g transform="translate(27.209 76.978)"><rect width="3.836" height="3.836" fill="#a2afd7"/><rect width="3.836" height="3.836" transform="translate(16.644)" fill="#a2afd7"/></g><g transform="translate(10.565 105.845)"><rect width="3.836" height="3.836" fill="#a2afd7"/><rect width="3.836" height="3.836" transform="translate(24.966)" fill="#a2afd7"/><rect width="3.836" height="3.836" transform="translate(33.288)" fill="#a2afd7"/></g><g transform="translate(35.531 115.468)"><rect width="3.836" height="3.836" fill="#a2afd7"/></g><g transform="translate(10.565 125.09)"><rect width="3.836" height="3.836" fill="#a2afd7"/><rect width="3.836" height="3.836" transform="translate(24.966)" fill="#a2afd7"/><rect width="3.836" height="3.836" transform="translate(41.61)" fill="#a2afd7"/><rect width="3.836" height="3.836" transform="translate(49.932)" fill="#a2afd7"/></g></g><g transform="translate(467.906 44.701)"><g transform="translate(18.887)"><rect width="3.836" height="3.836" fill="#a2afd7"/><rect width="3.836" height="3.836" transform="translate(8.322)" fill="#a2afd7"/></g><g transform="translate(0 30.785)"><rect width="3.836" height="3.836" fill="#a2afd7"/><rect width="28.802" height="3.836" transform="translate(24.966)" fill="#a2afd7"/></g><g transform="translate(18.887 38.489)"><rect width="3.836" height="3.836" fill="#a2afd7"/><rect width="3.836" height="3.836" transform="translate(16.644)" fill="#a2afd7"/></g><g transform="translate(2.243 67.356)"><rect width="3.836" height="3.836" fill="#a2afd7"/><rect width="3.836" height="3.836" transform="translate(24.966)" fill="#a2afd7"/><rect width="3.836" height="3.836" transform="translate(33.288)" fill="#a2afd7"/></g><g transform="translate(27.209 76.978)"><rect width="3.836" height="3.836" fill="#a2afd7"/></g><g transform="translate(2.243 86.601)"><rect width="3.836" height="3.836" fill="#a2afd7"/><rect width="3.836" height="3.836" transform="translate(24.966)" fill="#a2afd7"/><rect width="3.836" height="3.836" transform="translate(41.61)" fill="#a2afd7"/><rect width="3.836" height="3.836" transform="translate(49.932)" fill="#a2afd7"/></g></g></g><g transform="translate(360.26 0)"><rect width="84.845" height="310.69" fill="#e1e5f2"/><path d="M892.464,126.121l-24.674,310.69h24.674Z" transform="translate(-807.619 -126.121)" fill="#d2d9ec"/><g transform="translate(10.256 13.263)"><g transform="translate(2.243)"><rect width="3.836" height="3.836" fill="#a2afd7"/><rect width="3.836" height="3.836" transform="translate(16.644)" fill="#a2afd7"/></g><g transform="translate(35.531 9.622)"><rect width="3.836" height="3.836" fill="#a2afd7"/><rect width="20.48" height="3.836" transform="translate(8.322)" fill="#a2afd7"/></g><g transform="translate(2.243 38.489)"><rect width="3.836" height="3.836" fill="#a2afd7"/><rect width="3.836" height="3.836" transform="translate(24.966)" fill="#a2afd7"/><rect width="3.836" height="3.836" transform="translate(33.288)" fill="#a2afd7"/></g><g transform="translate(0 69.274)"><rect width="3.836" height="3.836" fill="#a2afd7"/><rect width="3.836" height="3.836" transform="translate(8.322)" fill="#a2afd7"/><rect width="28.802" height="3.836" transform="translate(33.288)" fill="#a2afd7"/></g><g transform="translate(27.209 76.978)"><rect width="3.836" height="3.836" fill="#a2afd7"/><rect width="3.836" height="3.836" transform="translate(16.644)" fill="#a2afd7"/></g><g transform="translate(10.565 105.845)"><rect width="3.836" height="3.836" fill="#a2afd7"/><rect width="3.836" height="3.836" transform="translate(24.966)" fill="#a2afd7"/><rect width="3.836" height="3.836" transform="translate(33.288)" fill="#a2afd7"/></g><g transform="translate(35.531 115.468)"><rect width="3.836" height="3.836" fill="#a2afd7"/></g><g transform="translate(10.565 125.09)"><rect width="3.836" height="3.836" fill="#a2afd7"/><rect width="3.836" height="3.836" transform="translate(24.966)" fill="#a2afd7"/><rect width="3.836" height="3.836" transform="translate(41.61)" fill="#a2afd7"/><rect width="3.836" height="3.836" transform="translate(49.932)" fill="#a2afd7"/></g></g></g><g transform="translate(317.837 107.666)"><rect width="84.845" height="203.024" fill="#e1e5f2"/><rect width="4.681" height="203.024" fill="#dadfef"/><rect width="4.681" height="203.024" transform="translate(9.996)" fill="#dadfef"/><rect width="4.681" height="203.024" transform="translate(19.992)" fill="#dadfef"/><rect width="4.681" height="203.024" transform="translate(29.988)" fill="#dadfef"/><rect width="4.681" height="203.024" transform="translate(39.985)" fill="#dadfef"/><rect width="4.681" height="203.024" transform="translate(49.981)" fill="#dadfef"/><rect width="4.681" height="203.024" transform="translate(59.977)" fill="#dadfef"/><rect width="4.681" height="203.024" transform="translate(69.973)" fill="#dadfef"/><rect width="4.681" height="203.024" transform="translate(79.969)" fill="#dadfef"/><g transform="translate(8.078 14.759)"><g transform="translate(41.61)"><rect width="3.836" height="3.836" transform="translate(20.48 3.836) rotate(180)" fill="#a2afd7"/><rect width="3.836" height="3.836" transform="translate(3.836 3.836) rotate(180)" fill="#a2afd7"/></g><g transform="translate(24.966 9.622)"><rect width="3.836" height="3.836" transform="translate(3.836 3.836) rotate(180)" fill="#a2afd7"/></g><g transform="translate(24.966 38.489)"><rect width="3.836" height="3.836" transform="translate(37.124 3.836) rotate(180)" fill="#a2afd7"/><rect width="3.836" height="3.836" transform="translate(12.158 3.836) rotate(180)" fill="#a2afd7"/><rect width="3.836" height="3.836" transform="translate(3.836 3.836) rotate(180)" fill="#a2afd7"/></g><g transform="translate(52.175 69.274)"><rect width="3.836" height="3.836" transform="translate(12.158 3.836) rotate(180)" fill="#a2afd7"/><rect width="3.836" height="3.836" transform="translate(3.836 3.836) rotate(180)" fill="#a2afd7"/></g><g transform="translate(16.644 76.979)"><rect width="3.836" height="3.836" transform="translate(20.48 3.836) rotate(180)" fill="#a2afd7"/><rect width="3.836" height="3.836" transform="translate(3.836 3.836) rotate(180)" fill="#a2afd7"/></g><g transform="translate(16.644 105.845)"><rect width="3.836" height="3.836" transform="translate(37.124 3.836) rotate(180)" fill="#a2afd7"/><rect width="3.836" height="3.836" transform="translate(12.158 3.836) rotate(180)" fill="#a2afd7"/><rect width="3.836" height="3.836" transform="translate(3.836 3.836) rotate(180)" fill="#a2afd7"/></g><g transform="translate(24.966 115.468)"><rect width="3.836" height="3.836" transform="translate(3.836 3.836) rotate(180)" fill="#a2afd7"/></g><g transform="translate(0 125.09)"><rect width="3.836" height="3.836" transform="translate(53.768 3.836) rotate(180)" fill="#a2afd7"/><rect width="3.836" height="3.836" transform="translate(28.802 3.836) rotate(180)" fill="#a2afd7"/><rect width="3.836" height="3.836" transform="translate(12.158 3.836) rotate(180)" fill="#a2afd7"/><rect width="3.836" height="3.836" transform="translate(3.836 3.836) rotate(180)" fill="#a2afd7"/></g></g></g></g><g transform="translate(653.953 87.534)"><path d="M884.8,83H612.118A13.513,13.513,0,0,0,598.6,96.514V433.121a13.514,13.514,0,0,0,13.514,13.514H884.8a13.513,13.513,0,0,0,13.514-13.514V96.514A13.513,13.513,0,0,0,884.8,83Z" transform="translate(-598.604 -83)" fill="#489aab"/><g transform="translate(32.994 37.274)"><path d="M848.57,113.254H635.923a10.539,10.539,0,0,0-10.539,10.539V391.8a10.538,10.538,0,0,0,10.539,10.539H848.57A10.538,10.538,0,0,0,859.11,391.8V123.793a10.542,10.542,0,0,0-10.54-10.539Z" transform="translate(-625.384 -113.254)" fill="#a7d4c6"/></g><g transform="translate(69.865 101.827)"><g transform="translate(28.379 28.378)"><path d="M729.958,188.682a51.613,51.613,0,1,0,51.614,51.613A51.672,51.672,0,0,0,729.958,188.682Zm0,97.026a45.413,45.413,0,1,1,45.413-45.413A45.464,45.464,0,0,1,729.958,285.708Z" transform="translate(-678.345 -188.682)" fill="#829da9"/></g><circle cx="11.46" cy="11.46" r="11.46" transform="translate(68.532 68.531)" fill="#829da9"/><path d="M721.909,223.37a8.876,8.876,0,1,0,8.877,8.877A8.876,8.876,0,0,0,721.909,223.37Z" transform="translate(-641.917 -152.255)" fill="#829da9"/><path d="M724.216,165.649h-5.626c-1.948,0-3.493,2.478-3.375,5.414l2.813,69.783c.108,2.694,1.587,4.8,3.375,4.8s3.266-2.1,3.375-4.8l2.813-69.783C727.709,168.127,726.164,165.649,724.216,165.649Z" transform="translate(-641.412 -165.649)" fill="#829da9"/><path d="M724.778,235.369c-.108-2.694-1.587-4.794-3.375-4.794s-3.266,2.1-3.375,4.794l-2.813,69.783c-.118,2.935,1.427,5.414,3.375,5.414h5.626c1.948,0,3.493-2.479,3.374-5.414Z" transform="translate(-641.412 -150.584)" fill="#829da9"/><path d="M730.508,228.367l-69.783-2.814c-2.936-.118-5.415,1.427-5.415,3.375v5.627c0,1.948,2.479,3.493,5.415,3.375l69.783-2.813c2.693-.11,4.794-1.588,4.794-3.375S733.2,228.476,730.508,228.367Z" transform="translate(-655.311 -151.75)" fill="#829da9"/><path d="M794.815,225.553l-69.784,2.814c-2.693.108-4.794,1.587-4.794,3.375s2.1,3.265,4.794,3.375l69.784,2.813c2.935.118,5.414-1.427,5.414-3.375v-5.627C800.228,226.98,797.749,225.435,794.815,225.553Z" transform="translate(-640.246 -151.75)" fill="#829da9"/><path d="M683.041,184.628c-1.992-2.16-4.837-2.819-6.214-1.441l-3.978,3.977c-1.377,1.377-.717,4.223,1.443,6.214l51.333,47.356c1.981,1.827,4.512,2.267,5.776,1s.824-3.8-1-5.777Z" transform="translate(-651.409 -161.747)" fill="#829da9"/><path d="M726.148,231.714c-1.981-1.827-4.512-2.267-5.776-1s-.824,3.795,1,5.776l47.355,51.333c1.992,2.159,4.837,2.819,6.214,1.441l3.978-3.977c1.378-1.377.717-4.223-1.443-6.214Z" transform="translate(-640.381 -150.719)" fill="#829da9"/><path d="M725.624,231.714l-51.333,47.356c-2.16,1.991-2.82,4.837-1.443,6.214l3.978,3.977c1.377,1.377,4.222.717,6.214-1.441L730.4,236.486c1.828-1.981,2.268-4.513,1-5.776S727.605,229.886,725.624,231.714Z" transform="translate(-651.409 -150.719)" fill="#829da9"/><path d="M774.946,183.187c-1.377-1.377-4.222-.718-6.214,1.441l-47.355,51.333c-1.828,1.981-2.268,4.513-1,5.777s3.795.823,5.776-1l51.333-47.356c2.16-1.991,2.82-4.837,1.443-6.214Z" transform="translate(-640.381 -161.747)" fill="#829da9"/></g></g><g transform="translate(484.903 189.957)"><path d="M517.637,209.172a18.772,18.772,0,0,1-6.207-.977c-5.008-1.726-8.6-6.129-8.74-10.709a18.217,18.217,0,0,1,.344-3.542c.117-.7.227-1.369.281-2.033.086-1.047.058-2.956-1.111-3.971-1.262-1.1-3.43-.806-5.364-.448l-8.575,1.583c-1.815.335-4.3.795-6.479-.306-3.129-1.579-3.915-5.444-3.637-8.273a28.775,28.775,0,0,1,.755-3.943,23.749,23.749,0,0,0,.727-3.96c.09-1.336-.188-2.985-1.238-3.612-1.076-.642-2.712-.133-4.161.394L463.1,173.428a1.275,1.275,0,1,1-.872-2.4l11.125-4.052c1.445-.526,4.136-1.506,6.343-.187,1.757,1.048,2.659,3.225,2.475,5.972a25.985,25.985,0,0,1-.792,4.387,26.665,26.665,0,0,0-.7,3.594c-.214,2.188.4,4.814,2.249,5.747,1.3.658,2.975.423,4.867.074l8.575-1.583c1.82-.336,5.205-.961,7.5,1.031,1.5,1.3,2.2,3.467,1.981,6.107-.064.766-.187,1.514-.307,2.237a16.056,16.056,0,0,0-.311,3.049c.107,3.543,2.994,6.987,7.021,8.375,3.28,1.131,7.186,1.116,12.294-.046a56.238,56.238,0,0,0,13.426-4.922,1.275,1.275,0,1,1,1.175,2.263,58.736,58.736,0,0,1-14.035,5.146A33.908,33.908,0,0,1,517.637,209.172Z" transform="translate(-461.393 -166.133)" fill="#7a2d18"/></g><g transform="translate(414.12 340.711)"><g transform="translate(31.59 82.226)"><path d="M466.124,383.946H434.776l-5.2-28.712h41.74Z" transform="translate(-429.58 -355.234)" fill="#fff"/></g><g transform="translate(1.279 1.267)"><path d="M451.007,358.8s-17.41,6.568-17.324-4.949,5.456-14.375-2.338-18.7-12.643-5.889-11.257-14.289-16.8-15.5-14.982-24.853,15.934-7.534,21.563-1.212,19.137,1.385,21.649,15.76,3.291,12.469,12.3,19.485S466.425,354.834,451.007,358.8Z" transform="translate(-404.978 -289.522)" fill="#fff"/></g><g transform="translate(30.315 80.951)"><path d="M466.365,385.462H435.016a1.276,1.276,0,0,1-1.254-1.048l-5.2-28.713a1.274,1.274,0,0,1,1.254-1.5h41.74a1.276,1.276,0,0,1,1.255,1.5l-5.2,28.713A1.276,1.276,0,0,1,466.365,385.462Zm-30.284-2.552H465.3l4.733-26.161H431.348Z" transform="translate(-428.545 -354.199)" fill="#7a2d18"/></g><g transform="translate(16.535 14.01)"><path d="M450.462,369.357h-.057a1.277,1.277,0,0,1-1.22-1.329,78.428,78.428,0,0,0-3.324-22.445,89.514,89.514,0,0,0-28.054-43.469,1.275,1.275,0,1,1,1.656-1.94,92.042,92.042,0,0,1,28.878,44.806c3.781,13.211,3.41,22.761,3.393,23.161A1.275,1.275,0,0,1,450.462,369.357Z" transform="translate(-417.36 -299.866)" fill="#7a2d18"/></g><path d="M441.723,362.172A10.681,10.681,0,0,1,435.6,360.6c-1.984-1.382-2.978-3.574-2.956-6.516a41.454,41.454,0,0,1,1.271-9.61c.982-4.317,1.279-5.619-2.953-7.97-.8-.447-1.577-.864-2.314-1.262-6.371-3.439-10.974-5.924-9.583-14.35.561-3.4-3.049-6.872-6.87-10.549-4.512-4.341-9.177-8.83-8.106-14.341a8.811,8.811,0,0,1,6.671-7.05c5.511-1.513,13.18.835,17.1,5.232,1.846,2.073,4.837,2.807,8.006,3.583,5.734,1.4,12.234,3,13.948,12.807,2.008,11.5,2.687,11.994,7.969,15.822,1.105.8,2.357,1.709,3.855,2.876,4.43,3.451,6.379,9.461,5.086,15.686-1.565,7.53-7.2,13.246-15.1,15.3A32.227,32.227,0,0,1,441.723,362.172Zm-27.314-71.132a11.254,11.254,0,0,0-2.967.372,6.223,6.223,0,0,0-4.843,5.077c-.806,4.15,3.35,8.149,7.37,12.016,4.129,3.971,8.4,8.078,7.618,12.8-1.093,6.631,1.843,8.215,8.278,11.69.747.4,1.528.824,2.341,1.276,5.906,3.281,5.192,6.42,4.2,10.767A39.336,39.336,0,0,0,435.2,354.1c-.015,2.077.594,3.517,1.863,4.4,3.444,2.4,11.083.34,13.736-.658a1.273,1.273,0,0,1,.132-.042c6.961-1.793,11.932-6.79,13.3-13.366,1.094-5.266-.5-10.307-4.156-13.154-1.464-1.141-2.7-2.034-3.785-2.823-5.83-4.227-6.859-5.274-8.985-17.449-1.427-8.167-6.583-9.43-12.042-10.768-3.408-.835-6.93-1.7-9.3-4.364C423.337,292.939,418.563,291.041,414.409,291.041Z" transform="translate(-403.94 -288.494)" fill="#7a2d18"/><g transform="translate(42.666 11.39)" opacity="0.9"><path d="M451.339,358.358s15.233,5.747,15.157-4.331-4.773-12.578,2.046-16.366,11.063-5.151,9.85-12.5,14.7-13.562,13.108-21.745-13.942-6.591-18.866-1.061-16.745,1.212-18.943,13.79-2.879,10.911-10.759,17.048S437.848,354.883,451.339,358.358Z" transform="translate(-438.57 -297.739)" fill="#489aab"/></g><g transform="translate(52.108 22.381)"><path d="M447.523,367.78a1.274,1.274,0,0,1-1.273-1.218,69.574,69.574,0,0,1,2.974-20.316,80.685,80.685,0,0,1,25.317-39.28,1.275,1.275,0,1,1,1.656,1.94,78.151,78.151,0,0,0-24.492,37.943,68.563,68.563,0,0,0-2.908,19.6,1.275,1.275,0,0,1-1.219,1.329Z" transform="translate(-446.234 -306.66)" fill="#7a2d18"/></g><g transform="translate(41.388 10.107)"><path d="M459.913,361.495a28.336,28.336,0,0,1-8.717-1.677c-6.96-1.816-11.935-6.861-13.316-13.509-1.145-5.506.583-10.825,4.508-13.883,1.313-1.021,2.409-1.816,3.377-2.518,4.575-3.317,5.162-3.742,6.909-13.742,1.518-8.686,7.509-10.154,12.323-11.334,2.747-.673,5.342-1.31,6.924-3.085,3.52-3.955,10.162-5.988,15.118-4.628a7.863,7.863,0,0,1,5.952,6.293c.955,4.907-3.159,8.864-7.137,12.691-3.313,3.187-6.441,6.2-5.964,9.09,1.235,7.485-2.834,9.681-8.467,12.721-.644.349-1.319.713-2.022,1.1-3.6,2-3.368,3.016-2.506,6.8a36.558,36.558,0,0,1,1.116,8.442,6.581,6.581,0,0,1-2.655,5.835A9.514,9.514,0,0,1,459.913,361.495Zm23.89-62.235a14.188,14.188,0,0,0-9.977,4.183c-2.109,2.369-5.216,3.131-8.221,3.867-4.724,1.158-9.186,2.251-10.417,9.295-1.873,10.715-2.78,11.639-7.926,15.37-.951.689-2.028,1.47-3.307,2.465-3.152,2.454-4.523,6.8-3.578,11.351,1.183,5.694,5.489,10.021,11.52,11.574.044.012.089.026.131.042,2.3.865,8.916,2.656,11.872.594a4.136,4.136,0,0,0,1.561-3.721,34.31,34.31,0,0,0-1.052-7.895c-.882-3.871-1.518-6.667,3.754-9.6.712-.4,1.4-.766,2.05-1.119,5.561-3,8.1-4.371,7.161-10.061-.695-4.216,3.07-7.839,6.712-11.343,3.487-3.354,7.092-6.822,6.4-10.366a5.3,5.3,0,0,0-4.124-4.32A9.715,9.715,0,0,0,483.8,299.259Z" transform="translate(-437.533 -296.698)" fill="#7a2d18"/></g></g><g transform="translate(1028.245 276.455)"><path d="M906.049,238.163a1.823,1.823,0,1,1-1.823-1.823A1.824,1.824,0,0,1,906.049,238.163Z" transform="translate(-902.402 -236.34)" fill="#7a2d18"/><g transform="translate(10.221)"><path d="M914.346,238.163a1.824,1.824,0,1,1-1.825-1.823A1.825,1.825,0,0,1,914.346,238.163Z" transform="translate(-910.698 -236.34)" fill="#7a2d18"/></g><g transform="translate(20.442)"><path d="M922.642,238.163a1.824,1.824,0,1,1-1.825-1.823A1.825,1.825,0,0,1,922.642,238.163Z" transform="translate(-918.994 -236.34)" fill="#7a2d18"/></g><g transform="translate(30.663)"><path d="M930.938,238.163a1.824,1.824,0,1,1-1.823-1.823A1.824,1.824,0,0,1,930.938,238.163Z" transform="translate(-927.29 -236.34)" fill="#7a2d18"/></g><g transform="translate(0 8.845)"><path d="M906.049,245.344a1.823,1.823,0,1,1-1.823-1.825A1.823,1.823,0,0,1,906.049,245.344Z" transform="translate(-902.402 -243.519)" fill="#7a2d18"/></g><g transform="translate(10.221 8.845)"><path d="M914.346,245.344a1.824,1.824,0,1,1-1.825-1.825A1.824,1.824,0,0,1,914.346,245.344Z" transform="translate(-910.698 -243.519)" fill="#7a2d18"/></g><g transform="translate(20.442 8.845)"><path d="M922.642,245.344a1.824,1.824,0,1,1-1.825-1.825A1.824,1.824,0,0,1,922.642,245.344Z" transform="translate(-918.994 -243.519)" fill="#7a2d18"/></g><g transform="translate(30.663 8.845)"><path d="M930.938,245.344a1.824,1.824,0,1,1-1.823-1.825A1.824,1.824,0,0,1,930.938,245.344Z" transform="translate(-927.29 -243.519)" fill="#7a2d18"/></g></g><g transform="translate(590.179 185.284)"><g transform="translate(0 0)"><path d="M550.489,164.163a1.824,1.824,0,1,1-1.825-1.823A1.824,1.824,0,0,1,550.489,164.163Z" transform="translate(-546.841 -162.34)" fill="#7a2d18"/></g><g transform="translate(10.221 0)"><path d="M558.785,164.163a1.824,1.824,0,1,1-1.823-1.823A1.824,1.824,0,0,1,558.785,164.163Z" transform="translate(-555.137 -162.34)" fill="#7a2d18"/></g><g transform="translate(20.443 0)"><path d="M567.081,164.163a1.823,1.823,0,1,1-1.823-1.823A1.824,1.824,0,0,1,567.081,164.163Z" transform="translate(-563.434 -162.34)" fill="#7a2d18"/></g><g transform="translate(30.664 0)"><path d="M575.377,164.163a1.823,1.823,0,1,1-1.823-1.823A1.824,1.824,0,0,1,575.377,164.163Z" transform="translate(-571.73 -162.34)" fill="#7a2d18"/></g><g transform="translate(0 8.845)"><path d="M550.489,171.344a1.824,1.824,0,1,1-1.825-1.825A1.824,1.824,0,0,1,550.489,171.344Z" transform="translate(-546.841 -169.519)" fill="#7a2d18"/></g><g transform="translate(10.221 8.845)"><path d="M558.785,171.344a1.824,1.824,0,1,1-1.823-1.825A1.824,1.824,0,0,1,558.785,171.344Z" transform="translate(-555.137 -169.519)" fill="#7a2d18"/></g><g transform="translate(20.443 8.845)"><path d="M567.081,171.344a1.823,1.823,0,1,1-1.823-1.825A1.824,1.824,0,0,1,567.081,171.344Z" transform="translate(-563.434 -169.519)" fill="#7a2d18"/></g><g transform="translate(30.664 8.845)"><path d="M575.377,171.344a1.823,1.823,0,1,1-1.823-1.825A1.824,1.824,0,0,1,575.377,171.344Z" transform="translate(-571.73 -169.519)" fill="#7a2d18"/></g></g><g transform="translate(1068.446 195.952)"><g transform="translate(0 0)"><path d="M957.455,205.214a17.4,17.4,0,0,1-2.406-.176A25.106,25.106,0,0,1,935.1,188.372a1.276,1.276,0,0,1,2.423-.8A22.5,22.5,0,0,0,955.4,202.511c2.091.293,4.977.3,6.864-1.311,2.321-1.989,2.357-5.815,1.616-8.734-.32-1.264-.753-2.492-1.211-3.792a28.5,28.5,0,0,1-1.766-6.743,6.644,6.644,0,0,1,1.505-5.459c1.573-1.6,4.057-1.965,7.385-1.085a36.02,36.02,0,0,1,13.822,7.14l.153-5.287c.053-1.8.236-3.843,1.761-5.175,1.689-1.478,4.15-1.206,5.888-.457a10.508,10.508,0,0,1,5.867,6.638,1.276,1.276,0,0,1-2.449.713,8.039,8.039,0,0,0-4.427-5.008c-.977-.421-2.4-.665-3.2.033-.749.655-.85,2-.888,3.329l-.234,8.043a1.275,1.275,0,0,1-2.165.876,33.455,33.455,0,0,0-14.778-8.379c-2.378-.63-4.03-.492-4.915.407a4.43,4.43,0,0,0-.784,3.43,26.133,26.133,0,0,0,1.631,6.137c.457,1.3.929,2.637,1.278,4.013,1.2,4.741.294,8.964-2.431,11.3A9.709,9.709,0,0,1,957.455,205.214Z" transform="translate(-935.032 -170.999)" fill="#7a2d18"/></g></g><g transform="translate(991.955 75.63)" opacity="0.74"><path d="M873.054,114.811h93.593a15.017,15.017,0,0,0-10.679-14.374,16.852,16.852,0,0,0-16.23-13.154,25.686,25.686,0,0,0-48.165,7.423c-.121,0-.242-.009-.362-.009a18.264,18.264,0,0,0-18.264,18.264c0,.625.032,1.243.092,1.852Z" transform="translate(-872.947 -73.338)" fill="#fff"/></g><g transform="translate(544.179 127.376)" opacity="0.74"><path d="M509.573,142.025H569.8a9.662,9.662,0,0,0-6.872-9.249,10.847,10.847,0,0,0-10.444-8.465,16.528,16.528,0,0,0-30.993,4.778c-.078,0-.154-.006-.233-.006A11.753,11.753,0,0,0,509.5,140.835a11.9,11.9,0,0,0,.06,1.191Z" transform="translate(-509.504 -115.338)" fill="#fff"/></g><g transform="translate(525.112 367.65)"><g transform="translate(0 16.454)"><rect width="82.276" height="16.454" rx="5" transform="translate(1.276 1.276)" fill="#efb563"/><path d="M575.758,342.719H497.125a3.1,3.1,0,0,1-3.1-3.1v-12.81a3.1,3.1,0,0,1,3.1-3.1h78.632a3.1,3.1,0,0,1,3.1,3.1v12.81A3.1,3.1,0,0,1,575.758,342.719Zm-78.632-16.453a.547.547,0,0,0-.546.546v12.81a.547.547,0,0,0,.546.547h78.632a.547.547,0,0,0,.547-.547v-12.81a.547.547,0,0,0-.547-.546Z" transform="translate(-494.028 -323.715)" fill="#7a2d18"/><g transform="translate(0 6.074)"><path d="M535.148,331.2H495.3a1.276,1.276,0,0,1,0-2.552h39.845a1.276,1.276,0,0,1,0,2.552Z" transform="translate(-494.028 -328.645)" fill="#7a2d18"/></g></g><g transform="translate(16.725)"><rect width="82.276" height="16.454" rx="5" transform="translate(83.552 17.729) rotate(180)" fill="#efb563"/><path d="M589.333,329.365H510.7a3.1,3.1,0,0,1-3.1-3.1V313.459a3.1,3.1,0,0,1,3.1-3.1h78.632a3.1,3.1,0,0,1,3.1,3.1v12.808A3.1,3.1,0,0,1,589.333,329.365ZM510.7,312.912a.547.547,0,0,0-.546.547v12.808a.547.547,0,0,0,.546.547h78.632a.547.547,0,0,0,.547-.547V313.459a.547.547,0,0,0-.547-.547Z" transform="translate(-507.603 -310.36)" fill="#7a2d18"/><g transform="translate(42.431 6.074)"><path d="M583.164,317.842H543.319a1.276,1.276,0,1,1,0-2.552h39.844a1.276,1.276,0,0,1,0,2.552Z" transform="translate(-542.043 -315.29)" fill="#7a2d18"/></g></g><g transform="translate(12.959 32.908)"><rect width="82.276" height="16.454" rx="5" transform="translate(1.276 1.275)" fill="#efb563"/><path d="M586.276,356.074H507.645a3.1,3.1,0,0,1-3.1-3.1v-12.81a3.1,3.1,0,0,1,3.1-3.1h78.631a3.1,3.1,0,0,1,3.1,3.1v12.81A3.1,3.1,0,0,1,586.276,356.074ZM507.645,339.62a.547.547,0,0,0-.547.547v12.81a.547.547,0,0,0,.547.547h78.631a.547.547,0,0,0,.547-.547v-12.81a.547.547,0,0,0-.547-.547Z" transform="translate(-504.546 -337.07)" fill="#7a2d18"/><g transform="translate(0.774 5.655)"><path d="M546.294,344.212H506.45a1.276,1.276,0,1,1,0-2.552h39.844a1.276,1.276,0,0,1,0,2.552Z" transform="translate(-505.174 -341.66)" fill="#7a2d18"/></g></g><g transform="translate(3.814 49.362)"><rect width="82.276" height="16.454" rx="5" transform="translate(1.275 1.275)" fill="#efb563"/><path d="M578.854,369.429H500.221a3.1,3.1,0,0,1-3.1-3.1v-12.81a3.1,3.1,0,0,1,3.1-3.1h78.632a3.1,3.1,0,0,1,3.1,3.1v12.81A3.1,3.1,0,0,1,578.854,369.429Zm-78.632-16.454a.547.547,0,0,0-.547.547v12.81a.547.547,0,0,0,.547.546h78.632a.547.547,0,0,0,.546-.546v-12.81a.547.547,0,0,0-.546-.547Z" transform="translate(-497.124 -350.425)" fill="#7a2d18"/><g transform="translate(41.658 7.179)"><path d="M572.057,358.8H532.211a1.276,1.276,0,0,1,0-2.552h39.845a1.276,1.276,0,0,1,0,2.552Z" transform="translate(-530.936 -356.252)" fill="#7a2d18"/></g></g><g transform="translate(10.03 65.814)"><rect width="82.276" height="16.454" rx="5" transform="translate(1.275 1.276)" fill="#efb563"/><path d="M583.9,382.784H505.266a3.1,3.1,0,0,1-3.1-3.1V366.878a3.1,3.1,0,0,1,3.1-3.1H583.9a3.1,3.1,0,0,1,3.1,3.1v12.808A3.1,3.1,0,0,1,583.9,382.784Zm-78.632-16.454a.547.547,0,0,0-.547.547v12.808a.547.547,0,0,0,.547.547H583.9a.547.547,0,0,0,.546-.547V366.878a.547.547,0,0,0-.546-.547Z" transform="translate(-502.169 -363.779)" fill="#7a2d18"/><g transform="translate(41.138 6.033)"><path d="M576.678,371.226H536.834a1.275,1.275,0,0,1,0-2.55h39.844a1.275,1.275,0,1,1,0,2.55Z" transform="translate(-535.559 -368.676)" fill="#7a2d18"/></g></g></g><g transform="translate(627.662 285.838)"><g transform="translate(0.988 82.268)"><g transform="translate(18.755 16.453)"><rect width="82.276" height="16.454" rx="5" transform="translate(83.552 17.729) rotate(180)" fill="#efb563"/><path d="M675.019,343.088H596.388a3.1,3.1,0,0,1-3.1-3.1v-12.81a3.1,3.1,0,0,1,3.1-3.1h78.631a3.1,3.1,0,0,1,3.1,3.1v12.81A3.1,3.1,0,0,1,675.019,343.088Zm-78.631-16.453a.547.547,0,0,0-.547.546v12.81a.547.547,0,0,0,.547.547h78.631a.547.547,0,0,0,.547-.547v-12.81a.547.547,0,0,0-.547-.546Z" transform="translate(-593.289 -324.084)" fill="#7a2d18"/><g transform="translate(42.433 6.074)"><path d="M668.849,331.566H629.005a1.276,1.276,0,0,1,0-2.552h39.844a1.276,1.276,0,1,1,0,2.552Z" transform="translate(-627.73 -329.014)" fill="#7a2d18"/></g></g><g transform="translate(2.032)"><rect width="82.276" height="16.454" rx="5" transform="translate(1.275 1.275)" fill="#efb563"/><path d="M661.445,329.734H582.812a3.1,3.1,0,0,1-3.1-3.1V313.827a3.1,3.1,0,0,1,3.1-3.1h78.632a3.1,3.1,0,0,1,3.1,3.1v12.809A3.1,3.1,0,0,1,661.445,329.734ZM582.812,313.28a.547.547,0,0,0-.547.547v12.809a.547.547,0,0,0,.547.546h78.632a.547.547,0,0,0,.546-.546V313.827a.547.547,0,0,0-.546-.547Z" transform="translate(-579.715 -310.73)" fill="#7a2d18"/><g transform="translate(0 6.073)"><path d="M620.834,318.211H580.99a1.276,1.276,0,0,1,0-2.552h39.844a1.276,1.276,0,0,1,0,2.552Z" transform="translate(-579.715 -315.659)" fill="#7a2d18"/></g></g><g transform="translate(5.797 32.907)"><rect width="82.276" height="16.454" rx="5" transform="translate(83.552 17.729) rotate(180)" fill="#efb563"/><path d="M664.5,356.443H585.868a3.1,3.1,0,0,1-3.1-3.1v-12.81a3.1,3.1,0,0,1,3.1-3.1H664.5a3.1,3.1,0,0,1,3.1,3.1v12.81A3.1,3.1,0,0,1,664.5,356.443Zm-78.632-16.454a.547.547,0,0,0-.546.547v12.81a.547.547,0,0,0,.546.547H664.5a.547.547,0,0,0,.547-.547v-12.81a.547.547,0,0,0-.547-.547Z" transform="translate(-582.771 -337.439)" fill="#7a2d18"/><g transform="translate(41.658 5.655)"><path d="M657.7,344.581H617.859a1.276,1.276,0,1,1,0-2.552H657.7a1.276,1.276,0,0,1,0,2.552Z" transform="translate(-616.583 -342.029)" fill="#7a2d18"/></g></g><g transform="translate(0 49.36)"><rect width="82.276" height="16.454" rx="5" transform="translate(83.552 17.729) rotate(180)" fill="#efb563"/><path d="M659.8,369.8H581.163a3.1,3.1,0,0,1-3.1-3.1V353.891a3.1,3.1,0,0,1,3.1-3.1H659.8a3.1,3.1,0,0,1,3.1,3.1V366.7A3.1,3.1,0,0,1,659.8,369.8Zm-78.633-16.454a.547.547,0,0,0-.546.547V366.7a.547.547,0,0,0,.546.546H659.8a.547.547,0,0,0,.547-.546V353.891a.547.547,0,0,0-.547-.547Z" transform="translate(-578.066 -350.794)" fill="#7a2d18"/><g transform="translate(0.774 7.18)"><path d="M619.815,359.172H579.969a1.275,1.275,0,1,1,0-2.55h39.845a1.275,1.275,0,1,1,0,2.55Z" transform="translate(-578.694 -356.622)" fill="#7a2d18"/></g></g><g transform="translate(12.371 65.813)"><rect width="82.276" height="16.454" rx="5" transform="translate(83.552 17.73) rotate(180)" fill="#efb563"/><path d="M669.837,383.153H591.2a3.1,3.1,0,0,1-3.1-3.1V367.247a3.1,3.1,0,0,1,3.1-3.1h78.632a3.1,3.1,0,0,1,3.1,3.1v12.808A3.1,3.1,0,0,1,669.837,383.153ZM591.2,366.7a.547.547,0,0,0-.547.547v12.808a.547.547,0,0,0,.547.547h78.632a.548.548,0,0,0,.547-.547V367.247a.548.548,0,0,0-.547-.547Z" transform="translate(-588.107 -364.148)" fill="#7a2d18"/><g transform="translate(1.294 6.033)"><path d="M630.276,371.6H590.432a1.276,1.276,0,0,1,0-2.551h39.844a1.276,1.276,0,1,1,0,2.551Z" transform="translate(-589.157 -369.045)" fill="#7a2d18"/></g></g></g><g transform="translate(0 16.453)"><rect width="82.276" height="16.454" rx="5" transform="translate(1.276 1.276)" fill="#efb563"/><path d="M658.994,276.315H580.363a3.1,3.1,0,0,1-3.1-3.1V260.409a3.1,3.1,0,0,1,3.1-3.1h78.631a3.1,3.1,0,0,1,3.1,3.1v12.809A3.1,3.1,0,0,1,658.994,276.315Zm-78.631-16.454a.547.547,0,0,0-.547.547v12.809a.547.547,0,0,0,.547.546h78.631a.547.547,0,0,0,.547-.546V260.409a.547.547,0,0,0-.547-.547Z" transform="translate(-577.264 -257.31)" fill="#7a2d18"/><g transform="translate(0 6.074)"><path d="M618.385,264.792H578.54a1.276,1.276,0,1,1,0-2.552h39.844a1.276,1.276,0,0,1,0,2.552Z" transform="translate(-577.264 -262.24)" fill="#7a2d18"/></g></g><g transform="translate(16.725)"><rect width="82.276" height="16.454" rx="5" transform="translate(83.552 17.729) rotate(180)" fill="#efb563"/><path d="M672.569,262.96H593.938a3.1,3.1,0,0,1-3.1-3.1v-12.81a3.1,3.1,0,0,1,3.1-3.1h78.631a3.1,3.1,0,0,1,3.1,3.1v12.81A3.1,3.1,0,0,1,672.569,262.96Zm-78.631-16.454a.547.547,0,0,0-.547.547v12.81a.547.547,0,0,0,.547.546h78.631a.547.547,0,0,0,.547-.546v-12.81a.547.547,0,0,0-.547-.547Z" transform="translate(-590.839 -243.956)" fill="#7a2d18"/><g transform="translate(42.433 6.074)"><path d="M666.4,251.436H626.555a1.275,1.275,0,0,1,0-2.55H666.4a1.275,1.275,0,0,1,0,2.55Z" transform="translate(-625.28 -248.886)" fill="#7a2d18"/></g></g><g transform="translate(12.96 32.907)"><rect width="82.276" height="16.454" rx="5" transform="translate(1.275 1.276)" fill="#efb563"/><path d="M669.513,289.67H590.88a3.1,3.1,0,0,1-3.1-3.1V273.764a3.1,3.1,0,0,1,3.1-3.1h78.632a3.1,3.1,0,0,1,3.1,3.1v12.808A3.1,3.1,0,0,1,669.513,289.67ZM590.88,273.217a.547.547,0,0,0-.547.547v12.808a.547.547,0,0,0,.547.547h78.632a.547.547,0,0,0,.546-.547V273.764a.547.547,0,0,0-.546-.547Z" transform="translate(-587.783 -270.665)" fill="#7a2d18"/><g transform="translate(0.774 5.655)"><path d="M629.53,277.807H589.686a1.276,1.276,0,0,1,0-2.552H629.53a1.276,1.276,0,0,1,0,2.552Z" transform="translate(-588.411 -275.255)" fill="#7a2d18"/></g></g><g transform="translate(18.757 49.36)"><rect width="82.276" height="16.454" rx="5" transform="translate(1.275 1.276)" fill="#efb563"/><path d="M674.218,303.024H595.585a3.1,3.1,0,0,1-3.1-3.1v-12.81a3.1,3.1,0,0,1,3.1-3.1h78.633a3.1,3.1,0,0,1,3.1,3.1v12.81A3.1,3.1,0,0,1,674.218,303.024Zm-78.633-16.453a.547.547,0,0,0-.547.546v12.81a.547.547,0,0,0,.547.547h78.633a.547.547,0,0,0,.546-.547v-12.81a.547.547,0,0,0-.546-.546Z" transform="translate(-592.488 -284.02)" fill="#7a2d18"/><g transform="translate(41.658 7.18)"><path d="M667.421,292.4H627.575a1.275,1.275,0,0,1,0-2.55h39.845a1.275,1.275,0,0,1,0,2.55Z" transform="translate(-626.3 -289.848)" fill="#7a2d18"/></g></g><g transform="translate(6.386 65.814)"><rect width="82.276" height="16.454" rx="5" transform="translate(1.276 1.275)" fill="#efb563"/><path d="M664.177,316.379H585.544a3.1,3.1,0,0,1-3.1-3.1v-12.81a3.1,3.1,0,0,1,3.1-3.1h78.632a3.1,3.1,0,0,1,3.1,3.1v12.81A3.1,3.1,0,0,1,664.177,316.379Zm-78.632-16.454a.547.547,0,0,0-.546.547v12.81a.547.547,0,0,0,.546.547h78.632a.547.547,0,0,0,.547-.547v-12.81a.547.547,0,0,0-.547-.547Z" transform="translate(-582.447 -297.375)" fill="#7a2d18"/><g transform="translate(41.138 6.032)"><path d="M656.958,304.823H617.113a1.276,1.276,0,1,1,0-2.552h39.844a1.276,1.276,0,0,1,0,2.552Z" transform="translate(-615.837 -302.271)" fill="#7a2d18"/></g></g></g><g transform="translate(645.28 200.82)"><g transform="translate(8.475)"><g transform="translate(4.831 19.1)"><path d="M602.364,201.17l6.821,3.146,5.721-11.41-6.112-2.453Z" transform="translate(-602.364 -190.453)" fill="#e0917c"/><path d="M611.3,195.833a14.474,14.474,0,0,1-1.446-1.166c-.5,1.148-.346,4.74-.346,4.74Z" transform="translate(-600.712 -189.475)" fill="#d68778"/></g><path d="M620.941,198.22a17.122,17.122,0,0,1-2.432,3.2c-.747.7-2.241.425-3.506-.152a14.132,14.132,0,0,1-5.893-4.544,23.774,23.774,0,0,1-2.447-4.4,13.106,13.106,0,0,1,1.506-11.364c3.739-5.691,15-1.61,16.872,4.672a8.019,8.019,0,0,1-.365,3.506l-.044.145a11.393,11.393,0,0,1-2.428,4.249,1.061,1.061,0,0,0-.265,1.063,10.471,10.471,0,0,0,1.253,2.3C623.744,197.63,620.941,198.22,620.941,198.22Z" transform="translate(-596.691 -174.185)" fill="#e0917c"/><path d="M628.4,189c1.074.037,2.406-1.174,2.8-2.691a2.453,2.453,0,0,0-1.576-2.761c1.263-2.167-.949-4.113-2.807-4.044a2.915,2.915,0,0,0-2.382-2.245,3.753,3.753,0,0,0-3.325.648,1.8,1.8,0,0,0-1.86-1.262,1.992,1.992,0,0,1-.572.034c-.361-.068-.582-.42-.828-.692a2.726,2.726,0,0,0-3.584-.3,3.178,3.178,0,0,0-4.223.133c-.648-.419-3.219.441-3.581,2.453a3.892,3.892,0,0,0-3.017.807,3.427,3.427,0,0,0-1.244,2.834,1.7,1.7,0,0,0-1.291.955c-.26.494-.556,1.435-.059,2-1.709.541-2.368,3.127-1.341,4.6a3.073,3.073,0,0,0,2.931,5.269,3.409,3.409,0,0,0,3.94.869,2.317,2.317,0,0,0,2.256.25c1-.2,2.3-.743,2.623-1.552a2.914,2.914,0,0,1,.1-5.107c1.725-.759,2.681,1.6,2.485,2.352l1.215-.165a4.02,4.02,0,0,1,.51-1.105c.692-.516,1.705-.673,2.053-.975-1.408-1.288,1.315-.972,1.552-1.253a1.491,1.491,0,0,1,1.589-.455c2.178.68,4.9.255,5.446-.553a6.635,6.635,0,0,1-.877,5.375,1.189,1.189,0,0,0,2.083-1.12C628.218,191.671,629.531,189.956,628.4,189Z" transform="translate(-598.443 -174.95)" fill="#2d2d2d"/><g transform="translate(20.445 15.363)"><path d="M620.782,188.007a3.06,3.06,0,0,0-1.721-.585,3.675,3.675,0,0,0-.893.085,3.351,3.351,0,0,0-.819.326l.02.046a3.185,3.185,0,0,1,.833-.124,3.3,3.3,0,0,1,.818.064c.27.052,1.326.315,1.637.331Z" transform="translate(-614.501 -187.42)" fill="#2c1c28"/><path d="M617.524,194.571l-.335-.164-1.587-.77s-1.072,1.817-.264,2.342S617.524,194.571,617.524,194.571Z" transform="translate(-615.037 -185.977)" fill="#f17762"/><g transform="translate(2.991 2.301)"><path d="M618.729,190.5c-.3.426-.77.612-1.056.413s-.276-.706.021-1.132.769-.612,1.055-.414S619.026,190.073,618.729,190.5Z" transform="translate(-617.465 -189.287)" fill="#2c1c28"/></g></g></g><g transform="translate(0.84 64.65)"><g transform="translate(6.964 3.829)"><g transform="translate(41.246 40.14)"><g transform="translate(0.925)"><path d="M634.436,263.112l8.2,1.1s-3.574,21.144-.94,23.353c.232.691,8.032,5.8,7.246,6.344s-16.673-4.29-16.812-4.851c-.032-.128,2.4-9.064,2.426-9.189Z" transform="translate(-632.127 -263.112)" fill="#e0917c"/></g><path d="M641.091,280.375s2.991,3.625,3.368,4.21c.344.535,2.989,1.764,4.862,2.633,2.744,1.274,3.051,2.739,3.21,3.294h0a.26.26,0,0,1,.187.315l-.1.537s-8.322-1.035-11.6-1.963c0,0-2.389-2.421-2.885-.551l-6.754-1.135.4-2.071.346,0a16.536,16.536,0,0,1,1-5.139l.344-.042s-.384.949,2.021,1.586,3.736.58,4.03.161.19-.241.19-.241A1.772,1.772,0,0,1,641.091,280.375Z" transform="translate(-631.376 -259.106)" fill="#27627e"/></g><path d="M639.941,246.376l-38.867,1.837L597.9,230.532l48.425,3.722c4.647.25,7.349,2.539,7.1,5.633,0,0-4.207,48.663-4.285,50.576l-2.08.988-5.7-1.074-2.372-28.723a57.161,57.161,0,0,1,.961-15.279Z" transform="translate(-597.898 -230.532)" fill="#161f28"/></g><g transform="translate(69.549 48.16)"><path d="M656.893,266.514,658.568,271c1.27,3.408,3.72,12.975,5.994,15.212.626.365-4.2,5.5-4.673,5.168-.107-.075-3.986-9.883-4.045-9.994l-2.8-5.9q-1.2-2.547-2.6-5l-1.757-3.235Z" transform="translate(-648.696 -266.514)" fill="#e0917c"/><path d="M663.753,282.272s2.2,4.143,2.452,4.79c.23.593,2.575,2.32,4.235,3.543,2.433,1.791,2.438,3.286,2.481,3.861h0a.26.26,0,0,1,.121.346l-.211.505s-7.95-2.662-10.974-4.221c0,0-1.854-2.845-2.718-1.111l-6.392-2.449.812-1.949.34.073a16.491,16.491,0,0,1,2.022-4.833l.092.007a4.041,4.041,0,0,0,1.913,1.972c2.128,1.288,3.545,1.31,3.918.957s.234-.2.234-.2A1.783,1.783,0,0,1,663.753,282.272Z" transform="translate(-647.756 -263.193)" fill="#27627e"/></g><path d="M592.27,242.646c.015-5.32-.28-7.322.865-15.222l19.309.525.11,4.406L652,237.476c.419.033,3.966.573,4.747,2.654,0,0,18.516,49.254,19.545,51.757l-2.71,1.326-4.812-.839-15.1-26.263a42.728,42.728,0,0,1-4.735-12.324l-.913-4.248s-36.993,2.384-47.2,1.255C594.509,250.1,592.279,245.046,592.27,242.646Z" transform="translate(-592.246 -227.424)" fill="#2c3e50"/><path d="M612.356,227.764l.061,2.564-19.8.022.434-2.926Z" transform="translate(-592.16 -227.424)" fill="#202a46"/></g><g transform="translate(37.829 43.373)"><g transform="translate(0)"><path d="M636.309,237.234l13.979.074,12.274-27.153-14.482,3.068Z" transform="translate(-619.011 -210.155)" fill="#f7f8fc"/><path d="M1.11,0H30.171a1.11,1.11,0,0,1,1.11,1.11v.41a0,0,0,0,1,0,0H0a0,0,0,0,1,0,0V1.11A1.11,1.11,0,0,1,1.11,0Z" transform="translate(31.281 28.598) rotate(-180)" fill="#3d4393"/><g transform="translate(31.281)"><path d="M649.1,237.016l11.621-25.639a.786.786,0,0,0-.389-1.04h0L648.059,237.4h0A.785.785,0,0,0,649.1,237.016Z" transform="translate(-647.565 -210.112)" fill="#3d4393"/><path d="M647.658,237.223l12.271-27.068.495.225-12.271,27.068Z" transform="translate(-647.658 -210.155)" fill="#d1d4fc"/></g></g><g transform="translate(18.689)"><g transform="translate(7.104 0.523)"><path d="M645.091,215.078l11.889-2.274L658,210.579l-11.944,2.529Z" transform="translate(-642.766 -210.579)" fill="#8d98ec"/><path d="M644.627,215.835l11.872-2.163.588-1.287L645.2,214.659Z" transform="translate(-642.874 -210.16)" fill="#bebedb"/><g transform="translate(0 4.634)"><path d="M643.2,218.976l11.828-1.821,1.285-2.815-11.86,2.066Z" transform="translate(-643.204 -214.34)" fill="#8d98ec"/><path d="M645.633,217.578l8.748-1.4.51-1.114-8.757,1.476Z" transform="translate(-642.641 -214.173)" fill="#f4f9f8"/><path d="M644.407,217.519l.76-.122.5-1.036-.762.128Z" transform="translate(-642.925 -213.871)" fill="#f4f9f8"/></g></g><g transform="translate(0 9.715)"><path d="M643.185,224.061l2.88-.292,2.391-5.066-2.9.409Z" transform="translate(-636.104 -217.887)" fill="#cbcbe2"/><g transform="translate(4.513 1.272)"><path d="M644.1,219.078l.01,0c.359-.051.346.578.027,1.552l-1.63,1.749Z" transform="translate(-640.775 -219.073)" fill="#e5e5f1"/><path d="M644.138,220.335a12.838,12.838,0,0,1-.615,1.5,15.365,15.365,0,0,1-.972,1.731l-.043-1.477Z" transform="translate(-640.775 -218.78)" fill="#e5e5f1"/><path d="M642.473,220.881c.637-1.016,1.274-1.741,1.636-1.8l-1.593,3.3Z" transform="translate(-640.783 -219.072)" fill="#e5e5f1"/><path d="M642.754,220.541l.043,1.5-1.533,1.646a12.108,12.108,0,0,1,.683-1.682A16.089,16.089,0,0,1,642.754,220.541Z" transform="translate(-641.063 -218.732)" fill="#d8d8e9"/><path d="M642.768,223.533c-.607.929-1.194,1.565-1.525,1.594h0l1.486-3.076Z" transform="translate(-641.069 -218.382)" fill="#cbcbe2"/><path d="M641.352,224.825c-.328.028-.324-.545-.051-1.424l1.533-1.646Z" transform="translate(-641.101 -218.45)" fill="#cbcbe2"/></g><g transform="translate(9.053)"><path d="M648.816,218.839l2.12-.3.232-.5-2.121.3Z" transform="translate(-643.851 -218.04)" fill="#cbcbe2"/><path d="M648.849,220.129l2.708-.343.248-.541-2.709.354Z" transform="translate(-643.844 -217.761)" fill="#cbcbe2"/><path d="M647.865,221.056l3.028-.358.149-.324-3.029.365Z" transform="translate(-644.072 -217.499)" fill="#cbcbe2"/><path d="M647.653,221.517l3.4-.387.149-.326-3.4.4Z" transform="translate(-644.121 -217.399)" fill="#cbcbe2"/><path d="M647.44,221.971l3.4-.372.15-.327-3.4.38Z" transform="translate(-644.17 -217.29)" fill="#cbcbe2"/><path d="M647.592,222.378l2.945-.309.15-.328-2.946.317Z" transform="translate(-644.135 -217.182)" fill="#cbcbe2"/><path d="M647.011,222.875l3.021-.3.151-.328-3.022.311Z" transform="translate(-644.27 -217.065)" fill="#cbcbe2"/><path d="M646.8,223.34l3.392-.326.151-.33-3.393.334Z" transform="translate(-644.32 -216.963)" fill="#cbcbe2"/><path d="M646.581,223.8l3.39-.31.152-.332-3.391.319Z" transform="translate(-644.37 -216.853)" fill="#cbcbe2"/><path d="M646.364,224.261l3.388-.295.152-.333-3.389.3Z" transform="translate(-644.42 -216.742)" fill="#cbcbe2"/><path d="M646.147,224.723l3.386-.279.153-.334-3.387.288Z" transform="translate(-644.47 -216.632)" fill="#cbcbe2"/><path d="M645.929,225.187l3.384-.263.153-.335-3.385.272Z" transform="translate(-644.521 -216.521)" fill="#cbcbe2"/><path d="M646.456,225.585l2.464-.18.154-.336-2.465.187Z" transform="translate(-644.399 -216.409)" fill="#cbcbe2"/><path d="M645.491,226.09l1.243-.085.154-.331-1.244.088Z" transform="translate(-644.622 -216.269)" fill="#cbcbe2"/><path d="M645.348,226.551l.929-.059.154-.332-.929.061Z" transform="translate(-644.656 -216.156)" fill="#cbcbe2"/><path d="M644.834,227.963l3.033-.155c.1,0,.292-.266.438-.584h0c.145-.317.185-.568.089-.562l-3.038.182c-.091,0-.281.26-.425.568h0C644.786,227.72,644.743,227.968,644.834,227.963Z" transform="translate(-644.786 -216.04)" fill="#cbcbe2"/></g><g transform="translate(0 8.398)"><g transform="translate(2.723)"><path d="M641.7,231.316l.265-.006,1.907-4.043-.267.015Z" transform="translate(-639.171 -224.298)" fill="#d8d8e9"/><path d="M641.44,231.117l.264-.006,1.4-2.96-.265.013Z" transform="translate(-639.232 -224.092)" fill="#d8d8e9"/><path d="M641.442,231.469l2.287-4.824-.263.015-2.285,4.813Z" transform="translate(-639.292 -224.442)" fill="#d8d8e9"/><path d="M640.921,231.217l.261-.006,1.627-3.429-.262.014Z" transform="translate(-639.353 -224.178)" fill="#d8d8e9"/><path d="M640.663,231.632l.26-.006,2.661-5.6-.261.018Z" transform="translate(-639.412 -224.585)" fill="#d8d8e9"/><path d="M640.407,231.4l.258-.006,2.078-4.364-.26.016Z" transform="translate(-639.472 -224.352)" fill="#d8d8e9"/><path d="M640.153,231.683l.256-.006,2.771-5.811-.259.019Z" transform="translate(-639.531 -224.623)" fill="#d8d8e9"/><path d="M639.9,231.924l.255-.006,3.373-7.061-.258.021Z" transform="translate(-639.589 -224.857)" fill="#d8d8e9"/><path d="M639.648,231.751l.254-.006,2.925-6.113-.256.019Z" transform="translate(-639.648 -224.677)" fill="#d8d8e9"/></g><g transform="translate(0 0.078)"><path d="M637.438,231.561l.241-.005,2.354-4.844-.243.016Z" transform="translate(-637.438 -224.505)" fill="#d8d8e9"/><path d="M637.678,231.267l.243-.005,1.606-3.31-.244.013Z" transform="translate(-637.382 -224.217)" fill="#d8d8e9"/><path d="M637.919,231.369l.244-.005,1.879-3.88-.246.014Z" transform="translate(-637.326 -224.326)" fill="#d8d8e9"/><path d="M638.161,231.1l.245-.005,1.188-2.457-.246.011Z" transform="translate(-637.27 -224.059)" fill="#d8d8e9"/><path d="M638.4,231.549l.247-.005,2.363-4.9-.249.016Z" transform="translate(-637.214 -224.52)" fill="#d8d8e9"/><path d="M638.649,231.428l.248-.005,2.063-4.281-.25.015Z" transform="translate(-637.157 -224.405)" fill="#d8d8e9"/><path d="M638.9,231.7l.249-.005,2.758-5.733-.252.018Z" transform="translate(-637.1 -224.68)" fill="#d8d8e9"/><path d="M639.143,231.93l.251-.005,3.363-7-.254.021Z" transform="translate(-637.042 -224.92)" fill="#d8d8e9"/><path d="M639.392,231.5l.252-.006,2.268-4.732-.254.016Z" transform="translate(-636.985 -224.494)" fill="#d8d8e9"/></g></g></g><path d="M648.189,237.241l12.19-27.086-2.528.523-12.137,26.575Z" transform="translate(-635.518 -210.155)" fill="#8d98ec"/><path d="M654.508,214.683l1.078-.189,1.31-2.9-1.08.211Z" transform="translate(-633.477 -209.821)" fill="#fdf3fd"/><g transform="translate(18.754 5.568)"><path d="M654.742,215.865l.306-.049.514-1.141-.306.052Z" transform="translate(-652.176 -214.674)" fill="#fffeff"/><path d="M653.328,216.133l1.69-.271.514-1.138-1.691.285Z" transform="translate(-652.504 -214.663)" fill="#fffeff"/><path d="M653.017,216.658l2.046-.316.115-.256-2.046.32Z" transform="translate(-652.577 -214.347)" fill="#fffeff"/><path d="M652.66,217.439l2.044-.3.116-.257-2.045.305Z" transform="translate(-652.66 -214.162)" fill="#fffeff"/></g><g transform="translate(18.719 9.241)"><path d="M653.9,217.842c-.044.1-.054.176-.021.171s.095-.089.14-.187.053-.175.021-.171S653.949,217.744,653.9,217.842Z" transform="translate(-652.346 -217.655)" fill="#fffeff"/><path d="M653.781,217.86c-.046.1-.054.175-.022.17s.1-.087.14-.187.054-.175.021-.17S653.825,217.762,653.781,217.86Z" transform="translate(-652.375 -217.651)" fill="#fffeff"/><path d="M653.656,217.878c-.044.1-.054.175-.021.17s.095-.089.139-.187.054-.175.022-.17S653.7,217.78,653.656,217.878Z" transform="translate(-652.404 -217.647)" fill="#fffeff"/><path d="M653.532,217.9c-.044.1-.054.175-.021.17s.095-.087.139-.186.054-.175.022-.17S653.577,217.8,653.532,217.9Z" transform="translate(-652.432 -217.642)" fill="#fffeff"/><path d="M653.409,217.912c-.044.1-.054.175-.022.171s.095-.089.139-.187.054-.175.022-.17S653.453,217.815,653.409,217.912Z" transform="translate(-652.461 -217.638)" fill="#fffeff"/><path d="M653.285,217.93c-.044.1-.054.174-.021.17s.095-.089.139-.187.054-.174.022-.169S653.33,217.832,653.285,217.93Z" transform="translate(-652.49 -217.634)" fill="#fffeff"/><path d="M653.162,217.947c-.044.1-.054.175-.021.17s.094-.087.139-.186.054-.174.021-.17S653.206,217.85,653.162,217.947Z" transform="translate(-652.518 -217.63)" fill="#fffeff"/><path d="M653.04,217.965c-.046.1-.055.174-.022.169s.094-.087.139-.186.054-.174.021-.169S653.084,217.867,653.04,217.965Z" transform="translate(-652.547 -217.626)" fill="#fffeff"/><path d="M652.917,217.982c-.044.1-.054.174-.022.169s.095-.087.139-.185.054-.174.022-.17S652.961,217.883,652.917,217.982Z" transform="translate(-652.575 -217.622)" fill="#fffeff"/><path d="M652.795,218c-.044.1-.054.174-.022.169s.094-.087.138-.185.055-.174.023-.169S652.839,217.9,652.795,218Z" transform="translate(-652.603 -217.618)" fill="#fffeff"/><path d="M652.673,218.016c-.044.1-.054.174-.022.169s.094-.087.138-.185.055-.174.022-.169S652.717,217.918,652.673,218.016Z" transform="translate(-652.632 -217.614)" fill="#fffeff"/></g><g transform="translate(18.409 9.93)"><path d="M653.653,218.4c-.046.1-.055.176-.022.172s.1-.089.14-.188.054-.176.022-.171S653.7,218.3,653.653,218.4Z" transform="translate(-652.094 -218.215)" fill="#fffeff"/><path d="M653.528,218.419c-.044.1-.054.176-.022.171s.1-.087.141-.187.055-.176.022-.171S653.572,218.321,653.528,218.419Z" transform="translate(-652.123 -218.211)" fill="#fffeff"/><path d="M653.4,218.436c-.044.1-.054.176-.022.171s.1-.089.141-.187.054-.176.022-.171S653.448,218.338,653.4,218.436Z" transform="translate(-652.152 -218.207)" fill="#fffeff"/><path d="M653.28,218.453c-.044.1-.054.175-.022.171s.1-.089.14-.187.054-.176.022-.171S653.324,218.355,653.28,218.453Z" transform="translate(-652.18 -218.203)" fill="#fffeff"/><path d="M653.157,218.47c-.046.1-.055.175-.022.171s.095-.089.139-.187.054-.176.022-.171S653.2,218.372,653.157,218.47Z" transform="translate(-652.209 -218.199)" fill="#fffeff"/><path d="M653.033,218.487c-.044.1-.054.175-.022.17s.095-.087.14-.186.054-.176.022-.171S653.078,218.388,653.033,218.487Z" transform="translate(-652.238 -218.195)" fill="#fffeff"/><path d="M652.91,218.5c-.044.1-.054.175-.022.171s.095-.089.139-.187.055-.175.022-.17S652.955,218.4,652.91,218.5Z" transform="translate(-652.266 -218.191)" fill="#fffeff"/><path d="M652.788,218.52c-.046.1-.056.175-.023.17s.095-.087.14-.186.054-.175.022-.17S652.832,218.422,652.788,218.52Z" transform="translate(-652.295 -218.187)" fill="#fffeff"/><path d="M652.665,218.537c-.044.1-.054.174-.022.17s.095-.087.139-.186.054-.175.022-.17S652.709,218.438,652.665,218.537Z" transform="translate(-652.323 -218.183)" fill="#fffeff"/><path d="M652.543,218.553c-.044.1-.054.175-.022.17s.094-.087.139-.186.054-.174.022-.17S652.587,218.456,652.543,218.553Z" transform="translate(-652.351 -218.18)" fill="#fffeff"/><path d="M652.421,218.57c-.044.1-.054.174-.022.17s.094-.087.138-.186.055-.174.023-.17S652.465,218.471,652.421,218.57Z" transform="translate(-652.38 -218.176)" fill="#fffeff"/></g><path d="M651.213,221.216l1.572-.18c.124-.014.366-.336.54-.721h0c.171-.382.209-.679.085-.663l-1.573.2c-.122.015-.358.331-.531.708h0C651.133,220.935,651.091,221.23,651.213,221.216Z" transform="translate(-634.258 -207.951)" fill="#f4f9f8"/></g></g><g transform="translate(0 22.937)"><path d="M603.533,195.635l8.678,6.565,1.455-3.616-8.978-5.017Z" transform="translate(-588.786 -193.567)" fill="#4154e0"/><g transform="translate(14.747 5.917)"><path d="M614.247,217.687l13.421,11.257a.721.721,0,0,1,.2.186h0l7.454,1.1,6.54,4-.792.49-7.142-.981-5.734.389c-.62.019-2.437-1.313-3.134-2.606l-15.216-9.365Z" transform="translate(-602.069 -193.887)" fill="#d68778"/><path d="M618.9,221.69l-2.98-2.5-3.228,4.961,7.489,4.609Z" transform="translate(-601.407 -193.538)" opacity="0.05"/><path d="M606.633,198.413c3.706-.487,5.991,3.187,6,6.585.015,7.042,1.014,15.329,1.014,15.329l4.779,3.614-3.877,5.428-7.317-4.621s-2.883-13.592-3.57-18.06C603.1,203.064,604.437,198.7,606.633,198.413Z" transform="translate(-603.533 -198.37)" fill="#6776e6"/><path d="M614.3,226.593l-3.109-1.8,4.363-7.38,2.794,2.333Z" transform="translate(-601.757 -193.951)" fill="#fff"/></g><g transform="translate(0 1.707)"><path d="M616.765,215.537c-.617,3.325-1.81,10.752-2.669,16.279-.394,2.506-.727,4.629-.909,5.791a2.663,2.663,0,0,1-1.03,1.688c-2.991,2.263-6.62,2.829-10.612,2.516a53.361,53.361,0,0,1-8.691-1.6,1.725,1.725,0,0,1-1.29-1.663c-.043-3.108.971-7.515,2.73-12.348l2.269-16.742A18.446,18.446,0,0,1,602.5,197.51a11.684,11.684,0,0,1,3.811-2.5c1.506-.575,5.921,3.021,8.68,6.568C616.109,203.017,617.685,210.556,616.765,215.537Z" transform="translate(-591.564 -194.953)" fill="#27627e"/></g><g transform="translate(6.901 7.59)" opacity="0.3"><path d="M614.076,222.586c-.02.274-1.258,7.859-1.279,8.122-.394,2.506-.727,4.629-.909,5.791a2.663,2.663,0,0,1-1.03,1.688c-2.991,2.263-6.62,2.829-10.612,2.516,2.446-1.9,7.125-5.942,7.812-6.669.464-.5,1.494-2.415.909-2.739l-6.71-2.142c-1.738-.657-2.092-2.092-2.467-3.911l-2.627-12.975c.445-4.639-.02-9.165,3.436-12.288.8-.726,8.369-.294,8.722,7.136C609.663,214.28,610.433,219.465,614.076,222.586Z" transform="translate(-597.165 -199.728)" fill="#121db4"/></g><path d="M603.533,195.339l8.678,6.565.627-3.965-8.15-4.372Z" transform="translate(-588.786 -193.567)" fill="#fff"/><g transform="translate(8.397 5.917)"><path d="M610.919,218.5,625.2,229.756a.743.743,0,0,1,.211.186h0l7.93,1.1,6.957,4-.843.489-7.6-.981-6.1.389c-.66.019-2.593-1.313-3.335-2.606l-16.187-9.365Z" transform="translate(-596.557 -193.699)" fill="#e0917c"/><path d="M614.732,221.69l-3.17-2.5-3.434,4.961,7.967,4.609Z" transform="translate(-596.118 -193.538)" opacity="0.05"/><path d="M601.677,198.413c3.942-.487,6.373,3.187,6.382,6.585a85.288,85.288,0,0,0,1.731,15.037l4.432,3.906-4.125,5.428-3.115-1.849a12.551,12.551,0,0,1-5.853-8.107c-.948-4.317-2.184-10.1-2.614-12.726C597.922,203.064,599.341,198.7,601.677,198.413Z" transform="translate(-598.38 -198.37)" fill="#8d98ec"/><path d="M609.832,226.593l-3.307-1.8,4.641-7.38,2.973,2.333Z" transform="translate(-596.49 -193.951)" fill="#fff"/></g></g></g><g transform="translate(1014.851 368.417)"><g transform="translate(0 15.77)"><path d="M968.075,367.412c-2.7,4.687-4.459,13.81-4.05,19.092.064.819.133,1.551.211,2.124a1.37,1.37,0,0,1-1.294,1.5l-9.155-.07a1.414,1.414,0,0,1-1.4-.732c-.873-1.69-1.953-7.088-3.186-6.754a40.071,40.071,0,0,1-10.816,1.039c-3.087-.042-6.187-.32-9.083-.562-1.432-.118-3.441,3.86-4.227,5.547a1.438,1.438,0,0,1-1.2.806l-7.167.556a1.361,1.361,0,0,1-1.521-1.4c.217-2.855.522-8.747-.555-9.259-7.045-3.347-11.346-6.612-13.679-14.173-.462-1.5-6.313-4.432-6.313-4.432a1.371,1.371,0,0,1-1.519-1.287l-1.6-9.712c-.014-.708.627-1.063,1.326-1.36,1.677-.715,3.452-1.605,5.075-2.364,1.443-.675,2.614-1.252,3.028-2.577,1.419-4.554,2.95-6.164,6.462-9.357,1.429-1.295-2.93-7.178-1.227-8.237,2.143-1.329,9.918,1.836,12.9,1.264a2.336,2.336,0,0,0,.374-.1,53.541,53.541,0,0,1,14.38-3c8.823-.663,17.07.617,23.734,3.808,8.9,4.259,14.977,11.932,15.8,22.941C973.794,356.14,970.777,362.718,968.075,367.412Z" transform="translate(-891.531 -323.782)" stroke="#7a2d18" stroke-miterlimit="10" stroke-width="1" fill="url(#a)"/></g><g transform="translate(27.561 16.729)"><path d="M952.391,328.538a1.428,1.428,0,0,1-1.189.83,1.4,1.4,0,0,1-.668-.113c-.191-.081-.385-.163-.579-.241l-.234-.094c-.646-.259-1.3-.5-1.982-.726-.072-.023-.144-.048-.216-.069a42.044,42.044,0,0,0-7.3-1.661l-.127-.017a52.33,52.33,0,0,0-8.042-.451q-1.625.03-3.291.153c-.073.007-.144.011-.217.017a54.566,54.566,0,0,0-9.058,1.456c-.068.016-.133.033-.2.051q-1.038.264-2.045.569l-.214.067c-.445.136-.883.276-1.317.425a1.422,1.422,0,0,1-1.806-.887l-.005-.014a2.321,2.321,0,0,0,.375-.1q1.268-.466,2.589-.862c.042-.014.084-.025.126-.037q1.07-.322,2.175-.6c.031-.009.06-.015.094-.021a55.039,55.039,0,0,1,7.921-1.354c.488-.05.981-.094,1.474-.132h0a56.384,56.384,0,0,1,9.822.092c.361.036.722.075,1.079.118a43.837,43.837,0,0,1,8.247,1.785c.037.011.074.021.111.034q1.081.349,2.118.758c.048.02.1.037.145.057Q951.309,328.022,952.391,328.538Z" transform="translate(-913.901 -324.56)" fill="#7a2d18"/></g><g transform="translate(30.496)"><path d="M949.743,327.713a16.8,16.8,0,0,1-.261,2.956c-.085.476-.188.941-.313,1.4-.645-.259-1.3-.5-1.982-.726-.072-.023-.144-.048-.216-.069a42.052,42.052,0,0,0-7.3-1.661l-.127-.017a52.333,52.333,0,0,0-8.042-.451q-1.624.03-3.291.153c-.073.007-.144.011-.217.017a54.565,54.565,0,0,0-9.058,1.456c-.068.016-.133.033-.2.051q-1.039.264-2.045.569-.159-.693-.254-1.409a16.73,16.73,0,1,1,33.306-2.271Z" transform="translate(-916.283 -310.982)" fill="#daddfd" stroke="#7a2d18" stroke-miterlimit="10" stroke-width="1"/><path d="M946.976,327.275a14.415,14.415,0,0,1-.161,2.163,13.746,13.746,0,0,1-.282,1.4,42.048,42.048,0,0,0-7.3-1.661l-.127-.017a52.332,52.332,0,0,0-8.042-.451q-1.625.03-3.291.153c-.073.007-.144.011-.217.017a54.568,54.568,0,0,0-9.058,1.456c-.1-.46-.176-.93-.232-1.407a14.651,14.651,0,0,1-.094-1.653,14.4,14.4,0,1,1,28.8,0Z" transform="translate(-915.844 -310.544)" fill="#a3a9f9"/><path d="M937.123,327.261a3.368,3.368,0,0,0-.5-.521,11.019,11.019,0,0,0-4.433-1.767c-.138-.031-.26-.062-.389-.09v-2.89a2.5,2.5,0,0,1,.9.364,2.128,2.128,0,0,1,.494.474,1.618,1.618,0,0,0,1.568.658l.552-.1a1.56,1.56,0,0,0,.86-2.589,4.689,4.689,0,0,0-.88-.76,7.181,7.181,0,0,0-3.493-.964v-3.564a.947.947,0,0,0-1.895,0v3.547a6.526,6.526,0,0,0-3.972,1.307,4.16,4.16,0,0,0-1.541,3.281,3.864,3.864,0,0,0,1.78,3.378c.015.009.028.02.043.028a13.333,13.333,0,0,0,3.4,1.267,52.329,52.329,0,0,1,8.042.451l.127.017A3.541,3.541,0,0,0,937.123,327.261Zm-8.586-4.933a3.167,3.167,0,0,1,1.37-.391V324.4a5.549,5.549,0,0,1-1.428-.543.877.877,0,0,1-.4-.722A.939.939,0,0,1,928.537,322.328Z" transform="translate(-914.401 -310.151)" fill="#e3e5fd"/></g></g><g transform="translate(836.555 263.715)"><g transform="translate(38.565 80.02)"><g transform="translate(5.109 0.647)"><path d="M783.8,302.341s-4.991,31.7,3.027,88.952h7.767s8.145-37.723,14.905-52.269,15.907-29.007,14.94-42.707S783.8,302.341,783.8,302.341Z" transform="translate(-782.263 -291.474)" fill="#2d2d2d"/></g><g transform="translate(6.643 11.513)"><path d="M783.509,300.294s1.491,13.451,10.812,17.083l-3.627-15.4Z" transform="translate(-783.509 -300.294)" fill="#474543"/></g><g transform="translate(6.64 10.766)"><path d="M786.326,309.615s-1.228-4.149,2.59-2.994S791.789,304,791.789,304l-8.279-4.307S783.279,306.2,786.326,309.615Z" transform="translate(-783.506 -299.688)" fill="#2d2d2d"/></g><g transform="translate(12.581)"><path d="M788.328,301.722s5.473,39.828,29.352,89.693h7.767s-3.962-31,.324-57.393c2.529-15.575,3.6-33.26,1.977-38.506C823.685,282.4,788.328,301.722,788.328,301.722Z" transform="translate(-788.328 -290.95)" fill="#474543"/></g><g transform="translate(0 100.465)"><g transform="translate(0 1.897)"><path d="M778.526,379.157a.407.407,0,0,1-.378-.562c.569-1.392,2.655-4.869,9.2-4.541,8.166.408,8.676,2.54,8.676,2.54v2.155a.409.409,0,0,1-.409.408Z" transform="translate(-778.117 -374.032)" fill="#7a2d18"/></g><g transform="translate(9.671)"><path d="M786.534,378.426l-.568-5.933h7.767a17.131,17.131,0,0,1,.469,6.614Z" transform="translate(-785.966 -372.493)" fill="#7a2d18"/></g></g><g transform="translate(32.263 100.465)"><g transform="translate(0 1.897)"><path d="M804.712,379.157a.408.408,0,0,1-.378-.562c.569-1.392,2.655-4.869,9.2-4.541,8.166.408,8.676,2.54,8.676,2.54v2.155a.407.407,0,0,1-.408.408Z" transform="translate(-804.303 -374.032)" fill="#7a2d18"/></g><g transform="translate(9.67)"><path d="M812.72,378.426l-.568-5.933h7.767a17.131,17.131,0,0,1,.469,6.614Z" transform="translate(-812.152 -372.493)" fill="#7a2d18"/></g></g></g><g transform="translate(0 21.978)"><g transform="translate(6.891 11.587)"><path d="M797.192,253.243c-1.779,1.77-3.535,3.57-5.3,5.354l-5.262,5.4-2.62,2.714a.252.252,0,0,0-.042.047l-.018.025-.036.053c-.022.037-.043.076-.064.117a2.031,2.031,0,0,0-.159.206c-.064.053-.115.136-.182.193s-.128.137-.207.179a3.208,3.208,0,0,1-2.364.6c-.107-.028-.23-.03-.342-.062s-.238-.046-.345-.1c-.057-.023-.115-.044-.174-.064a.655.655,0,0,1-.1-.037l-.2-.124-.8-.5-3.208-1.99c-2.14-1.326-4.275-2.657-6.429-3.965l-6.45-3.936c-2.161-1.3-4.312-2.609-6.484-3.893l-3.992,5.186c1.8,1.772,3.613,3.516,5.42,5.274l5.456,5.229c1.815,1.747,3.648,3.471,5.476,5.2l2.744,2.593.686.648.171.163.283.234.6.476c.4.322.834.586,1.26.872s.892.511,1.347.758a16.924,16.924,0,0,0,12.308,1.025c.521-.137,1.02-.345,1.53-.53s.991-.441,1.482-.675c.48-.253.949-.533,1.418-.814l.673-.464.639-.458,3.069-2.192,6.118-4.408c2.026-1.486,4.065-2.956,6.078-4.455Z" transform="translate(-752.408 -253.243)" fill="#fdc0ad"/></g><g transform="translate(1.114 5.674)"><path d="M760.951,257.476s-.063-8.3-2.156-7.359-1.945,2.389-1.945,2.389-3.421-5.1-6.59-3.874-3.27,4.17-.877,7.163a43.826,43.826,0,0,0,7,6.748Z" transform="translate(-747.719 -248.443)" fill="#e0917c"/></g><g transform="translate(8.501 14.099)"><path d="M761.963,256.486l-1.828-1.2-6.42,5.313,1.93,1.193Z" transform="translate(-753.715 -255.282)" fill="#fffcfa"/></g><g transform="translate(9.71 6.412)"><path d="M761.257,257.337s18.5,10.757,20.251,10.352,8.425-7.82,8.425-7.82,4.568-6.854,10.6-9.249c6.133-2.435,10.72-1.828,12.6.308s5.72,12.043-10.517,22.268l-5.258-5.525,1.623,5.708s-3.5,7.27-10.159,9.149-12.715.447-15.773-2.075S754.7,263.285,754.7,263.285Z" transform="translate(-754.696 -249.043)" fill="#2d2d2d"/></g><g transform="translate(0 0.678)"><path d="M754.051,244.414l-6.352,1.209a1.039,1.039,0,0,0-.752,1.547l5.354,12.614a.707.707,0,0,0,.832.408l6.653-1.763c1.156-.326,1.165-1.078,1-1.475l-5.9-12.133A.708.708,0,0,0,754.051,244.414Z" transform="translate(-746.815 -244.389)" fill="#515a66"/></g><g transform="translate(0.556)"><path d="M754.427,243.863l-6.637,1.8a.707.707,0,0,0-.467.96l5.354,12.612a.708.708,0,0,0,.833.408l6.652-1.763a.709.709,0,0,0,.471-.961l-5.369-12.647A.709.709,0,0,0,754.427,243.863Z" transform="translate(-747.266 -243.838)" fill="#6a7589"/></g><g transform="translate(1.324 0.988)"><path d="M754.7,244.64l-6.805,1.916,4.663,10.984,6.819-1.884Z" transform="translate(-747.89 -244.64)" fill="#edf2f9"/></g><g transform="translate(9.526 13.247)"><path d="M754.614,255.431a.527.527,0,1,0,.21-.809A.6.6,0,0,0,754.614,255.431Z" transform="translate(-754.547 -254.59)" fill="#edf2f9"/></g><g transform="translate(1.73 6.331)"><path d="M748.219,249.869s1.068-1.271,1.833-.779,2.424,4.839,1.949,6.324-.987,1.789-.987,1.789Z" transform="translate(-748.219 -248.977)" fill="#e0917c"/></g></g><g transform="translate(50.615 94.778)"><path d="M828.462,307.256l-.212,3.556s-8.622,3.086-22.5.744c-12.446-2.1-17.852-5.687-17.852-5.687v-2.941l33.375,4.06Z" transform="translate(-787.897 -302.928)" fill="#2d2d2d"/></g><g transform="translate(42.751 23.661)"><path d="M802.705,245.854s-12.24,3.758-14.118,23.908c-1.513,16.222-7.073,42.675-7.073,42.675s8.663,7.918,25.107,9.683,24.026-.23,24.026-.23,4.354-36.721,1.083-53.013c-4.674-23.278-23.05-23.671-23.05-23.671Z" transform="translate(-781.514 -245.205)" fill="#474543"/></g><g transform="translate(55.668 25.048)"><g transform="translate(0 0.09)"><path d="M807.544,247.507s3.761,1.563-1.482,5.212c-4.09,2.846-13.86,24.287-13.86,24.287s-2.23-25.171,8.1-30.6Z" transform="translate(-791.999 -246.404)" fill="#fffcfa"/></g><g transform="translate(5.864)"><path d="M799.082,250.279l-2.324.856s.618-2.889.769-3.575a7.875,7.875,0,0,1,1.847-1.212C800.2,246.035,799.082,250.279,799.082,250.279Z" transform="translate(-796.758 -246.331)" fill="#e2e1e0"/></g><g transform="translate(8.187 0.788)"><path d="M806,247.375l-2.661-.405a51.233,51.233,0,0,0-4.7,3.16l2.166,2.559a34.509,34.509,0,0,0,6.079-2.34A1.925,1.925,0,0,0,806,247.375Z" transform="translate(-798.644 -246.97)" fill="#e2e1e0"/></g><g transform="translate(5.828 3.948)"><path d="M797.277,250.2l-.548,2.5,1.415.653,2.888-1.524-1.944-2.3Z" transform="translate(-796.729 -249.535)" fill="#255f75"/></g><g transform="translate(0 7.115)"><path d="M797.079,265.615l2.163-12.856-1.416-.653a100.962,100.962,0,0,0-5.515,10.971,77.673,77.673,0,0,0-.111,12.6s2.162-4.745,4.878-10.066Z" transform="translate(-791.999 -252.106)" fill="#27627e"/></g></g><g transform="translate(62.732 18.073)"><path d="M797.732,242l5.3-1.336s1.185,5.9,2.781,7.785c.048.055.1.11.144.159.574.591-.148,1.216-1.338,1.705a23.845,23.845,0,0,1-5.759,1.274C798.029,250.2,797.732,242,797.732,242Z" transform="translate(-797.732 -240.669)" fill="#d68778"/></g><g transform="translate(53.295)"><g transform="translate(1.443 6.177)"><path d="M792.735,233.268a28.755,28.755,0,0,0-1.42,10.64c.452,5.41,5.794,8.63,10.495,5.444,5.308-3.6,2.122-15.9,2.122-15.9S794.992,228.088,792.735,233.268Z" transform="translate(-791.244 -231.013)" fill="#e0917c"/></g><path d="M803.566,241.41a27.276,27.276,0,0,0-2.66-5.3,7.871,7.871,0,0,1-7.451-2.459,13.013,13.013,0,0,0-1.1,3.076s-2.621-.943-2.241-5.26,3.043-2.845,3.043-2.845,6.025-4.985,11.378-1.2,7.047,11.724.444,17.474C804.975,244.892,805.253,241.168,803.566,241.41Z" transform="translate(-790.073 -226)" fill="#2d2d2d"/><g transform="translate(11.554 11.327)"><path d="M805.632,238.709a3.1,3.1,0,1,1-2.666-3.488A3.106,3.106,0,0,1,805.632,238.709Z" transform="translate(-799.451 -235.194)" fill="#d68778"/></g><g transform="translate(0.13 13.311)"><path d="M791.737,237.187c-.532,1.274-1.113,2.74-1.482,3.913a1.645,1.645,0,0,0,1.558,2.13l.375,0a.626.626,0,0,0,.633-.612l.118-5.177A.626.626,0,0,0,791.737,237.187Z" transform="translate(-790.178 -236.804)" fill="#e0917c"/></g></g><g transform="translate(72.818 38.673)"><path d="M814.712,271.426a59.728,59.728,0,0,1-8.794-14.037l21.54,18.711-.822,3.073,1.446.631-10.288,22.53-2.318-1.891,6.038-20.483a2.083,2.083,0,0,0-.544-2.082C818.975,275.929,816.67,273.6,814.712,271.426Z" transform="translate(-805.918 -257.389)" fill="#2d2d2d"/></g><g transform="translate(51.913 86.232)"><path d="M794.477,308.216,792,295.991l-3.046,11.277Z" transform="translate(-788.95 -295.991)" fill="#2d2d2d"/></g><g transform="translate(71.382 28.708)"><g transform="translate(10.411 4.655)"><path d="M813.2,268.552c2.2,1.158,4.411,2.292,6.622,3.428l6.657,3.374.835.416.053.026.026.012h.018l.031-.006c.022,0,.037,0,.06-.009a.834.834,0,0,1,.241,0,.894.894,0,0,1,.5.272,1.463,1.463,0,0,1,.343.625,1.594,1.594,0,0,1,.047.393,1.227,1.227,0,0,1-.015.219.606.606,0,0,1-.021.116l-.011.062-.118.2-3.79,6.431q-1.9,3.212-3.773,6.442l-3.747,6.462c-1.236,2.163-2.482,4.318-3.7,6.493l5.284,3.86c1.7-1.823,3.373-3.668,5.06-5.5l5.018-5.533q2.513-2.763,4.991-5.553l4.975-5.564.156-.175.251-.322c.17-.213.33-.435.485-.662a14.27,14.27,0,0,0,.864-1.414,14.722,14.722,0,0,0,1.233-3.118,15.343,15.343,0,0,0,.257-6.742,15.637,15.637,0,0,0-5.144-8.941c-.225-.19-.451-.383-.685-.562l-.644-.482-.732-.582-5.88-4.6c-1.966-1.52-3.933-3.043-5.914-4.543Z" transform="translate(-813.203 -253.08)" fill="#d68778"/></g><g transform="translate(0.945 51.45)"><path d="M820.068,292.768l-2.279.166c-1.508-.893-4.542-2.5-5.589-1.619-.631.527-.195,1.3.48,1.99l-1.448.1h.007c-1.88.132-4.893.691-5.523,2.9-.932,3.266,1.451,6.186,7.073,5.847a11.86,11.86,0,0,0,8.144-4.029Z" transform="translate(-805.52 -291.062)" fill="#e0917c"/></g><g transform="translate(12.333 47.872)"><path d="M823.862,293.724l-1.924,2.525-7.174-5.361,1.681-2.731Z" transform="translate(-814.763 -288.157)" fill="#fffcfa"/></g><path d="M805.32,253.378c1.237-2.564,7.917-10.508,29.463,6.667,3.827,2.618,8.922,7.074,10.414,12.962,2.543,10.034-19.288,31.2-19.288,31.2l-8.4-6.275L825.7,280.8c.665-1.255.062-2.707-1.575-4.21-4.357-4-13.65-8.8-15.723-11.916C804.694,260.759,804.115,255.874,805.32,253.378Z" transform="translate(-804.753 -249.301)" fill="#474543"/></g></g><g transform="translate(360.07 450.76)"><rect width="805.651" height="2.596" fill="#7a2d18"/></g><g transform="translate(893.89 276.782)"><path d="M794.616,237.818c-.3.428-.77.612-1.056.414s-.277-.707.02-1.133.77-.612,1.056-.414S794.913,237.391,794.616,237.818Z" transform="translate(-793.351 -236.605)" fill="#2c1c28"/></g><g transform="translate(945.203 251.396)"><g transform="translate(31.789 18.836)"><path d="M868.933,231.289c-4.631.375-8.131,5.346-8.131,5.346l1.446,6.931s2.357,2.959,6.8,1.048,4.445-5.1,4.445-5.1A13.2,13.2,0,0,1,868.933,231.289Z" transform="translate(-860.802 -231.289)" fill="#e0935f"/></g><g transform="translate(24.922)"><path d="M875.027,228.942a4.316,4.316,0,0,0,1.706-4.9,2.979,2.979,0,0,0-3.4-1.959c.492-1.573.588-3.156-1.346-4.243a3.653,3.653,0,0,0-4.5.871c.153-1.119-1.111-2.665-2.978-2.71-2.485-.062-3.444,1.359-3.6,2.205a4.029,4.029,0,0,0-4.363.505c-1.4,1.379-2.455,4.56.978,6.288,0,0,1.461,2.749,1.586,2.446a22.808,22.808,0,0,0-.62-3.533l2.76-1.733a32.829,32.829,0,0,0,5.05-1.04c-.065.177-.1.291-.1.291l4.8,2.087c-1.056.356-2.5.856-2.951,1.072-.6.291,2.966,3.424,4.184,4.47h-.017l-1.48,6s5.181.018,6.221-2.85A2.429,2.429,0,0,0,875.027,228.942Z" transform="translate(-855.229 -216)" fill="#031727"/><path d="M863.81,218.932l-6.482,2.361,2.975,7.432s3.01,6.984,4.1,6.956,8.156-4.3,8.156-4.3v-5.587s-1.581-4.974-1.674-5.058S863.81,218.932,863.81,218.932Z" transform="translate(-854.741 -215.32)" fill="#031727"/><path d="M869.254,228.669c-.065.062-.617,2.973-.617,2.973l-1.333.492a72.636,72.636,0,0,1-.75-9.6c-1.831,1.041-5.014.549-7.493.415a2.944,2.944,0,0,0-1.7.542c-1.012,3.2-2.687,10.172.18,14.619,1.1,1.7,8.89,2.172,13.656-4.666,2.945-.962,4.039-3.765,2.265-5.425C871.811,226.47,869.826,228.122,869.254,228.669Z" transform="translate(-855.061 -214.486)" fill="#f2b78b"/><path d="M857.1,223.893a12.854,12.854,0,0,1,7.744,1.756c1.88,1.347,1.8,3.237,2.194,6.892l.584-3.445s4.047-6.659,4.031-6.7-6.078-1.613-6.078-1.613S856.727,222,857.1,223.893Z" transform="translate(-854.797 -214.892)" fill="#031727"/></g><path d="M875.4,237.969c-6.326,4.8-11.247,4.047-11.247,4.047s-7.888,8.651-9.593,15.736c-1.985,8.244,1.818,11.24-.166,26.826-1.31,10.289-1.819,19.633-1.819,19.633H879.87c0-6.294,4.053-21.468,5.542-33.5C887.966,250.085,882.683,243.74,875.4,237.969Z" transform="translate(-830.921 -210.903)" fill="#2e5990"/><path d="M844.546,373.753s5.122,1.918,5.122,1.862.754-2.565.754-2.565l.276-2.878-6.362.637Z" transform="translate(-832.834 -180.227)" fill="#f2b78b"/><g transform="translate(8.623 93.308)"><path d="M855.034,291.735C850.7,307.342,846.88,321.718,844,337.907s-2.227,34.693-.7,51.26l9.62-.963c1.276-13.642,2.676-27.95,5.24-41.448,7.636-18.317,19.066-35.092,20.706-55.02C870.916,291.745,855.034,291.735,855.034,291.735Z" transform="translate(-841.999 -291.735)" fill="#00001c"/></g><path d="M846.712,373.21a26.221,26.221,0,0,1-4.793,3.8c-3.524,2.088-6.469,2.618-6.846,3.318s.622,1.685,5.009,1.024A44.057,44.057,0,0,0,848.669,379l.188,1.024,5.364-.809a8.921,8.921,0,0,0-1.635-6.711A5.387,5.387,0,0,1,846.712,373.21Z" transform="translate(-835 -179.685)" fill="#030303"/><g transform="translate(25.36 93.308)"><path d="M879.174,291.735h-23.59c0,5.511,1.7,39.7,2.511,49.289s5.364,49.288,5.364,49.288h9.71s1.889-34.725,1.2-42.893C875.6,326.954,883.536,308.221,879.174,291.735Z" transform="translate(-855.584 -291.735)" fill="#14142e"/></g><g transform="translate(41.039 52.065)"><path d="M869.833,258.808a.7.7,0,0,0-.357-.452.831.831,0,0,0-.588-.073.781.781,0,0,0-.425.26.641.641,0,0,0-.135.562,85.012,85.012,0,0,0,3.718,11.6c2.866,7.167.012,22.923-1.211,28.8h1.578c1.287-6.177,4.072-21.8,1.084-29.276A83.712,83.712,0,0,1,869.833,258.808Z" transform="translate(-868.31 -258.26)" fill="#0c3265"/></g><g transform="translate(23.382 106.432)"><path d="M896.342,306.658H855.533a1.487,1.487,0,0,0-1.555,1.408v26.288a1.487,1.487,0,0,0,1.555,1.408h40.809a1.486,1.486,0,0,0,1.554-1.408V308.066A1.486,1.486,0,0,0,896.342,306.658Z" transform="translate(-853.978 -301.396)" fill="#0c3265"/><g transform="translate(12.552)"><path d="M879.9,302.387H867.063a2.774,2.774,0,0,0-2.9,2.624v3.022h2.118v-3.022a.745.745,0,0,1,.779-.706H879.9a.746.746,0,0,1,.78.706v3.022H882.8v-3.022A2.774,2.774,0,0,0,879.9,302.387Z" transform="translate(-864.166 -302.387)" fill="#001738"/></g><g transform="translate(0 5.262)"><path d="M896.342,306.658H855.533a1.487,1.487,0,0,0-1.555,1.408v9.453a.946.946,0,0,0,.988.9h41.942a.945.945,0,0,0,.987-.9v-9.453A1.486,1.486,0,0,0,896.342,306.658Z" transform="translate(-853.978 -306.658)" fill="#2e5990"/></g><g transform="translate(7.664 13.895)"><path d="M882.612,313.665a1.369,1.369,0,0,0-.711.2,1.125,1.125,0,0,0-.559.955v12.743a1.1,1.1,0,0,0,.372.814,1.36,1.36,0,0,0,1.862-.064,1.085,1.085,0,0,0,.307-.75V314.816a1.11,1.11,0,0,0-.465-.889A1.344,1.344,0,0,0,882.612,313.665Z" transform="translate(-855.293 -313.665)" fill="#001738"/><path d="M861.469,313.665a1.361,1.361,0,0,0-.764.23,1.118,1.118,0,0,0-.506.92v12.743a1.1,1.1,0,0,0,.437.87,1.367,1.367,0,0,0,1.751-.073,1.1,1.1,0,0,0,.352-.8V314.816a1.1,1.1,0,0,0-.372-.814A1.333,1.333,0,0,0,861.469,313.665Z" transform="translate(-860.199 -313.665)" fill="#001738"/></g></g><g transform="translate(37.671 85.191)"><path d="M875.031,285.147l-2.7,12.309s-2.629,1.271-3.449,2.868c-1.092,2.125-3.665,4.087-3.265,4.855.638,1.23,3.774-.754,4.626-2.249.212,2.643-3.122,6.572.386,7.362,3.642.82,5.781-.7,6.85-4.6a15.3,15.3,0,0,0-.235-7.166l3.671-12.054Z" transform="translate(-865.576 -285.147)" fill="#f2b78b"/></g><g transform="translate(40.531 35.646)"><path d="M871.818,245.038c-6.776,1.332-3.668,16.725,1.048,28.519,3.659,9.152-1.679,31.456-1.679,31.456l7.554.7s7.785-19.415,6.209-34.487C883.806,260.285,879.9,243.451,871.818,245.038Z" transform="translate(-867.898 -244.933)" fill="#2e5990"/></g><g transform="translate(22.219 191.884)"><path d="M863.515,374.7l2.5,3.706,3.426-3.527.324-3.137h-6.3Z" transform="translate(-850.615 -371.746)" fill="#f2b78b"/><path d="M865.934,374.146a27.4,27.4,0,0,1-5.416,3.032c-3.854,1.536-6.856,1.621-7.355,2.255s.309,1.756,4.757,1.756a44.915,44.915,0,0,0,8.9-1.037v1.037h5.438a8.758,8.758,0,0,0-.4-6.862C868.258,376.148,865.934,374.146,865.934,374.146Z" transform="translate(-853.034 -371.189)" fill="#030303"/></g></g></g></svg>