<svg xmlns="http://www.w3.org/2000/svg" width="162.852" height="46.781" viewBox="0 0 162.852 46.781"><g transform="translate(-140.645 -98.449)"><g transform="translate(140.645 98.449)"><g transform="translate(0 0)"><g transform="translate(20.729)"><path d="M709.828,106.953q7.049,12.389,14.092,24.782c.808,1.426,1.534,2.9,2.48,4.7H719.24c-2.536-4.364-5.118-8.7-7.593-13.091-3.062-5.436-6.034-10.923-9.046-16.388Z" transform="translate(-702.602 -106.953)" fill="#489aab"/></g><g transform="translate(0 8.413)"><path d="M181.82,356.672c7.365-12.757,14.55-25.274,22.11-38.368L207.447,324c-6.228,10.832-12.441,21.485-18.875,32.675Z" transform="translate(-181.82 -318.304)" fill="#489aab"/></g><g transform="translate(25.462 32.22)"><path d="M862.268,916.435l-3.317,5.722H821.507l3.178-5.722Z" transform="translate(-821.507 -916.435)" fill="#489aab"/></g><g transform="translate(32.549 3.266)"><path d="M1021.993,215.187h-7.4l-15.027-26.193h7.361Z" transform="translate(-999.566 -188.994)" fill="#489aab"/></g><g transform="translate(10.42 17.235)"><path d="M460.437,539.952l3.441,5.874c-4.474,7.756-9.013,15.741-13.588,23.672H443.6C449.271,559.585,454.665,550.042,460.437,539.952Z" transform="translate(-443.599 -539.952)" fill="#489aab"/></g><g transform="translate(20.376 41.351)"><path d="M696.687,1145.815H726.4l-3.111,5.43H693.734Z" transform="translate(-693.734 -1145.815)" fill="#489aab"/></g></g><g transform="translate(71.828 8.69)"><g transform="translate(0.149 0)"><path d="M1990.125,325.785a40.147,40.147,0,0,1,6.965-.519c3.334,0,5.743.7,7.335,2.038a7.054,7.054,0,0,1,2.445,5.52,7.6,7.6,0,0,1-2.112,5.631c-1.853,1.815-4.668,2.7-7.891,2.7a9.955,9.955,0,0,1-2.223-.185v9.447h-4.52Zm4.52,11.6a7.6,7.6,0,0,0,2.223.222c3.409,0,5.483-1.7,5.483-4.594,0-2.779-1.927-4.223-5.076-4.223a12.582,12.582,0,0,0-2.63.222Z" transform="translate(-1990.125 -325.266)" fill="#489aab"/><g transform="translate(19.005 6.706)"><path d="M2467.745,499.958c0-2.445-.038-4.224-.148-5.817h3.927l.185,3.408h.111a5.4,5.4,0,0,1,4.965-3.816,4.786,4.786,0,0,1,1.074.111v4.261a7.32,7.32,0,0,0-1.371-.111,4.013,4.013,0,0,0-4.075,3.445,7.913,7.913,0,0,0-.111,1.371v9.373h-4.557Z" transform="translate(-2467.596 -493.734)" fill="#489aab"/></g><g transform="translate(29.934 6.706)"><path d="M2746.54,504.441c.111,3.26,2.63,4.668,5.557,4.668a14.535,14.535,0,0,0,5-.815l.667,3.112a16.2,16.2,0,0,1-6.3,1.148c-5.854,0-9.3-3.594-9.3-9.114,0-5,3.038-9.707,8.817-9.707,5.854,0,7.78,4.816,7.78,8.78a11.212,11.212,0,0,1-.148,1.926Zm7.928-3.186c.037-1.667-.7-4.409-3.742-4.409-2.815,0-4,2.556-4.186,4.409Z" transform="translate(-2742.169 -493.734)" fill="#489aab"/></g><g transform="translate(48.161 6.706)"><path d="M3201.015,507.96a9.879,9.879,0,0,0,4.594,1.334c2,0,2.89-.852,2.89-2.038,0-1.223-.741-1.815-2.964-2.63-3.52-1.186-4.965-3.112-4.965-5.261,0-3.186,2.631-5.631,6.817-5.631a10.411,10.411,0,0,1,4.816,1.074l-.927,3.186a7.971,7.971,0,0,0-3.816-1.037c-1.63,0-2.519.815-2.519,1.926,0,1.149.852,1.667,3.149,2.519,3.3,1.149,4.779,2.816,4.816,5.483,0,3.3-2.556,5.668-7.335,5.668a11.639,11.639,0,0,1-5.483-1.26Z" transform="translate(-3200.089 -493.734)" fill="#489aab"/></g><g transform="translate(61.98 2.482)"><path d="M3554.292,387.627v4.631h4.335v3.408h-4.335v7.965c0,2.223.593,3.334,2.334,3.334a5.931,5.931,0,0,0,1.778-.185l.075,3.445a10,10,0,0,1-3.3.482,5.216,5.216,0,0,1-3.927-1.482c-1-1.037-1.445-2.7-1.445-5.076v-8.484h-2.556v-3.408h2.556v-3.371Z" transform="translate(-3547.253 -387.627)" fill="#489aab"/></g><g transform="translate(74.613 6.706)"><path d="M3879.9,507.849a24.346,24.346,0,0,0,.3,4.335h-4.112l-.333-2h-.111a6.593,6.593,0,0,1-5.335,2.408,5.356,5.356,0,0,1-5.668-5.372c0-4.52,4.038-6.854,10.707-6.817v-.3c0-1.186-.481-3.149-3.668-3.149a9.557,9.557,0,0,0-4.853,1.334l-.889-2.964a12.993,12.993,0,0,1,6.521-1.593c5.779,0,7.447,3.668,7.447,7.632Zm-4.446-4.483c-3.223-.037-6.3.63-6.3,3.371a2.392,2.392,0,0,0,2.594,2.593,3.741,3.741,0,0,0,3.594-2.482,3.072,3.072,0,0,0,.111-1Z" transform="translate(-3864.635 -493.734)" fill="#489aab"/></g></g><g transform="translate(0 27.799)"><path d="M1987.363,1029.972a8.469,8.469,0,0,1,1.459-.115,2.887,2.887,0,0,1,1.927.571,2.006,2.006,0,0,1,.7,1.651,3.077,3.077,0,0,1-1.081,2.426,3.833,3.833,0,0,1-2.533.7,9.058,9.058,0,0,1-1.447-.1Zm.318,4.293a3.564,3.564,0,0,0,.495.028,1.947,1.947,0,0,0,1.5-.613,2.367,2.367,0,0,0,.547-1.591,1.224,1.224,0,0,0-1.395-1.329,2.651,2.651,0,0,0-.48.036Z" transform="translate(-1986.384 -1029.61)" fill="#489aab"/><path d="M2158.675,1030.8l.729-3.836h1.128l-.729,3.836Zm.891-4.859a.633.633,0,0,1,.647-.639.532.532,0,0,1,.566.555.627.627,0,0,1-.666.635A.522.522,0,0,1,2159.565,1025.944Z" transform="translate(-2151.817 -1025.24)" fill="#489aab"/><path d="M2247.255,1067.821a2.459,2.459,0,0,0,1,.265c.318,0,.483-.156.483-.348s-.124-.318-.478-.491a1.209,1.209,0,0,1-.811-1.018c0-.795.7-1.321,1.685-1.321a2.144,2.144,0,0,1,.985.2l-.268.8a1.842,1.842,0,0,0-.766-.167c-.3,0-.5.129-.5.336,0,.16.156.29.467.44.417.213.857.515.857,1.047,0,.878-.745,1.352-1.76,1.352a2.158,2.158,0,0,1-1.169-.3Z" transform="translate(-2236.608 -1063.265)" fill="#489aab"/><path d="M2371.48,1068.828l.432-2.282c.108-.577.156-1.222.2-1.553h.977c-.02.259-.04.518-.07.786h.025a1.438,1.438,0,0,1,1.222-.872c.071,0,.144,0,.21.008l-.22,1.1c-.049,0-.112-.007-.178-.007-.719,0-1.057.641-1.2,1.395l-.268,1.425Z" transform="translate(-2356.152 -1063.265)" fill="#489aab"/><path d="M2493.145,1067.072l-.488,2.586c-.1.486-.155.905-.206,1.249h-1l.071-.623-.016,0a1.667,1.667,0,0,1-1.32.713c-.613,0-.985-.349-.985-1.073a3.8,3.8,0,0,1,.077-.707l.407-2.142h1.128l-.389,2.053a3.077,3.077,0,0,0-.057.507c0,.245.1.443.386.443.381,0,.778-.461.924-1.225l.336-1.778Z" transform="translate(-2469.19 -1065.344)" fill="#489aab"/><path d="M2625.624,1070.38l.74-3.905c.085-.455.177-1.09.223-1.482h1.01l-.069.559h.016a1.543,1.543,0,0,1,1.229-.645c.829,0,1.235.668,1.235,1.454a2.382,2.382,0,0,1-2.221,2.554,1.466,1.466,0,0,1-.712-.159h-.017l-.31,1.625Zm1.611-2.5a.738.738,0,0,0,.514.182c.6,0,1.077-.857,1.077-1.611,0-.3-.132-.624-.5-.624-.423,0-.816.471-.953,1.223Z" transform="translate(-2600.18 -1063.265)" fill="#489aab"/><path d="M2790.543,1040.143l-.2,1.072h.818l-.167.86h-.819l-.257,1.3a2.766,2.766,0,0,0-.063.486.286.286,0,0,0,.327.322,2.352,2.352,0,0,0,.31-.016l-.129.883a2.219,2.219,0,0,1-.666.085c-.679,0-1-.346-1-.825a3.444,3.444,0,0,1,.081-.711l.3-1.524h-.491l.162-.86h.493l.152-.806Z" transform="translate(-2756.653 -1039.487)" fill="#489aab"/><path d="M2891.19,1030.8l.729-3.836h1.128l-.728,3.836Zm.89-4.859a.633.633,0,0,1,.647-.639.532.532,0,0,1,.567.555.627.627,0,0,1-.667.635A.523.523,0,0,1,2892.08,1025.944Z" transform="translate(-2855.175 -1025.24)" fill="#489aab"/><path d="M2982.731,1068.828l.487-2.586c.1-.485.156-.905.208-1.249h1l-.072.636h.016a1.61,1.61,0,0,1,1.341-.723.927.927,0,0,1,.984,1.049,4.415,4.415,0,0,1-.066.644l-.423,2.228h-1.128l.4-2.122a2.5,2.5,0,0,0,.042-.43c0-.269-.092-.461-.382-.461-.367,0-.8.462-.955,1.308l-.32,1.7Z" transform="translate(-2943.072 -1063.265)" fill="#489aab"/><path d="M3132.993,1069.361a2.448,2.448,0,0,0,1.006.209,1.077,1.077,0,0,0,1.139-1.016l.068-.323h-.017a1.3,1.3,0,0,1-1.1.568,1.255,1.255,0,0,1-1.229-1.367,2.463,2.463,0,0,1,2.566-2.524,3.672,3.672,0,0,1,1.419.267l-.578,3.16a2.766,2.766,0,0,1-.806,1.7,2.359,2.359,0,0,1-1.484.432,2.745,2.745,0,0,1-1.247-.245Zm2.633-3.519a1.123,1.123,0,0,0-.406-.069c-.681,0-1.167.76-1.168,1.486,0,.387.17.672.519.672.366,0,.739-.414.859-1.06Z" transform="translate(-3087.104 -1063.265)" fill="#489aab"/><path d="M3359.945,1030.743h1.129l-.813,4.3h2.03l-.186.985h-3.159Z" transform="translate(-3304.312 -1030.461)" fill="#489aab"/><path d="M3496.529,1068.609a3.345,3.345,0,0,1-1.433.3,1.486,1.486,0,0,1-1.657-1.621,2.3,2.3,0,0,1,2.231-2.383,1.184,1.184,0,0,1,1.335,1.151c0,.973-.952,1.33-2.486,1.289a.788.788,0,0,0,.122.394.881.881,0,0,0,.733.293,2.422,2.422,0,0,0,1.075-.243Zm-1-2.875a.955.955,0,0,0-.9.789c.876.009,1.317-.113,1.317-.464C3495.946,1065.867,3495.787,1065.734,3495.531,1065.734Z" transform="translate(-3433.452 -1063.265)" fill="#489aab"/><path d="M3628.433,1068.828l.487-2.586c.1-.485.156-.905.208-1.249h1l-.072.636h.016a1.609,1.609,0,0,1,1.34-.723.927.927,0,0,1,.984,1.049,4.413,4.413,0,0,1-.066.644l-.423,2.228h-1.128l.4-2.122a2.5,2.5,0,0,0,.043-.43c0-.269-.092-.461-.382-.461-.368,0-.8.462-.955,1.308l-.32,1.7Z" transform="translate(-3563.073 -1063.265)" fill="#489aab"/><path d="M3785.728,1023.655l-.776,4.076a11.053,11.053,0,0,0-.181,1.488h-1.033l.055-.622h-.016a1.472,1.472,0,0,1-1.255.708c-.652,0-1.186-.514-1.186-1.446a2.462,2.462,0,0,1,2.41-2.562,1.537,1.537,0,0,1,.522.093l.335-1.735Zm-1.617,2.636a.75.75,0,0,0-.447-.133c-.675,0-1.153.779-1.153,1.516,0,.463.2.723.528.723s.724-.344.871-1.077Z" transform="translate(-3709.891 -1023.655)" fill="#489aab"/><path d="M3928.251,1030.8l.728-3.836h1.129l-.729,3.836Zm.891-4.859a.633.633,0,0,1,.647-.639.533.533,0,0,1,.567.555.628.628,0,0,1-.667.635A.522.522,0,0,1,3929.142,1025.944Z" transform="translate(-3850.957 -1025.24)" fill="#489aab"/><path d="M4019.791,1068.828l.487-2.586c.1-.485.156-.905.209-1.249h1l-.072.636h.015a1.61,1.61,0,0,1,1.341-.723.927.927,0,0,1,.984,1.049,4.412,4.412,0,0,1-.066.644l-.424,2.228h-1.128l.4-2.122a2.527,2.527,0,0,0,.043-.43c0-.269-.092-.461-.382-.461-.368,0-.8.462-.955,1.308l-.32,1.7Z" transform="translate(-3938.853 -1063.265)" fill="#489aab"/><path d="M4170.053,1069.361a2.451,2.451,0,0,0,1.007.209,1.077,1.077,0,0,0,1.139-1.016l.067-.323h-.017a1.3,1.3,0,0,1-1.1.568,1.255,1.255,0,0,1-1.229-1.367,2.463,2.463,0,0,1,2.565-2.524,3.676,3.676,0,0,1,1.419.267l-.578,3.16a2.77,2.77,0,0,1-.807,1.7,2.36,2.36,0,0,1-1.484.432,2.744,2.744,0,0,1-1.247-.245Zm2.633-3.519a1.133,1.133,0,0,0-.406-.069c-.682,0-1.167.76-1.169,1.486,0,.387.171.672.52.672.365,0,.738-.414.858-1.06Z" transform="translate(-4082.885 -1063.265)" fill="#489aab"/></g></g></g></g></svg>