<svg width="55" height="41" viewBox="0 0 55 41" fill="none" xmlns="http://www.w3.org/2000/svg">
    <path d="M23.2174 -1.8528e-05C27.1211 7.08414 31.0225 14.1694 34.9214 21.2557C35.5951 22.4785 36.1951 23.7415 36.9812 25.2839H31.0349C28.9285 21.5409 26.7857 17.8242 24.729 14.0556C22.1862 9.39267 19.717 4.68696 17.2151 -0.000549316L23.2174 -1.8528e-05Z" fill="#27627E"/>
    <path d="M0 40.1245C6.11477 29.1831 12.0839 18.4466 18.3625 7.21561L21.2836 12.0985C16.1109 21.3889 10.9506 30.5263 5.60694 40.1245" fill="#829DA9"/>
    <path d="M54.9995 27.6359L52.2447 32.5439H21.1467L23.7864 27.6359H54.9995Z" fill="#489AAB"/>
    <path d="M45.6594 25.2673H39.5134L27.033 2.80106H33.1478L45.6594 25.2673Z" fill="#27627E"/>
    <path d="M22.6414 14.7828L25.4992 19.8209C21.7837 26.473 18.0138 33.3221 14.2144 40.1245H8.65405C13.3655 31.6202 17.8444 23.437 22.6414 14.7828Z" fill="#829DA9"/>
    <path d="M19.375 35.467H44.0539L41.4701 40.123H16.9229L19.375 35.467Z" fill="#489AAB"/>
</svg>
