<svg xmlns="http://www.w3.org/2000/svg" xmlns:xlink="http://www.w3.org/1999/xlink" width="144.656" height="165.542" viewBox="0 0 144.656 165.542"><defs><radialGradient id="a" cx="0.5" cy="0.5" r="0.5" gradientUnits="objectBoundingBox"><stop offset="0" stop-color="#a3e7f6"/><stop offset="1" stop-color="#489aab"/></radialGradient><clipPath id="b"><rect width="100" height="100" fill="#fff"/></clipPath></defs><g transform="translate(-372 -2955)"><path d="M-1899.921,186.9a82.98,82.98,0,0,1-27.611-18.247,82.525,82.525,0,0,1-18.334-27.477q-1.121-2.752-2.038-5.56a83.384,83.384,0,0,0,8.442-69.492,83.271,83.271,0,0,1,11.93-14.94,82.975,82.975,0,0,1,27.61-18.247,83.368,83.368,0,0,1,24.346-5.79,83.323,83.323,0,0,1,24.344,5.79,82.962,82.962,0,0,1,27.611,18.247,83.253,83.253,0,0,1,11.93,14.939,83.375,83.375,0,0,0,8.443,69.493q-.917,2.807-2.039,5.56a82.525,82.525,0,0,1-18.334,27.477,82.987,82.987,0,0,1-27.611,18.247,83.348,83.348,0,0,1-24.344,5.789A83.342,83.342,0,0,1-1899.921,186.9Z" transform="translate(2319.904 2927.848)" opacity="0.8" fill="url(#a)"/><g transform="translate(-2716.425 1484.047)"><g transform="translate(3111.425 1503.953)" clip-path="url(#b)"><g transform="translate(1.913 1.503)"><path d="M3136.692,1601.91a4.169,4.169,0,0,1-2.157-.526,2.8,2.8,0,0,1-1.03-3.7l8.227-18.131-7.147.106h-.03a1.942,1.942,0,0,1-1.775-2.722l11.43-26.009a13.175,13.175,0,0,1-1.748-4.425,1.941,1.941,0,0,1,3.808-.753c.925,4.681,5.2,7.874,9.528,7.114a7.361,7.361,0,0,0,4.7-2.963,2.133,2.133,0,0,1,3.442,2.475L3153,1568.542l9.12.04a1.94,1.94,0,0,1,1.516,3.141l-22.086,28.053A6.492,6.492,0,0,1,3136.692,1601.91Zm8.07-26.288a1.94,1.94,0,0,1,1.767,2.742l-8.845,19.5a1.832,1.832,0,0,0,.819-.484l19.629-24.931-8.781-.039a1.939,1.939,0,0,1-1.6-3.027l8.566-12.67a11.756,11.756,0,0,1-9.279-2.577l-9.493,21.6,7.187-.108Zm29.077-7.17c-4.006,0-7.775-1.744-12.055-5.361a1.94,1.94,0,1,1,2.5-2.962c5.371,4.539,9.194,5.48,14.546,3.37a8.042,8.042,0,0,1-1.5-4.666,1.94,1.94,0,0,1,3.879,0,4.452,4.452,0,0,0,2.355,3.839,9.284,9.284,0,0,1,1.05.4l.294.125a5.431,5.431,0,0,0,1.3.156,5.366,5.366,0,0,0,2.757-.752c.076-.075.151-.155.225-.236a4.655,4.655,0,0,0,1.089-3.68,5.649,5.649,0,0,1-.04-.623c0-.073,0-.145-.011-.215a1.94,1.94,0,0,1,.014-.553,10.279,10.279,0,0,1-3.25-2.756,9.6,9.6,0,0,1-1.757-3.691,11.782,11.782,0,0,1-15.254-1.394,1.939,1.939,0,1,1,2.818-2.665,7.761,7.761,0,0,0,6.686,2.275,7.58,7.58,0,0,0,4.618-2.375,2.678,2.678,0,0,1,4.827,1.288,5.578,5.578,0,0,0,1.138,4.2,6.718,6.718,0,0,0,4.522,2.508,7.045,7.045,0,0,0,4.61-1.014,2.02,2.02,0,0,1,.322-.164,9.971,9.971,0,0,0,4.274-8.066q0-.45-.041-.894a10.977,10.977,0,0,1-4.816,1.106,10.492,10.492,0,0,1-9.683-6.142,10.157,10.157,0,0,1-11.044.161,1.94,1.94,0,0,1,2.079-3.275,6.177,6.177,0,0,0,3.323.949,5.577,5.577,0,0,0,5.817-5.287,1.94,1.94,0,1,1,3.88,0,8.682,8.682,0,0,1-.947,3.95,6.347,6.347,0,0,0,6.575,5.766,6.928,6.928,0,0,0,4.415-1.553,1.991,1.991,0,0,1,.417-.264,7.185,7.185,0,0,0,1.164-3.911,7.793,7.793,0,0,0-5.61-7.267,1.941,1.941,0,0,1-1.314-2.178,4.93,4.93,0,0,0,.073-.845,5.685,5.685,0,0,0-5.926-5.392,6.717,6.717,0,0,0-1.016.08,1.94,1.94,0,0,1-2.238-1.819,5.8,5.8,0,0,0-6.031-5.239,6.584,6.584,0,0,0-1.809.251,1.938,1.938,0,0,1-1.847-.437,10.938,10.938,0,0,0-7.45-2.841,11.2,11.2,0,0,0-4.425.894,1.939,1.939,0,0,1-2.2-.484,6.162,6.162,0,0,0-4.582-1.974,6.233,6.233,0,0,0-4.382,1.761,1.938,1.938,0,0,1-2.426.253,12.1,12.1,0,0,0-6.611-1.928,11.752,11.752,0,0,0-9.931,5.263,1.94,1.94,0,0,1-2.319.779,6.553,6.553,0,0,0-2.289-.409,5.794,5.794,0,0,0-6.039,5.494,5.04,5.04,0,0,0,.53,2.253,1.938,1.938,0,0,1-.109,1.916,1.96,1.96,0,0,1-1.7.885c-.115,0-.231-.008-.347-.008-4.637,0-8.411,3.456-8.411,7.7a7.307,7.307,0,0,0,1.783,4.738,7.7,7.7,0,0,1,2.983-3.453,1.94,1.94,0,1,1,2.08,3.275,3.754,3.754,0,0,0-1.727,2.466,3.467,3.467,0,0,0-.055.448,1.95,1.95,0,0,1,.239.736,7.214,7.214,0,0,0,.247,1.223c.062.1.129.208.2.309a1.912,1.912,0,0,1,.374,1.091,8.319,8.319,0,0,0,5.872,4.124,1.883,1.883,0,0,1,.375.008c3.881.45,7.422-2.069,7.9-5.614a6.015,6.015,0,0,0-1.148-4.373,1.918,1.918,0,0,1-.288-.561,10.586,10.586,0,0,1-1.091-.808,1.94,1.94,0,0,1,2.508-2.961,7,7,0,0,0,9.392-.409,5.7,5.7,0,0,0,1.664-3.911,1.94,1.94,0,0,1,1.939-1.916h.027a1.941,1.941,0,0,1,1.914,1.966,9.568,9.568,0,0,1-2.765,6.57,10.81,10.81,0,0,1-8.539,3.139,9.782,9.782,0,0,1,.233,3.778,10.192,10.192,0,0,1-4.219,6.906,10.657,10.657,0,0,0,2.716,4.775,1.941,1.941,0,0,1-2.783,2.7,14.629,14.629,0,0,1-3.407-5.555,13.038,13.038,0,0,1-2.755.291,12.213,12.213,0,0,1-11.7-8.024,7.382,7.382,0,0,1-.546-1.434,11.413,11.413,0,0,1-5.3-9.528,11.82,11.82,0,0,1,10.141-11.406,8.941,8.941,0,0,1-.1-1.344,9.668,9.668,0,0,1,9.919-9.374,10.5,10.5,0,0,1,2.183.228,15.792,15.792,0,0,1,12.356-5.861,16.047,16.047,0,0,1,7.466,1.817,10.236,10.236,0,0,1,5.953-1.9,10.132,10.132,0,0,1,6.477,2.309,15.181,15.181,0,0,1,4.73-.747,14.872,14.872,0,0,1,9.282,3.186,10.6,10.6,0,0,1,1.824-.158,9.827,9.827,0,0,1,9.6,6.983,9.55,9.55,0,0,1,9.5,9.165,11.547,11.547,0,0,1,6.851,10.392,11.013,11.013,0,0,1-1.637,5.78,13.356,13.356,0,0,1,.5,3.616c0,7.3-5.918,13.327-13.479,14.056a8.531,8.531,0,0,1-1.521,4.7,1.936,1.936,0,0,1-.631.967,8.737,8.737,0,0,1-.716.534,7.075,7.075,0,0,1-4.6,1.778,7.959,7.959,0,0,1-3.053-.591,9.143,9.143,0,0,1-1.453-.547,1.053,1.053,0,0,0-.511.145A18.85,18.85,0,0,1,3173.839,1568.453Zm-18.291-22.97a10.751,10.751,0,0,1-1.589-.117,1.941,1.941,0,0,1,.569-3.839,6.313,6.313,0,0,0,7.308-4.833,5.37,5.37,0,0,0-.887-3.953,1.94,1.94,0,0,1,2.5-2.814,4.049,4.049,0,0,0,2.408-1.977,3.428,3.428,0,0,0,.207-2.7,3.871,3.871,0,0,0-1.816-2.117,1.94,1.94,0,0,1,1.884-3.392,8.052,8.052,0,0,1,1.85,1.41,8.249,8.249,0,0,1,5.5-2.884,8.425,8.425,0,0,1,5.49,1.336,1.94,1.94,0,1,1-2.14,3.236,4.533,4.533,0,0,0-2.958-.711,4.334,4.334,0,0,0-2.943,1.548,3.509,3.509,0,0,0-.776,2.614,1.915,1.915,0,0,1-.047.71,7.356,7.356,0,0,1-.8,2.739,7.944,7.944,0,0,1-3.858,3.58,9.145,9.145,0,0,1,.212,4.033A10.117,10.117,0,0,1,3155.549,1545.482Z" transform="translate(-3112.65 -1504.915)" fill="#fff"/></g></g></g></g></svg>