<svg xmlns="http://www.w3.org/2000/svg" xmlns:xlink="http://www.w3.org/1999/xlink" width="144.656" height="165.542" viewBox="0 0 144.656 165.542"><defs><radialGradient id="a" cx="0.5" cy="0.5" r="0.5" gradientUnits="objectBoundingBox"><stop offset="0" stop-color="#a3e7f6"/><stop offset="1" stop-color="#489aab"/></radialGradient><clipPath id="b"><rect width="100" height="100" fill="#fff"/></clipPath></defs><g transform="translate(-1483 -2655)"><path d="M-1899.921,186.9a82.98,82.98,0,0,1-27.611-18.247,82.525,82.525,0,0,1-18.334-27.477q-1.121-2.752-2.038-5.56a83.384,83.384,0,0,0,8.442-69.492,83.271,83.271,0,0,1,11.93-14.94,82.975,82.975,0,0,1,27.61-18.247,83.368,83.368,0,0,1,24.346-5.79,83.323,83.323,0,0,1,24.344,5.79,82.962,82.962,0,0,1,27.611,18.247,83.253,83.253,0,0,1,11.93,14.939,83.375,83.375,0,0,0,8.443,69.493q-.917,2.807-2.039,5.56a82.525,82.525,0,0,1-18.334,27.477,82.987,82.987,0,0,1-27.611,18.247,83.348,83.348,0,0,1-24.344,5.789A83.342,83.342,0,0,1-1899.921,186.9Z" transform="translate(3430.904 2627.848)" opacity="0.8" fill="url(#a)"/><g transform="translate(1506 2687.777)"><g transform="translate(0 0.223)" clip-path="url(#b)"><g transform="translate(14.285 -0.308)"><g transform="translate(59.285 82.963)"><path d="M3144.16,1334.227a1.332,1.332,0,0,1-1.332-1.332,1.354,1.354,0,0,1,1.332-1.356,1.313,1.313,0,0,1,1.332,1.308v.048A1.332,1.332,0,0,1,3144.16,1334.227Z" transform="translate(-3142.243 -1330.954)" fill="#fff"/><path d="M3144.37,1335.022a1.929,1.929,0,1,1,1.916-1.965A1.918,1.918,0,0,1,3144.37,1335.022Zm0-2.688a.771.771,0,0,0-.748.771.747.747,0,1,0,1.494,0A.738.738,0,0,0,3144.37,1332.334Z" transform="translate(-3142.453 -1331.164)" fill="#fff"/></g><path d="M3158.741,1378.2h-45.883a8.043,8.043,0,0,1-8.034-8.033v-83.775a8.043,8.043,0,0,1,8.034-8.034h45.883a8.043,8.043,0,0,1,8.034,8.034v65.931a1.332,1.332,0,0,1-2.664,0v-65.931a5.376,5.376,0,0,0-5.37-5.371h-45.883a5.376,5.376,0,0,0-5.37,5.371v83.775a5.375,5.375,0,0,0,5.37,5.37h45.883a5.375,5.375,0,0,0,5.37-5.37v-7.49a1.332,1.332,0,0,1,2.664,0v7.49A8.043,8.043,0,0,1,3158.741,1378.2Z" transform="translate(-3104.24 -1277.773)" fill="#fff"/><path d="M3158.951,1378.995h-45.883a8.627,8.627,0,0,1-8.617-8.617V1286.6a8.629,8.629,0,0,1,8.617-8.619h45.883a8.629,8.629,0,0,1,8.618,8.619v65.93a1.917,1.917,0,1,1-3.833,0V1286.6a4.791,4.791,0,0,0-4.785-4.788h-45.883a4.791,4.791,0,0,0-4.784,4.788v83.775a4.79,4.79,0,0,0,4.784,4.784h45.883a4.79,4.79,0,0,0,4.785-4.784v-7.49a1.917,1.917,0,0,1,3.833,0v7.49A8.628,8.628,0,0,1,3158.951,1378.995Zm-45.883-99.841a7.457,7.457,0,0,0-7.447,7.449v83.775a7.456,7.456,0,0,0,7.447,7.448h45.883a7.455,7.455,0,0,0,7.448-7.448v-7.49a.746.746,0,0,0-1.493,0v7.49a5.963,5.963,0,0,1-5.955,5.955h-45.883a5.962,5.962,0,0,1-5.955-5.955V1286.6a5.963,5.963,0,0,1,5.955-5.958h45.883a5.963,5.963,0,0,1,5.955,5.958v65.93a.746.746,0,1,0,1.493,0V1286.6a7.456,7.456,0,0,0-7.448-7.449Z" transform="translate(-3104.45 -1277.983)" fill="#fff"/><g transform="translate(0 13.9)"><path d="M3163.654,1357.3h-57.5a1.333,1.333,0,0,1-1.333-1.332V1288.6a1.333,1.333,0,0,1,1.333-1.333h59.285a1.333,1.333,0,0,1,1.333,1.333v58.562a1.332,1.332,0,1,1-2.664,0v-57.231h-56.623v64.7h56.166a1.331,1.331,0,0,1,0,2.663Z" transform="translate(-3104.24 -1286.683)" fill="#fff"/><path d="M3163.864,1358.092h-57.5a1.919,1.919,0,0,1-1.917-1.916V1288.81a1.919,1.919,0,0,1,1.917-1.917h59.285a1.919,1.919,0,0,1,1.916,1.917v58.562a1.917,1.917,0,1,1-3.833,0v-56.646h-55.452v63.533h55.58a1.917,1.917,0,1,1,0,3.833Zm-57.5-70.03a.748.748,0,0,0-.747.747v67.367a.747.747,0,0,0,.747.745h57.5a.746.746,0,1,0,0-1.493h-56.751v-65.873h57.793v57.816a.746.746,0,1,0,1.493,0V1288.81a.748.748,0,0,0-.746-.747Z" transform="translate(-3104.45 -1286.893)" fill="#fff"/></g><g transform="translate(24.187 7.003)"><path d="M3132.573,1285.51h-10.913a1.332,1.332,0,1,1,0-2.663h10.913a1.332,1.332,0,0,1,0,2.663Z" transform="translate(-3119.744 -1282.262)" fill="#fff"/><path d="M3132.784,1286.3h-10.912a1.917,1.917,0,1,1,0-3.833h10.912a1.917,1.917,0,0,1,0,3.833Zm-10.912-2.663a.746.746,0,1,0,0,1.493h10.912a.746.746,0,0,0,0-1.493Z" transform="translate(-3119.954 -1282.472)" fill="#fff"/></g><g transform="translate(28.748 89.45)"><path d="M3126.375,1338.36h-1.79a1.331,1.331,0,1,1,0-2.663h1.79a1.331,1.331,0,0,1,0,2.663Z" transform="translate(-3122.668 -1335.112)" fill="#fff"/><path d="M3126.585,1339.155H3124.8a1.917,1.917,0,1,1,0-3.833h1.789a1.917,1.917,0,1,1,0,3.833Zm-1.789-2.663a.747.747,0,1,0,0,1.493h1.789a.747.747,0,1,0,0-1.493Z" transform="translate(-3122.878 -1335.322)" fill="#fff"/></g><g transform="translate(5.875 24.403)"><path d="M3133.754,1344.327a25.163,25.163,0,1,1,25.163-25.163A25.191,25.191,0,0,1,3133.754,1344.327Zm0-47.663a22.5,22.5,0,1,0,22.5,22.5A22.525,22.525,0,0,0,3133.754,1296.664Z" transform="translate(-3108.006 -1293.416)" fill="#fff"/><path d="M3133.964,1345.122a25.748,25.748,0,1,1,25.749-25.748A25.778,25.778,0,0,1,3133.964,1345.122Zm0-50.326a24.578,24.578,0,1,0,24.578,24.578A24.6,24.6,0,0,0,3133.964,1294.8Zm0,47.663a23.085,23.085,0,1,1,23.085-23.085A23.113,23.113,0,0,1,3133.964,1342.459Zm0-45a21.915,21.915,0,1,0,21.916,21.915A21.94,21.94,0,0,0,3133.964,1297.459Z" transform="translate(-3108.216 -1293.626)" fill="#fff"/><g transform="translate(37.957 38.74)"><path d="M3154.251,1344.321a4.864,4.864,0,0,1-3.452-1.429l-17.488-17.489a1.331,1.331,0,0,1,1.884-1.882l17.488,17.488a2.256,2.256,0,0,0,3.19-3.192l-16.725-16.724a1.331,1.331,0,1,1,1.883-1.883l16.725,16.725a4.893,4.893,0,0,1,0,6.925A4.94,4.94,0,0,1,3154.251,1344.321Z" transform="translate(-3132.338 -1318.256)" fill="#fff"/><path d="M3154.462,1345.109a5.436,5.436,0,0,1-3.867-1.6l-17.489-17.488a1.928,1.928,0,0,1,0-2.713,1.909,1.909,0,0,1,1.355-.56h0a1.916,1.916,0,0,1,1.356.56l17.489,17.488a1.669,1.669,0,0,0,2.36-2.362l-16.724-16.724a1.915,1.915,0,0,1,0-2.711,1.966,1.966,0,0,1,2.71,0l16.725,16.724a5.485,5.485,0,0,1,0,7.755A5.518,5.518,0,0,1,3154.462,1345.109Zm-20-21.19h0a.737.737,0,0,0-.527.219.746.746,0,0,0,0,1.056l17.488,17.486a4.425,4.425,0,0,0,6.128-.03,4.307,4.307,0,0,0,0-6.1l-16.724-16.725a.759.759,0,0,0-1.055,0,.745.745,0,0,0,0,1.055l16.727,16.722a2.842,2.842,0,0,1-4.02,4.02l-17.488-17.486A.738.738,0,0,0,3134.463,1323.919Z" transform="translate(-3132.547 -1318.459)" fill="#fff"/></g><g transform="translate(8.839 13.294)"><g transform="translate(0 17.346)"><path d="M3145.573,1316.3h-29.985a1.331,1.331,0,0,1,0-2.661h29.985a1.331,1.331,0,1,1,0,2.661Z" transform="translate(-3113.672 -1313.057)" fill="#fff"/><path d="M3145.783,1317.1H3115.8a1.917,1.917,0,0,1,0-3.833h29.985a1.917,1.917,0,1,1,0,3.833Zm-29.985-2.663a.747.747,0,0,0,0,1.493h29.985a.747.747,0,1,0,0-1.493Z" transform="translate(-3113.882 -1313.267)" fill="#fff"/></g><g transform="translate(3.577)"><g transform="translate(0 10.708)"><path d="M3117.881,1317.941a1.331,1.331,0,0,1-1.331-1.332v-5.891a1.331,1.331,0,1,1,2.663,0v5.891A1.332,1.332,0,0,1,3117.881,1317.941Z" transform="translate(-3115.965 -1308.802)" fill="#fff"/><path d="M3118.091,1318.736a1.918,1.918,0,0,1-1.916-1.916v-5.892a1.917,1.917,0,0,1,3.833,0v5.892A1.919,1.919,0,0,1,3118.091,1318.736Zm0-8.554a.746.746,0,0,0-.746.746v5.892a.747.747,0,0,0,1.493,0v-5.892A.747.747,0,0,0,3118.091,1310.182Z" transform="translate(-3116.175 -1309.012)" fill="#fff"/></g><g transform="translate(5.708 4.838)"><path d="M3121.54,1320.048a1.332,1.332,0,0,1-1.331-1.332v-11.759a1.332,1.332,0,1,1,2.663,0v11.759A1.331,1.331,0,0,1,3121.54,1320.048Z" transform="translate(-3119.624 -1305.039)" fill="#fff"/><path d="M3121.751,1320.843a1.919,1.919,0,0,1-1.917-1.916v-11.762a1.917,1.917,0,0,1,3.833,0v11.762A1.918,1.918,0,0,1,3121.751,1320.843Zm0-14.424a.748.748,0,0,0-.747.746v11.762a.746.746,0,0,0,1.493,0v-11.762A.748.748,0,0,0,3121.751,1306.419Z" transform="translate(-3119.834 -1305.249)" fill="#fff"/></g><g transform="translate(22.832)"><path d="M3132.517,1321.784a1.333,1.333,0,0,1-1.332-1.333v-16.6a1.333,1.333,0,0,1,2.665,0v16.6A1.333,1.333,0,0,1,3132.517,1321.784Z" transform="translate(-3130.601 -1301.937)" fill="#fff"/><path d="M3132.727,1322.58a1.917,1.917,0,0,1-1.916-1.916v-16.6a1.917,1.917,0,1,1,3.833,0v16.6A1.918,1.918,0,0,1,3132.727,1322.58Zm0-19.262a.748.748,0,0,0-.746.747v16.6a.746.746,0,0,0,1.493,0v-16.6A.748.748,0,0,0,3132.727,1303.318Z" transform="translate(-3130.811 -1302.148)" fill="#fff"/></g><g transform="translate(17.123 6.167)"><path d="M3128.858,1319.571a1.333,1.333,0,0,1-1.333-1.332v-10.432a1.333,1.333,0,0,1,2.665,0v10.432A1.333,1.333,0,0,1,3128.858,1319.571Z" transform="translate(-3126.941 -1305.891)" fill="#fff"/><path d="M3129.068,1320.366a1.919,1.919,0,0,1-1.918-1.916v-10.433a1.917,1.917,0,0,1,3.835,0v10.433A1.919,1.919,0,0,1,3129.068,1320.366Zm0-13.1a.746.746,0,0,0-.747.746v10.433a.747.747,0,0,0,1.494,0v-10.433A.747.747,0,0,0,3129.068,1307.271Z" transform="translate(-3127.15 -1306.101)" fill="#fff"/></g><g transform="translate(11.415 8.618)"><path d="M3125.2,1318.692a1.332,1.332,0,0,1-1.332-1.332v-7.981a1.332,1.332,0,1,1,2.665,0v7.981A1.333,1.333,0,0,1,3125.2,1318.692Z" transform="translate(-3123.282 -1307.463)" fill="#fff"/><path d="M3125.409,1319.486a1.918,1.918,0,0,1-1.917-1.916v-7.984a1.917,1.917,0,0,1,3.833,0v7.984A1.917,1.917,0,0,1,3125.409,1319.486Zm0-10.644a.747.747,0,0,0-.747.744v7.984a.747.747,0,0,0,1.493,0v-7.984A.747.747,0,0,0,3125.409,1308.842Z" transform="translate(-3123.492 -1307.672)" fill="#fff"/></g></g></g></g></g></g></g></g></svg>