<svg xmlns="http://www.w3.org/2000/svg" xmlns:xlink="http://www.w3.org/1999/xlink" width="144.656" height="165.542" viewBox="0 0 144.656 165.542"><defs><radialGradient id="a" cx="0.5" cy="0.5" r="0.5" gradientUnits="objectBoundingBox"><stop offset="0" stop-color="#a3e7f6"/><stop offset="1" stop-color="#489aab"/></radialGradient><clipPath id="b"><rect width="100" height="100" fill="#fff"/></clipPath></defs><g transform="translate(-930 -2655)"><path d="M-1899.921,186.9a82.98,82.98,0,0,1-27.611-18.247,82.525,82.525,0,0,1-18.334-27.477q-1.121-2.752-2.038-5.56a83.384,83.384,0,0,0,8.442-69.492,83.271,83.271,0,0,1,11.93-14.94,82.975,82.975,0,0,1,27.61-18.247,83.368,83.368,0,0,1,24.346-5.79,83.323,83.323,0,0,1,24.344,5.79,82.962,82.962,0,0,1,27.611,18.247,83.253,83.253,0,0,1,11.93,14.939,83.375,83.375,0,0,0,8.443,69.493q-.917,2.807-2.039,5.56a82.525,82.525,0,0,1-18.334,27.477,82.987,82.987,0,0,1-27.611,18.247,83.348,83.348,0,0,1-24.344,5.789A83.342,83.342,0,0,1-1899.921,186.9Z" transform="translate(2877.904 2627.848)" opacity="0.8" fill="url(#a)"/><g transform="translate(953 2688)"><g transform="translate(0)" clip-path="url(#b)"><g transform="translate(-0.196 0.506)"><path d="M3270.7,1399.806l-21.012-16.186a2.614,2.614,0,0,0-1.583-.559,3.058,3.058,0,0,0-2.857,3.242v7.387a35.748,35.748,0,0,0-14.408,2.874V1377.48h7.776c2.627,0,4.186-2.517,2.718-4.386l-16.391-20.75a3.6,3.6,0,0,0-5.42,0l-16.376,20.75c-1.482,1.869.076,4.386,2.7,4.386h7.133v19.033a35.985,35.985,0,0,0-14.317-2.822V1386.3a3.058,3.058,0,0,0-2.857-3.242,2.615,2.615,0,0,0-1.583.559l-21.013,16.186a3.48,3.48,0,0,0,0,5.352l21.013,16.172a2.529,2.529,0,0,0,1.583.559,3.045,3.045,0,0,0,2.857-3.228v-7.336c8.1,0,13.725,3.75,14.317,13.6.039.572.052,1.158.052,1.767v23.013h17.806l.051-23.178c.039.737,0-.6,0,.165,0-11.175,5.794-15.37,14.356-15.37v7.336a3.045,3.045,0,0,0,2.857,3.228,2.528,2.528,0,0,0,1.583-.559l21.012-16.172A3.479,3.479,0,0,0,3270.7,1399.806Zm-1.828,3.025-20.639,15.892v-10.349h-2.986c-6.67,0-11.562,2.314-14.408,6.688a15.46,15.46,0,0,0-1.042,1.881,22.933,22.933,0,0,0-1.894,9.752c0-.6.027.584,0,0l-.038,20.062h-11.9v-21.575a21.538,21.538,0,0,0-1.854-8.227,14.736,14.736,0,0,0-1.133-2.034c-2.87-4.284-7.711-6.547-14.317-6.547h-2.986v10.349l-20.639-15.892a.535.535,0,0,1-.1-.356.484.484,0,0,1,.1-.342l20.639-15.894v10.387h2.986a32.393,32.393,0,0,1,14.317,3.153,25.608,25.608,0,0,1,2.987,1.69v-26.928h-10.184l16.094-20.38a.52.52,0,0,1,.361-.1.5.5,0,0,1,.347.1l16.093,20.38h-10.814v26.967a27.813,27.813,0,0,1,2.974-1.69,32.407,32.407,0,0,1,14.408-3.192h2.986v-10.387l20.639,15.894a.477.477,0,0,1,.1.342A.526.526,0,0,1,3268.873,1402.832Z" transform="translate(-3171.76 -1350.916)" fill="#fff"/><path d="M3231.106,1449.973h-18.2v-23.206c0-.692-.015-1.25-.051-1.755-.531-8.842-5.215-13.354-13.926-13.422v7.139a3.259,3.259,0,0,1-3.054,3.425,2.739,2.739,0,0,1-1.7-.6l-21.01-16.172a3.675,3.675,0,0,1,0-5.662l21.011-16.183a2.814,2.814,0,0,1,1.7-.6,3.267,3.267,0,0,1,3.054,3.438v7.192a35.907,35.907,0,0,1,13.926,2.722v-18.541h-6.937a3.462,3.462,0,0,1-3.2-1.847,2.624,2.624,0,0,1,.345-2.858l16.378-20.748a3.682,3.682,0,0,1,2.869-1.308,3.622,3.622,0,0,1,2.856,1.308l16.389,20.75a2.656,2.656,0,0,1,.334,2.858,3.471,3.471,0,0,1-3.2,1.845h-7.581v18.589a35.776,35.776,0,0,1,14.015-2.77v-7.192a3.267,3.267,0,0,1,3.055-3.437,2.807,2.807,0,0,1,1.7.6l21.016,16.185a3.68,3.68,0,0,1,0,5.664l-21.014,16.17a2.727,2.727,0,0,1-1.7.6,3.259,3.259,0,0,1-3.055-3.425v-7.139c-9.185.07-13.881,5.086-13.962,14.914a1.292,1.292,0,0,1,.014.208.608.608,0,0,1-.015.188Zm-17.806-.391h17.415l.052-22.982c.052-10.221,4.947-15.4,14.55-15.4h.2v7.53a2.863,2.863,0,0,0,2.664,3.034,2.34,2.34,0,0,0,1.462-.519l21.014-16.17a3.287,3.287,0,0,0,0-5.044v0l-21.012-16.184a2.419,2.419,0,0,0-1.464-.519,2.872,2.872,0,0,0-2.664,3.047v7.583h-.2a35.349,35.349,0,0,0-14.326,2.856l-.275.121v-19.577h7.972a3.084,3.084,0,0,0,2.852-1.625,2.25,2.25,0,0,0-.289-2.447l-16.387-20.748a3.237,3.237,0,0,0-2.551-1.159,3.3,3.3,0,0,0-2.564,1.161l-16.376,20.747a2.248,2.248,0,0,0-.3,2.447,3.08,3.08,0,0,0,2.852,1.625h7.327v19.525l-.273-.12a35.55,35.55,0,0,0-14.239-2.8h-.2v-7.583a2.872,2.872,0,0,0-2.664-3.047,2.428,2.428,0,0,0-1.466.52l-21.01,16.183a3.286,3.286,0,0,0,0,5.044l21.011,16.172a2.359,2.359,0,0,0,1.465.519,2.864,2.864,0,0,0,2.664-3.034v-7.53h.2c9.08,0,13.962,4.638,14.512,13.786.037.515.052,1.08.052,1.782Zm14.831-2.559h-12.286v-21.771a21.385,21.385,0,0,0-1.836-8.144,14.47,14.47,0,0,0-1.118-2.008c-2.872-4.286-7.636-6.461-14.156-6.461h-2.791v10.55l-.314-.242-20.639-15.892a.669.669,0,0,1-.18-.509c0-.209.073-.453.214-.521l20.919-16.114V1396.5h2.791a32.779,32.779,0,0,1,14.4,3.173,24.914,24.914,0,0,1,2.705,1.508V1374.81h-10.393l.25-.316,16.1-20.381c.043-.11.3-.177.512-.177a.627.627,0,0,1,.521.2l16.323,20.669h-11.023v26.413a27.913,27.913,0,0,1,2.694-1.509,32.814,32.814,0,0,1,14.492-3.211h2.794v-10.589l.314.242,20.638,15.894c.1.045.18.291.18.5a.693.693,0,0,1-.162.494l-.018.016-20.952,16.134v-10.55h-2.794c-6.6,0-11.4,2.22-14.244,6.6a15.186,15.186,0,0,0-1.028,1.856,22.67,22.67,0,0,0-1.875,9.5,1.145,1.145,0,0,1,.01.162.934.934,0,0,1-.01.227Zm-11.9-.391h11.5l.039-19.866v-.02a23.122,23.122,0,0,1,1.911-9.814,15.455,15.455,0,0,1,1.057-1.906c2.884-4.433,7.923-6.777,14.57-6.777h3.185V1418.4l20.3-15.636a.409.409,0,0,0,.047-.214.418.418,0,0,0-.046-.208h0l-20.306-15.633v10.186h-3.185a32.422,32.422,0,0,0-14.32,3.171,27.609,27.609,0,0,0-2.953,1.678l-.3.2v-27.52h10.607l-15.842-20.066h0a.794.794,0,0,0-.194-.028.462.462,0,0,0-.228.047h0l-15.825,20.047h9.978V1401.9l-.3-.2a25.043,25.043,0,0,0-2.965-1.678,32.381,32.381,0,0,0-14.233-3.134h-3.182v-10.186l-20.325,15.651h0a1.026,1.026,0,0,0-.026.189.4.4,0,0,0,.051.223l20.3,15.627V1408.25h3.182c6.659,0,11.531,2.233,14.479,6.634a14.892,14.892,0,0,1,1.149,2.059,21.817,21.817,0,0,1,1.872,8.3Z" transform="translate(-3171.832 -1350.986)" fill="#fff"/></g></g></g></g></svg>