<svg xmlns="http://www.w3.org/2000/svg" xmlns:xlink="http://www.w3.org/1999/xlink" width="144.656" height="165.542" viewBox="0 0 144.656 165.542"><defs><radialGradient id="a" cx="0.5" cy="0.5" r="0.5" gradientUnits="objectBoundingBox"><stop offset="0" stop-color="#a3e7f6"/><stop offset="1" stop-color="#489aab"/></radialGradient><clipPath id="b"><rect width="100" height="100" fill="#fff"/></clipPath></defs><g transform="translate(-372 -2655)"><path d="M-1899.921,186.9a82.98,82.98,0,0,1-27.611-18.247,82.525,82.525,0,0,1-18.334-27.477q-1.121-2.752-2.038-5.56a83.384,83.384,0,0,0,8.442-69.492,83.271,83.271,0,0,1,11.93-14.94,82.975,82.975,0,0,1,27.61-18.247,83.368,83.368,0,0,1,24.346-5.79,83.323,83.323,0,0,1,24.344,5.79,82.962,82.962,0,0,1,27.611,18.247,83.253,83.253,0,0,1,11.93,14.939,83.375,83.375,0,0,0,8.443,69.493q-.917,2.807-2.039,5.56a82.525,82.525,0,0,1-18.334,27.477,82.987,82.987,0,0,1-27.611,18.247,83.348,83.348,0,0,1-24.344,5.789A83.342,83.342,0,0,1-1899.921,186.9Z" transform="translate(2319.904 2627.848)" opacity="0.8" fill="url(#a)"/><g transform="translate(395 2688)"><g clip-path="url(#b)"><g transform="translate(0.586 9.105)"><g transform="translate(52.567 68.417)"><path d="M3322.586,1416.514h-42.8a1.191,1.191,0,0,1-1.166-1.214v-9.774a1.191,1.191,0,0,1,1.166-1.215h42.8a1.191,1.191,0,0,1,1.166,1.215v9.774A1.191,1.191,0,0,1,3322.586,1416.514Zm-41.636-2.428h40.472v-7.345h-40.472Z" transform="translate(-3278.048 -1403.727)" fill="#fff"/><path d="M3322.793,1417.31h-42.8a1.771,1.771,0,0,1-1.736-1.8v-9.774a1.771,1.771,0,0,1,1.736-1.8h42.8a1.77,1.77,0,0,1,1.737,1.8v9.774A1.77,1.77,0,0,1,3322.793,1417.31Zm-42.8-12.2a.612.612,0,0,0-.592.628v9.774a.611.611,0,0,0,.592.628h42.8a.611.611,0,0,0,.592-.628v-9.774a.612.612,0,0,0-.592-.628Zm42.211,9.773h-41.617v-8.517H3322.2Zm-40.471-1.172h39.326v-6.173h-39.326Z" transform="translate(-3278.255 -1403.937)" fill="#fff"/></g><g transform="translate(52.567 58.642)"><path d="M3322.586,1410.259h-42.8a1.191,1.191,0,0,1-1.166-1.214v-9.775a1.191,1.191,0,0,1,1.166-1.214h42.8a1.191,1.191,0,0,1,1.166,1.214v9.775A1.191,1.191,0,0,1,3322.586,1410.259Zm-41.636-2.429h40.472v-7.344h-40.472Z" transform="translate(-3278.048 -1397.47)" fill="#fff"/><path d="M3322.793,1411.056h-42.8a1.772,1.772,0,0,1-1.736-1.8v-9.775a1.772,1.772,0,0,1,1.736-1.8h42.8a1.772,1.772,0,0,1,1.737,1.8v9.775A1.772,1.772,0,0,1,3322.793,1411.056Zm-42.8-12.2a.612.612,0,0,0-.592.628v9.775a.611.611,0,0,0,.592.628h42.8a.611.611,0,0,0,.592-.628v-9.775a.612.612,0,0,0-.592-.628Zm42.211,9.775h-41.617v-8.518H3322.2Zm-40.471-1.172h39.326v-6.174h-39.326Z" transform="translate(-3278.255 -1397.681)" fill="#fff"/></g><g transform="translate(52.567 48.869)"><path d="M3322.586,1404h-42.8a1.192,1.192,0,0,1-1.166-1.216v-9.773a1.191,1.191,0,0,1,1.166-1.214h42.8a1.191,1.191,0,0,1,1.166,1.214v9.773A1.191,1.191,0,0,1,3322.586,1404Zm-41.636-2.429h40.472v-7.346h-40.472Z" transform="translate(-3278.048 -1391.215)" fill="#fff"/><path d="M3322.793,1404.8h-42.8a1.773,1.773,0,0,1-1.736-1.8v-9.773a1.772,1.772,0,0,1,1.736-1.8h42.8a1.772,1.772,0,0,1,1.737,1.8V1403A1.772,1.772,0,0,1,3322.793,1404.8Zm-42.8-12.2a.612.612,0,0,0-.592.628V1403a.612.612,0,0,0,.592.63h42.8a.612.612,0,0,0,.592-.63v-9.773a.612.612,0,0,0-.592-.628Zm42.211,9.773h-41.617v-8.516H3322.2Zm-40.471-1.172h39.326v-6.172h-39.326Z" transform="translate(-3278.255 -1391.426)" fill="#fff"/></g><g transform="translate(52.567 39.094)"><path d="M3322.586,1397.747h-42.8a1.19,1.19,0,0,1-1.166-1.214v-9.773a1.19,1.19,0,0,1,1.166-1.214h42.8a1.19,1.19,0,0,1,1.166,1.214v9.773A1.19,1.19,0,0,1,3322.586,1397.747Zm-41.636-2.428h40.472v-7.345h-40.472Z" transform="translate(-3278.048 -1384.959)" fill="#fff"/><path d="M3322.793,1398.546h-42.8a1.772,1.772,0,0,1-1.736-1.8v-9.773a1.772,1.772,0,0,1,1.736-1.8h42.8a1.772,1.772,0,0,1,1.737,1.8v9.773A1.772,1.772,0,0,1,3322.793,1398.546Zm-42.8-12.2a.612.612,0,0,0-.592.629v9.773a.613.613,0,0,0,.592.63h42.8a.612.612,0,0,0,.592-.63v-9.773a.612.612,0,0,0-.592-.629Zm42.211,9.775h-41.617V1387.6H3322.2Zm-40.471-1.172h39.326v-6.174h-39.326Z" transform="translate(-3278.255 -1385.17)" fill="#fff"/></g><g transform="translate(26.464 19.548)"><path d="M3305.881,1385.238h-42.8a1.191,1.191,0,0,1-1.166-1.214v-9.773a1.191,1.191,0,0,1,1.166-1.216h42.8a1.191,1.191,0,0,1,1.166,1.216v9.773A1.19,1.19,0,0,1,3305.881,1385.238Zm-41.636-2.429h40.472v-7.344h-40.472Z" transform="translate(-3261.343 -1372.451)" fill="#fff"/><path d="M3306.088,1386.035h-42.8a1.772,1.772,0,0,1-1.736-1.8v-9.773a1.771,1.771,0,0,1,1.736-1.8h42.8a1.771,1.771,0,0,1,1.736,1.8v9.773A1.772,1.772,0,0,1,3306.088,1386.035Zm-42.8-12.2a.611.611,0,0,0-.591.628v9.773a.612.612,0,0,0,.591.628h42.8a.611.611,0,0,0,.591-.628v-9.773a.61.61,0,0,0-.591-.628Zm42.21,9.772h-41.617v-8.516h41.617Zm-40.472-1.172h39.326v-6.172h-39.326Z" transform="translate(-3261.549 -1372.661)" fill="#fff"/></g><g transform="translate(26.464 9.773)"><path d="M3305.881,1378.983h-42.8a1.191,1.191,0,0,1-1.166-1.214v-9.775a1.191,1.191,0,0,1,1.166-1.214h42.8a1.191,1.191,0,0,1,1.166,1.214v9.775A1.191,1.191,0,0,1,3305.881,1378.983Zm-41.636-2.43h40.472v-7.345h-40.472Z" transform="translate(-3261.343 -1366.194)" fill="#fff"/><path d="M3306.088,1379.78h-42.8a1.771,1.771,0,0,1-1.736-1.8v-9.775a1.771,1.771,0,0,1,1.736-1.8h42.8a1.771,1.771,0,0,1,1.736,1.8v9.775A1.771,1.771,0,0,1,3306.088,1379.78Zm-42.8-12.2a.611.611,0,0,0-.591.628v9.775a.611.611,0,0,0,.591.628h42.8a.61.61,0,0,0,.591-.628v-9.775a.61.61,0,0,0-.591-.628Zm42.21,9.775h-41.617v-8.519h41.617Zm-40.472-1.172h39.326v-6.175h-39.326Z" transform="translate(-3261.549 -1366.405)" fill="#fff"/></g><g transform="translate(26.464)"><path d="M3305.881,1372.726h-42.8a1.19,1.19,0,0,1-1.166-1.214v-9.773a1.191,1.191,0,0,1,1.166-1.214h42.8a1.191,1.191,0,0,1,1.166,1.214v9.773A1.189,1.189,0,0,1,3305.881,1372.726Zm-41.636-2.428h40.472v-7.345h-40.472Z" transform="translate(-3261.343 -1359.939)" fill="#fff"/><path d="M3306.088,1373.524h-42.8a1.771,1.771,0,0,1-1.736-1.8v-9.774a1.771,1.771,0,0,1,1.736-1.8h42.8a1.771,1.771,0,0,1,1.736,1.8v9.774A1.771,1.771,0,0,1,3306.088,1373.524Zm-42.8-12.2a.611.611,0,0,0-.591.628v9.774a.611.611,0,0,0,.591.628h42.8a.61.61,0,0,0,.591-.628v-9.774a.61.61,0,0,0-.591-.628Zm42.21,9.774h-41.617v-8.517h41.617Zm-40.472-1.172h39.326v-6.173h-39.326Z" transform="translate(-3261.549 -1360.15)" fill="#fff"/></g><g transform="translate(26.464 68.417)"><path d="M3289.184,1416.514h-26.1a1.191,1.191,0,0,1-1.166-1.214v-.655a1.209,1.209,0,0,1,.891-1.181,20.208,20.208,0,0,0,11.947-8.622,1.154,1.154,0,0,1,.962-.531h13.469a1.19,1.19,0,0,1,1.164,1.215v9.774A1.19,1.19,0,0,1,3289.184,1416.514Zm-21.211-2.428h20.046v-7.345h-11.7A22.8,22.8,0,0,1,3267.973,1414.086Z" transform="translate(-3261.343 -1403.727)" fill="#fff"/><path d="M3289.388,1417.31h-26.1a1.771,1.771,0,0,1-1.736-1.8v-.655a1.787,1.787,0,0,1,1.324-1.75,19.631,19.631,0,0,0,11.609-8.378,1.72,1.72,0,0,1,1.439-.79h13.467a1.771,1.771,0,0,1,1.74,1.8v9.774A1.771,1.771,0,0,1,3289.388,1417.31Zm-13.467-12.2a.584.584,0,0,0-.488.27,20.786,20.786,0,0,1-12.284,8.866.62.62,0,0,0-.455.611v.655a.611.611,0,0,0,.591.628h26.1a.613.613,0,0,0,.594-.628v-9.774a.613.613,0,0,0-.594-.628Zm12.875,9.773H3265.75l2.172-1.111a22.3,22.3,0,0,0,8.138-7.159l.17-.247H3288.8Zm-18.433-1.172h17.289v-6.173h-10.833A23.6,23.6,0,0,1,3270.363,1413.71Z" transform="translate(-3261.549 -1403.937)" fill="#fff"/></g><g transform="translate(39.099 58.642)"><path d="M3284.635,1410.259h-13.468a1.159,1.159,0,0,1-1.03-.647,1.258,1.258,0,0,1,.068-1.251,21.664,21.664,0,0,0,3.326-9.239,1.183,1.183,0,0,1,1.157-1.066h9.948a1.191,1.191,0,0,1,1.165,1.214v9.775A1.19,1.19,0,0,1,3284.635,1410.259Zm-11.392-2.429h10.227v-7.344h-7.776A24.319,24.319,0,0,1,3273.243,1407.83Z" transform="translate(-3269.43 -1397.47)" fill="#fff"/><path d="M3284.839,1411.056h-13.467a1.728,1.728,0,0,1-1.537-.961,1.856,1.856,0,0,1,.1-1.848,21.068,21.068,0,0,0,3.236-8.984,1.763,1.763,0,0,1,1.724-1.581h9.946a1.773,1.773,0,0,1,1.74,1.8v9.775A1.773,1.773,0,0,1,3284.839,1411.056Zm-9.946-12.2a.608.608,0,0,0-.588.552,22.246,22.246,0,0,1-3.42,9.493.664.664,0,0,0-.034.658.591.591,0,0,0,.522.328h13.467a.613.613,0,0,0,.594-.628v-9.775a.614.614,0,0,0-.594-.628Zm9.354,9.775h-11.755l.453-.864a23.574,23.574,0,0,0,2.388-7.164l.082-.489h8.833Zm-9.863-1.172h8.719v-6.174h-6.726A24.831,24.831,0,0,1,3274.385,1407.456Z" transform="translate(-3269.635 -1397.681)" fill="#fff"/></g><g transform="translate(41.711 48.869)"><path d="M3283.7,1404h-9.948a1.15,1.15,0,0,1-.874-.411,1.251,1.251,0,0,1-.282-.953,21.2,21.2,0,0,0-.859-9.244,1.255,1.255,0,0,1,.162-1.092,1.151,1.151,0,0,1,.943-.5H3283.7a1.19,1.19,0,0,1,1.164,1.214v9.773A1.191,1.191,0,0,1,3283.7,1404Zm-8.66-2.429h7.495v-7.346h-8.138a24.349,24.349,0,0,1,.7,5.791C3275.094,1400.52,3275.075,1401.029,3275.036,1401.575Z" transform="translate(-3271.103 -1391.215)" fill="#fff"/><path d="M3283.9,1404.8h-9.946a1.708,1.708,0,0,1-1.305-.614,1.846,1.846,0,0,1-.418-1.4,21.826,21.826,0,0,0,.168-2.552,21.369,21.369,0,0,0-1-6.442,1.856,1.856,0,0,1,.237-1.611,1.726,1.726,0,0,1,1.411-.751H3283.9a1.772,1.772,0,0,1,1.739,1.8V1403A1.773,1.773,0,0,1,3283.9,1404.8Zm-10.856-12.2a.591.591,0,0,0-.478.256.668.668,0,0,0-.083.572,22.5,22.5,0,0,1,1.06,6.8,22.839,22.839,0,0,1-.177,2.691.659.659,0,0,0,.147.5.585.585,0,0,0,.441.208h9.946a.614.614,0,0,0,.594-.63v-9.773a.614.614,0,0,0-.594-.628Zm10.264,9.773h-8.68l.045-.628c.036-.53.056-1.027.056-1.513a23.756,23.756,0,0,0-.684-5.645l-.18-.73h9.443Zm-7.457-1.172h6.313v-6.172h-6.842a24.915,24.915,0,0,1,.552,5.2C3275.872,1400.548,3275.865,1400.868,3275.849,1401.2Z" transform="translate(-3271.307 -1391.426)" fill="#fff"/></g><g transform="translate(35.482 39.094)"><path d="M3285.938,1397.747H3275.08a1.169,1.169,0,0,1-1.106-.833,21.2,21.2,0,0,0-5.891-9.241,1.255,1.255,0,0,1-.322-1.342,1.167,1.167,0,0,1,1.09-.786h17.086a1.189,1.189,0,0,1,1.164,1.214v9.773A1.189,1.189,0,0,1,3285.938,1397.747Zm-10.032-2.428h8.867v-7.345h-13.1A23.735,23.735,0,0,1,3275.905,1395.319Z" transform="translate(-3267.115 -1384.959)" fill="#fff"/><path d="M3286.141,1398.546h-10.856a1.737,1.737,0,0,1-1.649-1.239,20.611,20.611,0,0,0-5.728-8.985,1.856,1.856,0,0,1-.477-1.984,1.745,1.745,0,0,1,1.626-1.169h17.084a1.773,1.773,0,0,1,1.74,1.8v9.773A1.773,1.773,0,0,1,3286.141,1398.546Zm-17.084-12.2a.6.6,0,0,0-.553.4.652.652,0,0,0,.167.7,21.8,21.8,0,0,1,6.053,9.5.594.594,0,0,0,.56.429h10.856a.615.615,0,0,0,.595-.63v-9.773a.614.614,0,0,0-.595-.629Zm16.492,9.775h-9.838l-.137-.384a23.056,23.056,0,0,0-4.132-7.163l-.824-.97h14.931Zm-9.042-1.172h7.9v-6.174h-11.318A24.234,24.234,0,0,1,3276.507,1394.945Z" transform="translate(-3267.321 -1385.17)" fill="#fff"/></g><g transform="translate(26.464 29.32)"><path d="M3305.881,1391.493H3272.1a1.143,1.143,0,0,1-.769-.3,19.982,19.982,0,0,0-8.523-4.619,1.207,1.207,0,0,1-.891-1.18v-4.889a1.191,1.191,0,0,1,1.166-1.215h42.8a1.191,1.191,0,0,1,1.166,1.215v9.774A1.19,1.19,0,0,1,3305.881,1391.493Zm-33.351-2.428h32.188v-7.345h-40.472v2.74A22.34,22.34,0,0,1,3272.53,1389.065Z" transform="translate(-3261.343 -1378.704)" fill="#fff"/><path d="M3306.088,1392.29H3272.3a1.705,1.705,0,0,1-1.148-.448,19.379,19.379,0,0,0-8.281-4.486,1.787,1.787,0,0,1-1.325-1.75v-4.889a1.772,1.772,0,0,1,1.736-1.8h42.8a1.772,1.772,0,0,1,1.736,1.8v9.773A1.772,1.772,0,0,1,3306.088,1392.29Zm-42.8-12.2a.613.613,0,0,0-.591.63v4.889a.619.619,0,0,0,.456.611,20.576,20.576,0,0,1,8.768,4.748.566.566,0,0,0,.385.153h33.784a.611.611,0,0,0,.591-.628v-9.773a.611.611,0,0,0-.591-.63Zm42.21,9.774h-32.972l-.161-.141a21.867,21.867,0,0,0-8.072-4.486l-.412-.123v-3.766h41.617Zm-32.55-1.172h31.4v-6.172h-39.326v1.72A23.068,23.068,0,0,1,3272.945,1388.689Z" transform="translate(-3261.549 -1378.915)" fill="#fff"/></g><g transform="translate(35.481 39.094)"><path d="M3285.937,1387.974h-17.086a1.215,1.215,0,0,1,0-2.428h17.086a1.215,1.215,0,0,1,0,2.428Z" transform="translate(-3267.114 -1384.959)" fill="#fff"/><path d="M3286.142,1388.771h-17.085a1.8,1.8,0,0,1,0-3.6h17.085a1.8,1.8,0,0,1,0,3.6Zm-17.085-2.429a.63.63,0,0,0,0,1.257h17.085a.63.63,0,0,0,0-1.257Z" transform="translate(-3267.32 -1385.17)" fill="#fff"/></g><g transform="translate(0 33.555)"><path d="M3267.542,1429.064c-12.441,0-22.563-10.556-22.563-23.531S3255.1,1382,3267.542,1382a21.81,21.81,0,0,1,5.339.688,22.293,22.293,0,0,1,9.509,5.152,23.649,23.649,0,0,1,6.567,10.306h0a23.754,23.754,0,0,1,.959,10.3,24.15,24.15,0,0,1-3.714,10.308,22.541,22.541,0,0,1-13.322,9.615A21.755,21.755,0,0,1,3267.542,1429.064Zm0-44.635c-11.157,0-20.235,9.467-20.235,21.1s9.078,21.1,20.235,21.1a19.5,19.5,0,0,0,4.79-.622,20.214,20.214,0,0,0,11.948-8.622,21.814,21.814,0,0,0,2.467-18.483h0a21.2,21.2,0,0,0-5.891-9.241,19.98,19.98,0,0,0-8.523-4.619A19.565,19.565,0,0,0,3267.542,1384.429Z" transform="translate(-3244.406 -1381.414)" fill="#fff"/><path d="M3267.749,1429.861c-12.757,0-23.137-10.819-23.137-24.117s10.38-24.119,23.137-24.119a22.408,22.408,0,0,1,5.477.706,22.893,22.893,0,0,1,9.753,5.281,24.27,24.27,0,0,1,6.73,10.566,24.992,24.992,0,0,1,1.179,7.566,25.585,25.585,0,0,1-.2,2.989,24.8,24.8,0,0,1-3.806,10.564,23.115,23.115,0,0,1-13.661,9.858A22.315,22.315,0,0,1,3267.749,1429.861Zm0-47.064c-12.127,0-21.992,10.294-21.992,22.947s9.865,22.945,21.992,22.945a21.183,21.183,0,0,0,5.2-.672,21.98,21.98,0,0,0,12.985-9.371,23.61,23.61,0,0,0,3.621-10.054,24.136,24.136,0,0,0,.187-2.849,23.784,23.784,0,0,0-1.124-7.2,23.062,23.062,0,0,0-6.4-10.053,21.772,21.772,0,0,0-9.265-5.019A21.286,21.286,0,0,0,3267.749,1382.8Zm0,44.636c-11.473,0-20.807-9.73-20.807-21.689s9.334-21.689,20.807-21.689a20.156,20.156,0,0,1,4.927.637,20.564,20.564,0,0,1,8.769,4.749,21.8,21.8,0,0,1,6.053,9.5,21.84,21.84,0,0,1,.883,9.495,22.243,22.243,0,0,1-3.42,9.5,20.789,20.789,0,0,1-12.285,8.866A20.168,20.168,0,0,1,3267.749,1427.433Zm0-42.206c-10.842,0-19.663,9.2-19.663,20.517s8.822,20.517,19.663,20.517a18.933,18.933,0,0,0,4.652-.6,19.629,19.629,0,0,0,11.608-8.379,21.063,21.063,0,0,0,3.236-8.984,21.681,21.681,0,0,0,.168-2.55,21.354,21.354,0,0,0-1-6.442,20.622,20.622,0,0,0-5.729-8.984,19.365,19.365,0,0,0-8.28-4.486A18.91,18.91,0,0,0,3267.749,1385.227Z" transform="translate(-3244.612 -1381.625)" fill="#fff"/><g transform="translate(15.652 8.567)"><g transform="translate(0 4.008)"><path d="M3261.779,1411.711a7.89,7.89,0,0,1-6.544-3.462,1.249,1.249,0,0,1,.216-1.7,1.132,1.132,0,0,1,1.633.225,5.918,5.918,0,0,0,7.7,1.781.849.849,0,0,1,.107-.05,2.96,2.96,0,0,0,1.554-3.1,3.672,3.672,0,0,0-2.454-3.119s-2.449-.762-4.863-1.508a5.157,5.157,0,0,1-4.011-5.309,5.068,5.068,0,0,1,1.608-3.8,7.6,7.6,0,0,1,5.359-1.624,6.909,6.909,0,0,1,6.694,4.831,1.22,1.22,0,0,1-.8,1.5,1.156,1.156,0,0,1-1.437-.823,4.565,4.565,0,0,0-4.483-3.08,5.488,5.488,0,0,0-3.8,1.021,2.621,2.621,0,0,0-.814,2c-.01,1.1.258,2.31,2.344,2.953,2.415.747,4.865,1.509,4.865,1.509a6.053,6.053,0,0,1,4.109,5.227,5.451,5.451,0,0,1-2.942,5.545A8.86,8.86,0,0,1,3261.779,1411.711Z" transform="translate(-3254.425 -1389.462)" fill="#fff"/><path d="M3261.983,1412.506a8.444,8.444,0,0,1-7-3.694,1.853,1.853,0,0,1,.322-2.517,1.666,1.666,0,0,1,1.283-.361,1.712,1.712,0,0,1,1.158.7,5.364,5.364,0,0,0,6.975,1.619l.155-.075a2.368,2.368,0,0,0,1.206-2.5,3.065,3.065,0,0,0-2.051-2.611c-.08-.027-2.486-.774-4.861-1.508a5.761,5.761,0,0,1-4.417-5.877,5.638,5.638,0,0,1,1.8-4.227c1.313-1.2,3.205-1.775,5.747-1.773a7.491,7.491,0,0,1,7.239,5.258,1.81,1.81,0,0,1-1.19,2.224,1.675,1.675,0,0,1-1.306-.145,1.777,1.777,0,0,1-.841-1.078,3.994,3.994,0,0,0-3.938-2.656,4.959,4.959,0,0,0-3.411.872,2.037,2.037,0,0,0-.624,1.566c-.008.9.135,1.83,1.938,2.386l4.867,1.511a6.646,6.646,0,0,1,4.511,5.734,6,6,0,0,1-3.283,6.133A9.286,9.286,0,0,1,3261.983,1412.506Zm-5.619-5.414a.559.559,0,0,0-.354.126.653.653,0,0,0-.113.889,7.343,7.343,0,0,0,6.086,3.227,8.347,8.347,0,0,0,3.778-.912,4.841,4.841,0,0,0,2.641-4.975,5.464,5.464,0,0,0-3.7-4.717l-4.869-1.508c-2.488-.77-2.761-2.378-2.75-3.521a3.187,3.187,0,0,1,1-2.428,5.992,5.992,0,0,1,4.189-1.17,5.16,5.16,0,0,1,5.021,3.494.615.615,0,0,0,.294.385.569.569,0,0,0,.434.05.634.634,0,0,0,.412-.779,6.33,6.33,0,0,0-6.15-4.406h-.137a7,7,0,0,0-4.835,1.475,4.489,4.489,0,0,0-1.416,3.366,4.565,4.565,0,0,0,3.6,4.741c4.884,1.511,4.911,1.523,4.955,1.547h0a4.212,4.212,0,0,1,2.766,3.591,3.531,3.531,0,0,1-1.894,3.686c-.269.14-5.092,2.709-8.5-1.916a.57.57,0,0,0-.393-.236A.38.38,0,0,0,3256.365,1407.092Z" transform="translate(-3254.629 -1389.673)" fill="#fff"/></g><g transform="translate(5.912)"><path d="M3259.944,1393.921a1.19,1.19,0,0,1-1.164-1.216V1388.7a1.165,1.165,0,1,1,2.329,0v4.008A1.19,1.19,0,0,1,3259.944,1393.921Z" transform="translate(-3258.206 -1386.897)" fill="#fff"/><path d="M3260.15,1394.717a1.772,1.772,0,0,1-1.737-1.8v-4.01a1.739,1.739,0,1,1,3.475,0v4.01A1.772,1.772,0,0,1,3260.15,1394.717Zm0-6.437a.611.611,0,0,0-.592.628v4.01a.593.593,0,1,0,1.184,0v-4.01A.611.611,0,0,0,3260.15,1388.28Z" transform="translate(-3258.413 -1387.108)" fill="#fff"/></g><g transform="translate(5.912 23.494)"><path d="M3259.944,1408.957a1.19,1.19,0,0,1-1.164-1.216v-4.006a1.165,1.165,0,1,1,2.329,0v4.006A1.19,1.19,0,0,1,3259.944,1408.957Z" transform="translate(-3258.206 -1401.933)" fill="#fff"/><path d="M3260.15,1409.753a1.772,1.772,0,0,1-1.737-1.8v-4.009a1.739,1.739,0,1,1,3.475,0v4.009A1.772,1.772,0,0,1,3260.15,1409.753Zm0-6.437a.612.612,0,0,0-.592.628v4.009a.593.593,0,1,0,1.184,0v-4.009A.612.612,0,0,0,3260.15,1403.316Z" transform="translate(-3258.413 -1402.144)" fill="#fff"/></g></g></g></g></g></g></g></svg>