<svg xmlns="http://www.w3.org/2000/svg" xmlns:xlink="http://www.w3.org/1999/xlink" width="144.656" height="165.542" viewBox="0 0 144.656 165.542"><defs><radialGradient id="a" cx="0.5" cy="0.5" r="0.5" gradientUnits="objectBoundingBox"><stop offset="0" stop-color="#a3e7f6"/><stop offset="1" stop-color="#489aab"/></radialGradient><clipPath id="b"><rect width="100" height="100" fill="#fff"/></clipPath></defs><g transform="translate(-930 -2955)"><path d="M-1899.921,186.9a82.98,82.98,0,0,1-27.611-18.247,82.525,82.525,0,0,1-18.334-27.477q-1.121-2.752-2.038-5.56a83.384,83.384,0,0,0,8.442-69.492,83.271,83.271,0,0,1,11.93-14.94,82.975,82.975,0,0,1,27.61-18.247,83.368,83.368,0,0,1,24.346-5.79,83.323,83.323,0,0,1,24.344,5.79,82.962,82.962,0,0,1,27.611,18.247,83.253,83.253,0,0,1,11.93,14.939,83.375,83.375,0,0,0,8.443,69.493q-.917,2.807-2.039,5.56a82.525,82.525,0,0,1-18.334,27.477,82.987,82.987,0,0,1-27.611,18.247,83.348,83.348,0,0,1-24.344,5.789A83.342,83.342,0,0,1-1899.921,186.9Z" transform="translate(2877.904 2927.848)" opacity="0.8" fill="url(#a)"/><g transform="translate(953 2988)"><g clip-path="url(#b)"><g transform="translate(-0.584 1.094)"><g transform="translate(0 8.652)"><path d="M3145.285,1446.946a44.58,44.58,0,0,1-.015-89.161h0a1.974,1.974,0,0,1,1.975,1.976v41.775l29.468,29.658a1.972,1.972,0,0,1-.009,2.794A44.3,44.3,0,0,1,3145.285,1446.946Zm-1.99-85.161a40.629,40.629,0,1,0,29.192,70.76l-28.6-28.786a1.977,1.977,0,0,1-.575-1.384v-.2a1.8,1.8,0,0,1-.014-.227Z" transform="translate(-3100.707 -1357.785)" fill="#fff"/></g><g transform="translate(53.442 50.03)"><path d="M3166.915,1418.858h-.007a1.971,1.971,0,0,1-1.395-.584l-30.03-30.221a1.972,1.972,0,0,1-.574-1.384v-.417a1.973,1.973,0,0,1,1.975-1.984h42.6a1.977,1.977,0,0,1,1.975,1.948l.007.417a44.291,44.291,0,0,1-13.16,31.65A1.971,1.971,0,0,1,3166.915,1418.858Zm-25.7-30.639,25.67,25.834a40.284,40.284,0,0,0,10.6-25.834Z" transform="translate(-3134.909 -1384.267)" fill="#fff"/></g><g transform="translate(50.198)"><path d="M3177.423,1398.386H3134.81a1.976,1.976,0,0,1-1.977-1.975v-42.188a1.976,1.976,0,0,1,1.977-1.975h.014a44.576,44.576,0,0,1,44.573,44.142,1.976,1.976,0,0,1-1.974,2Zm-40.636-3.951h38.592a40.776,40.776,0,0,0-38.592-38.188Z" transform="translate(-3132.833 -1352.248)" fill="#fff"/></g><g transform="translate(0.099 8.752)"><path d="M3102.745,1401.41a1.977,1.977,0,0,1-1.4-3.374l39.608-39.609a1.977,1.977,0,0,1,2.8,2.8l-39.608,39.608A1.973,1.973,0,0,1,3102.745,1401.41Z" transform="translate(-3100.77 -1357.849)" fill="#fff"/></g><g transform="translate(1.435 21.098)"><path d="M3103.6,1410.858a1.977,1.977,0,0,1-1.4-3.374l41.154-41.155a1.975,1.975,0,0,1,2.794,2.794L3105,1410.278A1.972,1.972,0,0,1,3103.6,1410.858Z" transform="translate(-3101.625 -1365.751)" fill="#fff"/></g><g transform="translate(5.944 36.325)"><path d="M3106.487,1416.093a1.975,1.975,0,0,1-1.4-3.372l36.647-36.647a1.976,1.976,0,0,1,2.794,2.8l-36.646,36.645A1.969,1.969,0,0,1,3106.487,1416.093Z" transform="translate(-3104.51 -1375.496)" fill="#fff"/></g><g transform="translate(12.621 51.398)"><path d="M3110.76,1419.219a1.976,1.976,0,0,1-1.4-3.373l30.124-30.124a1.976,1.976,0,0,1,2.793,2.8l-30.124,30.124A1.977,1.977,0,0,1,3110.76,1419.219Z" transform="translate(-3108.783 -1385.143)" fill="#fff"/></g><g transform="translate(21.243 59.035)"><path d="M3116.279,1423.073a1.976,1.976,0,0,1-1.4-3.373l29.091-29.091a1.976,1.976,0,0,1,2.8,2.794l-29.091,29.091A1.971,1.971,0,0,1,3116.279,1423.073Z" transform="translate(-3114.302 -1390.031)" fill="#fff"/></g><g transform="translate(32.054 66.674)"><path d="M3123.2,1424.741a1.977,1.977,0,0,1-1.4-3.374l25.868-25.869a1.976,1.976,0,0,1,2.794,2.794l-25.869,25.869A1.967,1.967,0,0,1,3123.2,1424.741Z" transform="translate(-3121.221 -1394.919)" fill="#fff"/></g><g transform="translate(46.106 74.312)"><path d="M3132.19,1423.166a1.976,1.976,0,0,1-1.4-3.373l19.406-19.406a1.975,1.975,0,0,1,2.793,2.793l-19.4,19.407A1.972,1.972,0,0,1,3132.19,1423.166Z" transform="translate(-3130.213 -1399.808)" fill="#fff"/></g></g></g></g></g></svg>