<svg xmlns="http://www.w3.org/2000/svg" width="100" height="91.021" viewBox="0 0 100 91.021"><g transform="translate(-376 -377.661)"><g transform="translate(376 377.661)"><path d="M419.324,393.339a24.324,24.324,0,1,0,24.324,24.324A24.325,24.325,0,0,0,419.324,393.339Zm-1.184,19.668,5.5,2.827a8.288,8.288,0,0,1,4.43,8.824,8.062,8.062,0,0,1-4.751,6.205v.732a3.378,3.378,0,0,1-6.757,0v-.516a10,10,0,0,1-6.024-5.492,3.379,3.379,0,1,1,6.2-2.7A3.288,3.288,0,0,0,420,424.834a1.436,1.436,0,0,0,1.4-1.243,1.626,1.626,0,0,0-.854-1.751l-5.495-2.827A8.33,8.33,0,0,1,410.66,410a8.106,8.106,0,0,1,5.9-6.468v-.5a3.378,3.378,0,1,1,6.757,0v1.246a9.867,9.867,0,0,1,4.816,4.97,3.378,3.378,0,1,1-6.2,2.692A3.278,3.278,0,0,0,418.67,410a1.444,1.444,0,0,0-1.367,1.246A1.56,1.56,0,0,0,418.141,413.007Z" transform="translate(-343.649 -350.966)" fill="#fff"/><path d="M459.784,377.661H448.973a5.4,5.4,0,0,0-5.405,5.405,5.405,5.405,0,0,1-10.811,0,5.406,5.406,0,0,0-5.405-5.405H413.838a5.4,5.4,0,0,0-5.405,5.405,5.405,5.405,0,1,1-10.811,0,5.406,5.406,0,0,0-5.405-5.405H381.405A5.4,5.4,0,0,0,376,383.066v67.568a5.406,5.406,0,0,0,5.405,5.405h41.486a31.018,31.018,0,0,1,42.3-39.627V383.066A5.406,5.406,0,0,0,459.784,377.661Zm-67.568,65.346a5.405,5.405,0,1,1,5.405-5.405A5.4,5.4,0,0,1,392.216,443.007Zm0-16.216a5.405,5.405,0,1,1,5.405-5.405A5.4,5.4,0,0,1,392.216,426.791Zm16.216,16.216a5.405,5.405,0,1,1,5.405-5.405A5.4,5.4,0,0,1,408.432,443.007Zm0-16.216a5.405,5.405,0,1,1,5.405-5.405A5.4,5.4,0,0,1,408.432,426.791Zm0-16.216a5.405,5.405,0,1,1,5.405-5.405A5.4,5.4,0,0,1,408.432,410.574Zm16.216,0a5.405,5.405,0,1,1,5.405-5.405A5.4,5.4,0,0,1,424.649,410.574Z" transform="translate(-376 -377.661)" fill="#fff"/></g></g></svg>