<svg xmlns="http://www.w3.org/2000/svg" width="100" height="99.772" viewBox="0 0 100 99.772"><g transform="translate(-923 -2322)"><path d="M147.154,307.419a23.529,23.529,0,1,0,23.529,23.529A23.528,23.528,0,0,0,147.154,307.419Zm-1.145,19.02,5.318,2.737a8.015,8.015,0,0,1,4.285,8.536,7.808,7.808,0,0,1-4.6,6v.706a3.268,3.268,0,0,1-6.536,0v-.5a9.654,9.654,0,0,1-5.827-5.312A3.269,3.269,0,0,1,144.647,336a3.133,3.133,0,0,0,3.161,1.88,1.389,1.389,0,0,0,1.352-1.205,1.571,1.571,0,0,0-.826-1.692l-5.315-2.735a8.059,8.059,0,0,1-4.246-8.711,7.83,7.83,0,0,1,5.707-6.256v-.489a3.268,3.268,0,0,1,6.536,0V318a9.559,9.559,0,0,1,4.659,4.805,3.268,3.268,0,1,1-5.995,2.6,3.153,3.153,0,0,0-3.158-1.877,1.407,1.407,0,0,0-1.325,1.208A1.509,1.509,0,0,0,146.009,326.439Z" transform="translate(852.316 2014.581)" fill="#fff"/><path d="M177.456,359.326a7.35,7.35,0,0,0-5.665,1.746A6.145,6.145,0,0,0,167,356.711a7.266,7.266,0,0,0-5.417,1.563,6.723,6.723,0,0,0-5.041-4.178,7.327,7.327,0,0,0-6.107,2.288V339.867a5.354,5.354,0,0,0-3.524-5.179,5.247,5.247,0,0,0-6.933,4.959v41.83a5.229,5.229,0,0,1-5.229-5.229v-4.724a1.813,1.813,0,0,0-1.814-1.812h-1.576a7.066,7.066,0,0,0-7.067,7.067v12.907a7.846,7.846,0,0,0,2.675,5.9l7.038,6.17a7.85,7.85,0,0,0,5.169,1.945H168.1a7.855,7.855,0,0,0,5.548-2.3l5.861-5.864a7.833,7.833,0,0,0,2.3-5.545V364.764A5.424,5.424,0,0,0,177.456,359.326Zm-44.016-5.3H126.9a2.615,2.615,0,0,1-2.614-2.614V320.04a2.614,2.614,0,0,1,2.614-2.614h24.633a30.243,30.243,0,0,1,4.191-7.843h-41.9a10.456,10.456,0,0,0-10.458,10.458v31.373a10.458,10.458,0,0,0,10.458,10.457H133.44Zm-17.543-13.9a4.4,4.4,0,1,1,4.4-4.4A4.4,4.4,0,0,1,115.9,340.128Z" transform="translate(819.625 2018.073)" fill="#fff"/></g></svg>