<svg xmlns="http://www.w3.org/2000/svg" width="100" height="95.948" viewBox="0 0 100 95.948"><g transform="translate(-239.5 -172.27)"><g transform="translate(239.5 172.27)"><path d="M247.5,181.77v67.371a2.316,2.316,0,0,0,3.424,2.034l5.132-2.8a2.316,2.316,0,0,1,2.216,0l7.445,4.058a2.321,2.321,0,0,0,2.219,0l7.429-4.058a2.326,2.326,0,0,1,2.221,0l7.424,4.055a2.312,2.312,0,0,0,2.221,0l7.421-4.053a2.312,2.312,0,0,1,2.221,0l5.1,2.787a2.316,2.316,0,0,0,3.426-2.032V181.77Zm22.524,27.858H265.1a8.189,8.189,0,0,1-.826-16.339V191.57a3.289,3.289,0,1,1,6.579,0V193.2h4.1a3.289,3.289,0,1,1,0,6.579H265.1a1.633,1.633,0,1,0,0,3.266h4.926a8.192,8.192,0,0,1,.826,16.345v1.716a3.289,3.289,0,1,1-6.579,0v-1.632h-4.1a3.289,3.289,0,1,1,0-6.579h9.85a1.636,1.636,0,0,0,0-3.271Zm26.161,28.063H259.342a3.289,3.289,0,1,1,0-6.579h36.842a3.289,3.289,0,1,1,0,6.579Zm0-13.158h-7.892a3.289,3.289,0,1,1,0-6.579h7.892a3.289,3.289,0,1,1,0,6.579Zm0-13.158h-7.892a3.289,3.289,0,1,1,0-6.579h7.892a3.289,3.289,0,1,1,0,6.579Zm0-13.158h-7.892a3.289,3.289,0,1,1,0-6.579h7.892a3.289,3.289,0,1,1,0,6.579Z" transform="translate(-226.447 -156.77)" fill="#fff"/><path d="M328.974,172.27H250.026A10.525,10.525,0,0,0,239.5,182.8v18.421a10.527,10.527,0,0,0,10.526,10.526h1.316a1.316,1.316,0,0,0,1.316-1.316V192.007a1.315,1.315,0,0,1,1.316-1.316h71.053a1.315,1.315,0,0,1,1.316,1.316v18.421a1.316,1.316,0,0,0,1.316,1.316h1.316A10.527,10.527,0,0,0,339.5,201.217V182.8A10.525,10.525,0,0,0,328.974,172.27Z" transform="translate(-239.5 -172.27)" fill="#fff"/></g></g></svg>