<svg xmlns="http://www.w3.org/2000/svg" width="100" height="85" viewBox="0 0 100 85"><g transform="translate(-334 -164.62)"><path d="M408.023,178.55h-1.216a1.5,1.5,0,0,0,0,2.987h1.216a1.5,1.5,0,0,0,0-2.987Z" transform="translate(-46.961 -8.799)" fill="#fff"/><g transform="translate(334 164.62)"><g transform="translate(0 34.083)"><path d="M403.723,265.165h-4.658a3.2,3.2,0,0,0-3.154,2.545c0,.015,0,.029-.007.044l-.079.39-.206-.424a.114.114,0,0,0-.014-.029A18.289,18.289,0,0,0,379.37,257.15H362.082a18.281,18.281,0,0,0-16.223,10.542.219.219,0,0,0-.014.029l-.14.3-.072-.273a3.267,3.267,0,0,0-3.147-2.582h-4.658A3.986,3.986,0,0,0,334,269.283v1.477a4.356,4.356,0,0,0,4.185,4.5h3.493l-2.041,2.586a.2.2,0,0,1-.021.029,10.782,10.782,0,0,0-2.26,6.505v3.838a13.842,13.842,0,0,0,2.229,7.551v7.164a4.972,4.972,0,0,0,4.914,5.131h5.356c2.647,0,4.568-2.159,4.568-5.131v-.46h32.312v.46a4.852,4.852,0,0,0,4.767,5.131h5.356c2.647,0,4.568-2.159,4.568-5.131V296.1a14.256,14.256,0,0,0,2.329-7.883v-3.838a10.828,10.828,0,0,0-2.1-6.586l-1.956-2.534h3.74a3.822,3.822,0,0,0,3.671-3.949v-2.5A3.528,3.528,0,0,0,403.723,265.165Zm-49-.737a1.419,1.419,0,0,1,2.089.276,1.682,1.682,0,0,1-.257,2.247,10.813,10.813,0,0,0-2.908,3.864c2.421.733,7.815,1.934,17.072,1.934,9.277,0,14.7-1.227,17.11-1.956a10.126,10.126,0,0,0-3.137-4.059,1.683,1.683,0,0,1-.339-2.236,1.421,1.421,0,0,1,2.079-.361,13.351,13.351,0,0,1,4.757,7.231,1.708,1.708,0,0,1-.185,1.308,1.5,1.5,0,0,1-.767.645l-.01,0c-1.517.615-7.4,2.626-19.507,2.626-12.181,0-18.024-2.007-19.524-2.623l-.007,0a1.518,1.518,0,0,1-.771-.659,1.7,1.7,0,0,1-.158-1.337A14.184,14.184,0,0,1,354.719,264.428Zm24.651,26.016H362.182a41.467,41.467,0,0,0-7.377,1.293.118.118,0,0,0-.041.026.491.491,0,0,0,.178.077l.041.011a27.737,27.737,0,0,0,4.38.995,1.6,1.6,0,0,1,0,3.2,28.954,28.954,0,0,1-5.14-1.1,3.3,3.3,0,0,1-.425-6.232,1.565,1.565,0,0,1,.185-.063,45.926,45.926,0,0,1,8.2-1.414H379.37a47.027,47.027,0,0,1,8.2,1.448,1.646,1.646,0,0,1,.188.063,3.211,3.211,0,0,1-.411,6.1,25.894,25.894,0,0,1-5.158,1.193,1.6,1.6,0,0,1,0-3.2,25.823,25.823,0,0,0,4.353-1.076.51.51,0,0,1,.072-.018l.031-.011A42.5,42.5,0,0,0,379.37,290.445Zm-37.63-10.288,5.794,4.409a.164.164,0,0,1,.065.11.161.161,0,0,1-.031.125l-.634.917a.147.147,0,0,1-.168.063l-3.983-1.223a3.085,3.085,0,0,1-1.918-1.735,1.672,1.672,0,0,0-.243-.387A7.859,7.859,0,0,1,341.74,280.157Zm9.709,22.779c0,.453-.116,1.93-1.592,1.93H344.5a1.914,1.914,0,0,1-1.938-1.93v-3.927a12.6,12.6,0,0,0,1.3.888l1.271.818a.577.577,0,0,0,.048.033,10.914,10.914,0,0,0,5.445,1.728h.822Zm47,0c0,.453-.116,1.93-1.592,1.93H391.5a1.785,1.785,0,0,1-1.791-1.93v-.46h1.116a10.7,10.7,0,0,0,5.394-1.728l.072-.044,1.137-.762a11.468,11.468,0,0,0,1.021-.685Zm2.068-20.664a1.626,1.626,0,0,0-.257.4,3.088,3.088,0,0,1-1.918,1.731l-3.983,1.227a.153.153,0,0,1-.168-.063l-.634-.917a.165.165,0,0,1-.031-.125.152.152,0,0,1,.065-.11l5.856-4.453A6.976,6.976,0,0,1,400.521,282.271Z" transform="translate(-334 -257.15)" fill="#fff"/></g><g transform="translate(3.894 20.392)"><path d="M362.081,221.475v1.3a1.394,1.394,0,1,1-2.781,0v-1.3a1.394,1.394,0,1,1,2.781,0Z" transform="translate(-354.529 -219.98)" fill="#fff"/><path d="M362.081,245.786v1.3a1.394,1.394,0,1,1-2.781,0v-1.3a1.394,1.394,0,1,1,2.781,0Z" transform="translate(-354.529 -235.335)" fill="#fff"/><path d="M349.363,235.4a1.442,1.442,0,0,1-1.387,1.5H346.76a1.5,1.5,0,0,1,0-2.987h1.216A1.441,1.441,0,0,1,349.363,235.4Z" transform="translate(-345.37 -228.779)" fill="#fff"/><path d="M373.683,235.4a1.445,1.445,0,0,1-1.39,1.5h-1.216a1.5,1.5,0,0,1,0-2.987h1.216A1.444,1.444,0,0,1,373.683,235.4Z" transform="translate(-361.361 -228.779)" fill="#fff"/></g><g transform="translate(16.13)"><path d="M397.807,166.116v1.3a1.393,1.393,0,1,1-2.777,0v-1.3a1.393,1.393,0,1,1,2.777,0Z" transform="translate(-390.259 -164.62)" fill="#fff"/><path d="M397.807,190.425v1.308a1.392,1.392,0,1,1-2.777,0v-1.308a1.393,1.393,0,1,1,2.777,0Z" transform="translate(-390.259 -179.975)" fill="#fff"/><path d="M385.093,180.045a1.441,1.441,0,0,1-1.39,1.492H382.49a1.5,1.5,0,0,1,0-2.987H383.7A1.445,1.445,0,0,1,385.093,180.045Z" transform="translate(-381.1 -173.419)" fill="#fff"/><path d="M409.41,180.045a1.441,1.441,0,0,1-1.387,1.492h-1.216a1.5,1.5,0,0,1,0-2.987h1.216A1.444,1.444,0,0,1,409.41,180.045Z" transform="translate(-397.091 -173.419)" fill="#fff"/></g><path d="M416.149,219.488a1.744,1.744,0,1,1-1.74-1.868A1.809,1.809,0,0,1,416.149,219.488Z" transform="translate(-385.728 -198.098)" fill="#fff"/><g transform="translate(40.904 2.534)"><path d="M511.145,199.984a1.5,1.5,0,0,0,0-2.991H490.625v-3.411h20.521a1.5,1.5,0,0,0,0-2.987H490.625v-3.348h20.264a1.394,1.394,0,0,0,1.271-.884,1.591,1.591,0,0,0-.233-1.606L501.34,172a1.349,1.349,0,0,0-1.038-.5H465.416a1.355,1.355,0,0,0-1.038.5l-10.586,12.76a1.591,1.591,0,0,0-.233,1.606,1.394,1.394,0,0,0,1.271.884h20.586V190.6H454.943a1.5,1.5,0,0,0,0,2.987h20.473v3.411H454.943a1.5,1.5,0,0,0,0,2.991h20.473v4.457a1.393,1.393,0,1,0,2.777,0V185.9l2.044-11.408H485.8l2.045,11.408V248.2h-2.459a1.5,1.5,0,0,0,0,2.987h25.76a1.5,1.5,0,0,0,0-2.987H490.625V244.79h20.521a1.5,1.5,0,0,0,0-2.987H490.625v-3.411h20.521a1.5,1.5,0,0,0,0-2.991H490.625V231.99h20.521a1.5,1.5,0,0,0,0-2.987H490.625v-3.415h20.521a1.5,1.5,0,0,0,0-2.987H490.625v-3.415h20.521a1.5,1.5,0,0,0,0-2.987H490.625v-3.415h20.521a1.5,1.5,0,0,0,0-2.987H490.625v-3.411h20.521a1.5,1.5,0,0,0,0-2.991H490.625v-3.411Zm-35.49-15.725H457.93l8.11-9.772h11.366Zm14.726,0-1.75-9.772H499.68l8.11,9.772Z" transform="translate(-453.44 -171.5)" fill="#fff"/></g></g></g></svg>