<svg xmlns="http://www.w3.org/2000/svg" width="100" height="95.005" viewBox="0 0 100 95.005"><g transform="translate(-306.619 -375.612)"><g transform="translate(306.619 375.612)"><path d="M335.357,405.075a5.813,5.813,0,0,0-8.621.445,6.042,6.042,0,0,0,.636,8.008l6.385,6.385a3.225,3.225,0,1,1-4.56,4.562l-6.2-6.2a13.161,13.161,0,0,1-3.853-8.807l.05-15.067a6.292,6.292,0,0,0-6.936-6.255,6.536,6.536,0,0,0-5.639,6.614v15.5a15.086,15.086,0,0,0,3.564,9.738l14.124,16.714a1.254,1.254,0,0,0,.958.448l25.821.035a1.258,1.258,0,0,0,1.26-1.257v-7.618a15.088,15.088,0,0,0-4.419-10.669Zm65.623-16.931a6.292,6.292,0,0,0-6.936,6.255l.05,15.067a13.16,13.16,0,0,1-3.853,8.807l-6.2,6.2a3.225,3.225,0,0,1-4.56-4.562l6.383-6.385a6.039,6.039,0,0,0,.639-8.008,5.813,5.813,0,0,0-8.621-.445l-12.57,12.572a15.088,15.088,0,0,0-4.419,10.669v7.618a1.258,1.258,0,0,0,1.258,1.257l25.824-.035a1.259,1.259,0,0,0,.958-.448l14.124-16.714a15.086,15.086,0,0,0,3.564-9.738v-15.5A6.536,6.536,0,0,0,400.98,388.144Z" transform="translate(-306.619 -356.675)" fill="#fff"/><path d="M340.882,463.072H315.059a1.258,1.258,0,0,0-1.258,1.258v5.03a1.258,1.258,0,0,0,1.258,1.257h25.824a1.258,1.258,0,0,0,1.258-1.257v-5.03A1.258,1.258,0,0,0,340.882,463.072Zm35.536,0H350.595a1.258,1.258,0,0,0-1.258,1.258v5.03a1.258,1.258,0,0,0,1.258,1.257h25.824a1.258,1.258,0,0,0,1.257-1.257v-5.03A1.258,1.258,0,0,0,376.419,463.072Zm-4.773-62.311a25.15,25.15,0,1,0-25.15,25.15A25.151,25.151,0,0,0,371.645,400.762ZM344.9,396.305l5.807,2.988a8.347,8.347,0,0,1,4.459,8.878,8.108,8.108,0,0,1-5.03,6.343v1.056a3.144,3.144,0,1,1-6.287,0v-.84a10.129,10.129,0,0,1-6.4-5.679,3.144,3.144,0,0,1,5.767-2.5,3.858,3.858,0,0,0,3.878,2.3l.284-.033a1.873,1.873,0,0,0,1.577-1.64,2.13,2.13,0,0,0-1.127-2.294l-5.807-2.988a8.384,8.384,0,0,1-4.416-9.056,8.132,8.132,0,0,1,6.242-6.564v-.885a3.144,3.144,0,1,1,6.287,0v1.554a10.112,10.112,0,0,1,5.126,5.186,3.144,3.144,0,0,1-5.767,2.5,3.884,3.884,0,0,0-3.876-2.3,1.956,1.956,0,0,0-1.831,1.662A2.079,2.079,0,0,0,344.9,396.305Z" transform="translate(-295.739 -375.612)" fill="#fff"/></g></g></svg>