<svg xmlns="http://www.w3.org/2000/svg" width="100" height="100" viewBox="0 0 100 100"><g transform="translate(-242 -216)"><g transform="translate(242 216)"><path d="M299.576,257.53a3.029,3.029,0,0,0-3.03-3.03H284.424a3.03,3.03,0,0,0-3.03,3.03v42.424h18.182Zm25.758,6.061a3.029,3.029,0,0,0-3.03-3.03H310.182a3.029,3.029,0,0,0-3.03,3.03v36.364h18.182Zm12.121,43.939H246.546a4.545,4.545,0,1,0,0,9.091h90.909a4.545,4.545,0,0,0,0-9.091Zm-63.636-34.849a3.029,3.029,0,0,0-3.03-3.03H258.667a3.029,3.029,0,0,0-3.03,3.03v27.273h18.182Z" transform="translate(-242 -216.621)" fill="#fff"/><path d="M322.622,242.027,309,243.973a2.691,2.691,0,0,0-1.521,4.567l3.148,3.148-10.991,10.988-18.055-13.691a4.548,4.548,0,0,0-5.63.109l-28.788,23.661a4.546,4.546,0,1,0,5.77,7.027L278.946,258.4,297.3,272.315a4.542,4.542,0,0,0,5.958-.409l13.794-13.791,2.1,2.1a2.689,2.689,0,0,0,4.564-1.521l1.945-13.624A2.69,2.69,0,0,0,322.622,242.027Z" transform="translate(-234.895 -242)" fill="#fff"/></g></g></svg>