<?xml version="1.0" standalone="no"?>
<!DOCTYPE svg PUBLIC "-//W3C//DTD SVG 20010904//EN"
 "http://www.w3.org/TR/2001/REC-SVG-20010904/DTD/svg10.dtd">
<svg version="1.0" xmlns="http://www.w3.org/2000/svg"
 width="1040.000000pt" height="1040.000000pt" viewBox="0 0 1040.000000 1040.000000"
 preserveAspectRatio="xMidYMid meet">
<metadata>
Created by potrace 1.14, written by Peter Selinger 2001-2017
</metadata>
<g transform="translate(0.000000,1040.000000) scale(0.100000,-0.100000)"
fill="#000000" stroke="none">
<path d="M3281 8828 c12 -24 50 -94 85 -157 35 -62 64 -117 64 -122 0 -5 4 -9
8 -9 4 0 14 -16 21 -35 7 -19 17 -35 23 -35 6 0 8 -3 5 -7 -4 -3 0 -17 8 -29
8 -13 40 -70 71 -126 31 -57 69 -125 84 -153 15 -27 50 -90 77 -140 28 -49 67
-121 88 -160 21 -38 50 -92 65 -120 16 -27 37 -66 47 -85 11 -19 34 -61 51
-92 18 -31 42 -76 55 -100 13 -24 50 -90 82 -148 55 -100 75 -137 142 -260 35
-64 69 -125 128 -230 23 -41 57 -102 75 -135 18 -33 82 -148 143 -255 61 -107
122 -215 136 -240 13 -25 35 -63 48 -85 12 -22 31 -56 41 -75 11 -19 52 -91
92 -160 40 -69 81 -138 90 -155 10 -16 50 -86 90 -155 40 -69 84 -145 98 -170
14 -25 49 -85 79 -133 29 -49 53 -91 53 -94 0 -3 13 -24 28 -47 15 -22 34 -56
41 -73 7 -18 17 -33 22 -33 5 0 9 -4 9 -10 0 -8 58 -111 90 -160 6 -8 16 -26
23 -40 7 -14 28 -50 47 -80 19 -30 35 -57 35 -60 0 -3 9 -18 19 -35 11 -16 30
-47 43 -67 12 -21 23 -39 23 -42 0 -2 27 -50 60 -105 33 -56 60 -105 60 -109
1 -4 10 -18 21 -32 l21 -25 552 -1 c303 0 554 1 558 3 4 2 2 14 -6 26 -7 12
-57 108 -111 212 -150 292 -198 381 -342 634 -73 128 -133 236 -133 238 0 3
-8 17 -18 31 -11 15 -32 52 -49 82 -17 30 -39 71 -50 90 -78 134 -103 181
-103 190 0 5 -4 10 -9 10 -5 0 -13 9 -16 21 -4 11 -34 66 -67 122 -33 56 -64
111 -70 122 -5 11 -20 38 -33 60 -14 22 -28 47 -31 55 -4 8 -22 39 -41 68 -18
29 -33 55 -33 57 0 3 -33 61 -72 130 -40 69 -82 142 -93 162 -11 21 -32 59
-47 83 -14 25 -41 72 -59 105 -17 33 -38 67 -45 75 -7 8 -12 17 -11 20 0 3 -6
16 -15 30 -37 61 -98 173 -98 181 0 5 -4 9 -10 9 -5 0 -10 4 -10 9 0 5 -22 48
-50 96 -27 48 -50 90 -50 95 0 5 -3 10 -7 12 -5 2 -17 21 -29 43 -12 22 -76
137 -144 255 -68 118 -134 235 -148 260 -14 25 -61 108 -105 185 -89 156 -125
220 -142 250 -10 19 -60 106 -97 170 -10 17 -31 56 -48 87 -16 31 -34 59 -40
63 -5 3 -10 15 -10 25 0 10 -4 20 -8 22 -9 4 -102 167 -102 179 0 5 -3 9 -8 9
-4 0 -12 10 -17 23 l-10 22 -568 3 -567 2 21 -42z"/>
<path d="M5120 8353 c0 -3 45 -82 99 -178 55 -95 109 -188 119 -206 43 -76
163 -285 172 -299 6 -8 18 -31 28 -50 9 -19 20 -36 25 -38 4 -2 7 -7 7 -12 0
-5 27 -53 59 -108 32 -55 72 -124 88 -154 17 -29 40 -70 52 -90 42 -75 61
-109 82 -145 12 -21 30 -50 40 -64 10 -14 16 -28 13 -31 -2 -3 2 -11 11 -18 8
-7 15 -19 15 -26 0 -8 5 -14 10 -14 6 0 10 -4 10 -9 0 -5 32 -64 70 -131 39
-67 70 -126 70 -131 0 -5 5 -9 10 -9 6 0 10 -5 10 -10 0 -6 18 -40 40 -76 22
-36 40 -70 40 -74 0 -5 6 -15 13 -22 6 -8 20 -29 31 -48 10 -19 28 -51 39 -70
11 -19 33 -60 50 -90 16 -30 35 -62 41 -70 7 -8 25 -40 41 -70 15 -30 36 -67
47 -82 10 -14 18 -29 18 -32 0 -3 16 -30 35 -60 19 -30 35 -62 35 -70 0 -8 4
-16 8 -18 8 -3 30 -38 80 -128 14 -25 34 -58 44 -75 10 -16 23 -41 30 -55 7
-14 22 -41 34 -60 31 -52 292 -506 327 -570 16 -30 33 -59 37 -65 5 -5 45 -75
91 -155 173 -305 184 -324 233 -407 20 -34 36 -66 36 -72 0 -6 20 -11 48 -11
55 -1 968 -1 1059 0 55 0 62 2 56 18 -4 9 -9 19 -13 22 -4 3 -20 30 -36 60
-16 30 -31 57 -34 60 -4 4 -18 29 -64 115 -6 11 -13 22 -16 25 -3 3 -11 16
-18 29 -8 13 -23 40 -35 60 -11 20 -30 54 -42 76 -28 49 -112 195 -125 215 -6
8 -16 26 -22 40 -11 22 -45 81 -85 146 -7 10 -22 37 -33 59 -12 22 -46 81 -75
130 -60 103 -163 283 -193 336 -41 74 -47 84 -52 89 -3 3 -18 31 -35 62 -16
32 -33 58 -37 58 -5 0 -8 5 -8 10 0 6 -34 70 -77 143 -42 73 -86 150 -97 172
-12 22 -27 46 -33 53 -7 7 -16 24 -19 38 -3 13 -10 24 -15 24 -5 0 -9 4 -9 10
0 5 -18 39 -40 75 -22 36 -40 67 -40 70 0 3 -18 34 -40 70 -22 36 -40 68 -40
71 0 3 -8 18 -19 32 -10 15 -31 50 -45 77 -15 28 -35 64 -45 80 -31 50 -92
157 -124 215 -16 30 -33 60 -37 65 -7 9 -20 31 -74 127 -12 20 -59 103 -106
185 -47 81 -86 153 -88 160 -2 7 -8 13 -13 13 -5 0 -9 4 -9 10 0 8 -72 138
-100 180 -6 8 -13 22 -17 30 -4 8 -42 75 -85 149 -43 73 -78 135 -78 137 0 3
-18 33 -40 68 -22 35 -40 66 -40 70 0 4 -16 32 -35 62 -19 30 -35 58 -35 62
-1 4 -9 16 -18 28 -17 21 -22 21 -590 21 -315 0 -572 -2 -572 -4z"/>
<path d="M3405 7441 c-33 -58 -61 -111 -63 -118 -2 -7 -8 -13 -13 -13 -5 0 -9
-4 -9 -9 0 -10 -80 -153 -90 -161 -3 -3 -14 -21 -23 -40 -10 -19 -22 -42 -27
-50 -16 -26 -166 -285 -173 -300 -4 -8 -17 -31 -28 -50 -26 -43 -165 -283
-190 -327 -10 -17 -71 -123 -135 -235 -65 -111 -124 -214 -131 -228 -8 -14
-25 -43 -39 -65 -13 -22 -29 -51 -35 -65 -6 -14 -16 -32 -23 -40 -8 -8 -29
-44 -47 -80 -19 -36 -36 -67 -39 -70 -3 -3 -33 -52 -65 -110 -33 -57 -64 -112
-70 -121 -9 -16 -39 -68 -92 -159 -11 -19 -31 -55 -45 -80 -33 -60 -116 -201
-128 -220 -5 -8 -16 -28 -25 -45 -8 -16 -19 -37 -25 -45 -9 -13 -89 -152 -165
-285 -13 -22 -73 -127 -134 -233 -61 -106 -111 -197 -111 -202 0 -6 -4 -10
-10 -10 -5 0 -10 -4 -10 -10 0 -5 -14 -33 -31 -62 -18 -29 -43 -73 -57 -98
-13 -25 -31 -52 -38 -61 -8 -8 -14 -19 -14 -23 0 -10 -94 -171 -102 -174 -5
-2 -8 -8 -8 -13 0 -5 -33 -67 -74 -137 -171 -295 -311 -540 -330 -577 -12 -22
-24 -41 -28 -43 -5 -2 -8 -8 -8 -13 0 -5 -16 -33 -35 -63 -19 -30 -35 -57 -35
-60 0 -3 -14 -29 -32 -58 -41 -69 -132 -229 -171 -298 -17 -30 -34 -56 -39
-58 -4 -2 -8 -7 -8 -12 0 -7 -104 -195 -119 -215 -5 -5 -22 -35 -38 -65 -17
-30 -39 -71 -51 -91 -11 -20 -26 -47 -34 -60 -7 -13 -15 -26 -18 -29 -3 -3
-12 -18 -20 -35 -8 -16 -18 -32 -21 -35 -3 -3 -26 -43 -52 -90 -65 -118 -81
-144 -89 -148 -41 -18 52 -22 523 -20 l530 3 111 190 c60 105 123 213 138 240
15 28 41 73 57 101 17 27 41 70 55 95 14 24 64 111 112 193 47 82 86 153 86
158 0 4 4 8 8 8 4 0 13 12 19 27 7 16 17 35 23 43 24 36 250 434 250 441 0 5
5 9 10 9 6 0 10 4 10 9 0 13 82 155 92 159 4 2 8 12 8 22 0 10 3 20 8 22 4 2
47 73 96 158 49 85 144 250 211 365 67 116 128 221 136 235 8 14 19 28 24 32
6 4 7 8 3 8 -4 0 15 36 42 81 28 44 50 82 50 84 0 3 20 37 43 77 37 61 195
334 257 443 10 17 107 185 217 375 251 433 389 672 421 730 14 25 36 62 49 82
12 21 23 42 23 48 0 5 4 10 9 10 5 0 13 9 16 21 4 11 20 42 35 67 76 126 320
554 320 562 0 4 5 10 12 12 8 3 2 21 -17 54 -17 27 -34 57 -40 67 -5 9 -36 58
-67 108 -32 50 -58 95 -58 100 0 5 -3 9 -7 9 -5 0 -13 10 -19 23 -6 12 -56 96
-112 186 -56 90 -102 167 -102 171 0 5 -3 10 -7 12 -5 2 -26 32 -47 68 -74
122 -63 122 -131 1z"/>
<path d="M4225 6072 c-28 -47 -67 -116 -88 -152 -21 -36 -43 -77 -50 -92 -6
-16 -15 -28 -19 -28 -4 0 -8 -6 -8 -14 0 -7 -7 -19 -15 -26 -8 -7 -15 -21 -15
-30 0 -10 -4 -20 -8 -22 -7 -3 -112 -183 -142 -243 -8 -16 -17 -32 -20 -35 -4
-3 -20 -30 -37 -60 -16 -30 -38 -71 -49 -90 -10 -19 -22 -37 -25 -40 -3 -3
-12 -20 -20 -37 -8 -18 -17 -33 -21 -33 -5 0 -8 -4 -8 -9 0 -5 -22 -47 -48
-93 -26 -46 -51 -90 -55 -98 -4 -8 -17 -31 -29 -50 -11 -19 -37 -64 -56 -100
-19 -36 -41 -72 -48 -81 -8 -8 -14 -18 -14 -21 0 -5 -92 -169 -144 -258 -15
-25 -29 -53 -33 -62 -3 -10 -9 -18 -14 -18 -5 0 -9 -4 -9 -10 0 -9 -137 -255
-178 -320 -9 -14 -14 -26 -11 -26 2 -1 -3 -10 -12 -20 -8 -11 -26 -40 -40 -66
-13 -27 -27 -48 -31 -48 -5 0 -8 -5 -8 -10 0 -6 -44 -87 -97 -181 -54 -93
-111 -195 -128 -227 -16 -31 -33 -59 -36 -62 -3 -3 -22 -36 -44 -75 -21 -38
-47 -82 -57 -97 -11 -16 -16 -28 -13 -28 3 0 -2 -12 -13 -27 -10 -16 -45 -75
-77 -133 -33 -58 -62 -107 -65 -110 -3 -3 -14 -23 -25 -45 -11 -22 -23 -41
-27 -43 -5 -2 -8 -7 -8 -12 0 -5 -23 -47 -50 -95 -28 -48 -50 -90 -50 -95 0
-5 -3 -10 -7 -12 -5 -1 -17 -21 -29 -43 -18 -34 -180 -319 -242 -425 -11 -19
-35 -62 -53 -95 -17 -33 -39 -71 -49 -85 -10 -14 -29 -47 -44 -75 -15 -27 -40
-72 -57 -100 -16 -27 -37 -63 -45 -80 -8 -16 -23 -43 -33 -60 -10 -16 -33 -56
-50 -87 l-33 -58 524 0 c512 0 523 0 536 20 7 11 11 21 10 22 -1 2 11 23 28
48 17 25 51 81 76 125 25 44 62 109 83 145 20 36 50 88 65 115 15 28 55 97 89
153 33 57 61 106 61 108 0 2 20 37 43 77 24 39 57 97 73 127 16 30 31 57 34
60 8 7 100 169 100 175 0 2 15 28 33 57 19 29 47 78 64 108 17 30 101 179 188
330 87 151 166 290 177 308 38 67 57 100 70 123 7 13 18 27 23 31 6 4 6 8 1 8
-5 0 -4 6 2 13 10 12 159 267 215 367 16 30 73 129 125 220 191 332 232 404
232 407 0 2 46 79 78 128 6 11 15 27 19 35 7 15 175 309 198 345 7 11 12 23
11 26 -1 3 4 12 11 20 9 12 3 29 -31 85 -23 39 -45 77 -49 85 -4 8 -18 32 -32
54 -14 22 -28 48 -31 58 -4 9 -10 17 -14 17 -5 0 -13 12 -19 28 -6 15 -22 45
-35 67 -14 22 -35 58 -47 80 -12 22 -24 42 -28 45 -3 3 -13 18 -21 35 -8 16
-45 80 -82 142 -38 63 -68 118 -68 123 0 6 -3 10 -7 10 -5 0 -17 18 -27 40
-32 67 -37 66 -91 -28z"/>
<path d="M4501 3805 c-4 -5 -25 -41 -46 -80 -62 -113 -74 -135 -131 -236 -30
-52 -54 -100 -54 -106 0 -6 -4 -13 -8 -15 -5 -1 -33 -48 -63 -103 -29 -55 -59
-109 -66 -120 -7 -11 -15 -27 -19 -35 -4 -8 -26 -49 -50 -90 -23 -41 -44 -81
-46 -89 -3 -12 412 -14 2921 -15 2586 -1 2927 1 2943 14 10 8 29 35 43 60 39
71 73 131 105 185 16 28 40 70 55 95 14 25 30 52 35 60 19 29 278 480 277 481
-1 1 -1327 2 -2945 3 -1954 1 -2946 -2 -2951 -9z"/>
<path d="M3688 2382 c-16 -2 -28 -9 -28 -18 0 -8 -4 -14 -8 -14 -4 0 -13 -12
-19 -27 -17 -40 -77 -149 -92 -167 -8 -9 -10 -16 -6 -16 4 0 3 -6 -3 -12 -5
-7 -21 -33 -34 -58 -14 -25 -42 -76 -63 -115 -21 -38 -53 -97 -72 -130 -18
-33 -48 -89 -65 -125 -18 -36 -35 -67 -39 -70 -6 -6 -49 -89 -49 -95 0 -3
1043 -4 2318 -3 l2317 3 10 23 c5 12 13 22 17 22 5 0 8 4 8 10 0 5 61 117 137
247 75 131 150 263 166 293 17 30 34 57 39 58 4 2 8 9 8 14 0 6 21 47 46 90
26 43 44 82 41 85 -6 6 -4579 11 -4629 5z"/>
</g>
</svg>
