<svg xmlns="http://www.w3.org/2000/svg" xmlns:xlink="http://www.w3.org/1999/xlink" width="144.656" height="165.542" viewBox="0 0 144.656 165.542"><defs><radialGradient id="a" cx="0.5" cy="0.5" r="0.5" gradientUnits="objectBoundingBox"><stop offset="0" stop-color="#a3e7f6"/><stop offset="1" stop-color="#489aab"/></radialGradient><clipPath id="b"><rect width="100" height="100" fill="#fff"/></clipPath></defs><g transform="translate(-1483 -2955)"><path d="M-1899.921,186.9a82.98,82.98,0,0,1-27.611-18.247,82.525,82.525,0,0,1-18.334-27.477q-1.121-2.752-2.038-5.56a83.384,83.384,0,0,0,8.442-69.492,83.271,83.271,0,0,1,11.93-14.94,82.975,82.975,0,0,1,27.61-18.247,83.368,83.368,0,0,1,24.346-5.79,83.323,83.323,0,0,1,24.344,5.79,82.962,82.962,0,0,1,27.611,18.247,83.253,83.253,0,0,1,11.93,14.939,83.375,83.375,0,0,0,8.443,69.493q-.917,2.807-2.039,5.56a82.525,82.525,0,0,1-18.334,27.477,82.987,82.987,0,0,1-27.611,18.247,83.348,83.348,0,0,1-24.344,5.789A83.342,83.342,0,0,1-1899.921,186.9Z" transform="translate(3430.904 2927.848)" opacity="0.8" fill="url(#a)"/><g transform="translate(1506 2988)"><g transform="translate(0)" clip-path="url(#b)"><g transform="translate(8.572 0.437)"><g transform="translate(38.726 38.828)"><path d="M3204.547,1462.617a1.918,1.918,0,0,1-1.932-1.9v-5.758a1.932,1.932,0,0,1,3.863,0v5.758A1.918,1.918,0,0,1,3204.547,1462.617Z" transform="translate(-3202.615 -1453.053)" fill="#fff"/></g><g transform="translate(38.726 69.695)"><path d="M3204.547,1482.371a1.918,1.918,0,0,1-1.932-1.9v-5.756a1.932,1.932,0,0,1,3.863,0v5.756A1.918,1.918,0,0,1,3204.547,1482.371Z" transform="translate(-3202.615 -1472.808)" fill="#fff"/></g><g transform="translate(29.046 45.497)"><path d="M3209.2,1484.415a19.433,19.433,0,0,1-2.163-.123,37.3,37.3,0,0,1-7.422-1.9l-.5-.164a1.9,1.9,0,0,1-1.225-2.406,1.94,1.94,0,0,1,2.442-1.206l.5.166a34.015,34.015,0,0,0,6.636,1.728c4.309.481,6.866-.819,7.817-2.2a2.5,2.5,0,0,0,.184-2.717c-.953-1.77-3.679-2.823-7.3-2.823h-.128c-5.256,0-9.215-1.758-10.87-4.828a6.218,6.218,0,0,1,.416-6.588c2.084-3.022,6.408-4.484,11.574-3.912a37.58,37.58,0,0,1,7.469,1.909l.475.156a1.9,1.9,0,0,1,1.223,2.406,1.935,1.935,0,0,1-2.44,1.206l-.477-.156a34.179,34.179,0,0,0-6.681-1.739c-4.372-.484-6.974.854-7.951,2.27a2.46,2.46,0,0,0-.2,2.663c.949,1.759,3.737,2.806,7.461,2.806h.128c5.149,0,9.048,1.764,10.708,4.844a6.269,6.269,0,0,1-.4,6.644C3216.721,1483,3213.336,1484.415,3209.2,1484.415Z" transform="translate(-3196.419 -1457.321)" fill="#fff"/></g><g transform="translate(0 18.959)"><path d="M3218.489,1520.5c-22.419,0-40.658-17.981-40.658-40.083s18.239-40.084,40.658-40.084,40.659,17.983,40.659,40.084S3240.909,1520.5,3218.489,1520.5Zm0-76.361c-20.29,0-36.8,16.275-36.8,36.278s16.508,36.277,36.8,36.277,36.8-16.273,36.8-36.277S3238.779,1444.143,3218.489,1444.143Z" transform="translate(-3177.831 -1440.337)" fill="#fff"/></g><g transform="translate(34.211 10.311)"><path d="M3201.656,1447.258a1.918,1.918,0,0,1-1.931-1.9v-8.65a1.931,1.931,0,0,1,3.861,0v8.65A1.918,1.918,0,0,1,3201.656,1447.258Z" transform="translate(-3199.725 -1434.802)" fill="#fff"/></g><g transform="translate(43.244 10.311)"><path d="M3207.438,1447.258a1.918,1.918,0,0,1-1.931-1.9v-8.65a1.931,1.931,0,0,1,3.861,0v8.65A1.917,1.917,0,0,1,3207.438,1447.258Z" transform="translate(-3205.506 -1434.802)" fill="#fff"/></g><g transform="translate(63.589 17.442)"><path d="M3226.124,1458.361a1.939,1.939,0,0,1-1.365-.558,1.884,1.884,0,0,1,0-2.691l8.375-8.258-2.936-2.894-8.375,8.256a1.948,1.948,0,0,1-2.73,0,1.883,1.883,0,0,1,0-2.69l9.74-9.6a1.949,1.949,0,0,1,2.73,0l5.667,5.586a1.885,1.885,0,0,1,0,2.691l-9.741,9.6A1.934,1.934,0,0,1,3226.124,1458.361Z" transform="translate(-3218.527 -1439.366)" fill="#fff"/></g><g transform="translate(26.855)"><path d="M3218.945,1441.334H3198.7a3.658,3.658,0,0,1-3.68-3.628v-5.875a3.658,3.658,0,0,1,3.68-3.628h20.248a3.659,3.659,0,0,1,3.68,3.628v5.875A3.659,3.659,0,0,1,3218.945,1441.334Zm-20.067-3.806h19.886v-5.519h-19.886Zm20.067-5.519h0Z" transform="translate(-3195.017 -1428.203)" fill="#fff"/></g><g transform="translate(7.931 26.78)"><path d="M3215.633,1509.869c-18.046,0-32.727-14.472-32.727-32.263s14.681-32.264,32.727-32.264,32.726,14.473,32.726,32.264S3233.678,1509.869,3215.633,1509.869Zm0-60.721a28.46,28.46,0,1,0,28.865,28.458A28.7,28.7,0,0,0,3215.633,1449.148Z" transform="translate(-3182.906 -1445.342)" fill="#fff"/></g></g></g></g></g></svg>